<svg xmlns="http://www.w3.org/2000/svg" xmlns:xlink="http://www.w3.org/1999/xlink" width="500" zoomAndPan="magnify" viewBox="0 0 375 374.999991" height="500" preserveAspectRatio="xMidYMid meet" version="1.0"><defs><clipPath id="f08aaeb931"><path d="M 44.34375 17.328125 L 330.84375 17.328125 L 330.84375 357.828125 L 44.34375 357.828125 Z M 44.34375 17.328125 " clip-rule="nonzero"/></clipPath></defs><g clip-path="url(#f08aaeb931)"><path fill="#ffffff" d="M 311.847656 103.695312 L 63.605469 103.695312 L 63.605469 75.148438 L 311.847656 75.148438 Z M 267.261719 320.886719 C 266.179688 330.503906 257.980469 337.648438 248.363281 337.648438 L 127.089844 337.648438 C 117.476562 337.648438 109.246094 330.503906 108.191406 320.886719 L 83.5625 122.929688 L 292.222656 122.929688 Z M 159.195312 36.988281 L 216.257812 36.988281 L 216.257812 56.25 L 159.195312 56.25 Z M 321.464844 55.886719 L 235.519531 55.886719 L 235.519531 36.988281 C 235.519531 26.285156 226.960938 17.722656 216.257812 17.722656 L 159.195312 17.722656 C 148.492188 17.722656 139.933594 26.285156 139.933594 36.988281 L 139.933594 56.25 L 53.992188 56.25 C 48.625 56.25 44.34375 60.527344 44.34375 65.863281 L 44.34375 113.675781 C 44.34375 119.007812 48.625 123.289062 53.992188 123.289062 L 63.96875 123.289062 L 88.929688 323.75 C 91.429688 342.652344 107.46875 357.273438 126.730469 357.273438 L 248 357.273438 C 267.261719 357.273438 283.660156 343.015625 285.800781 323.75 L 310.792969 123.289062 L 320.769531 123.289062 C 326.105469 123.289062 330.386719 119.007812 330.386719 113.675781 L 330.386719 65.503906 C 330.746094 60.167969 326.46875 55.886719 321.464844 55.886719 " fill-opacity="1" fill-rule="nonzero"/></g><path fill="#ffffff" d="M 144.214844 308.40625 L 144.9375 308.40625 C 150.273438 308.046875 154.191406 303.402344 153.859375 298.066406 L 143.851562 162.539062 C 143.488281 157.171875 138.847656 153.253906 133.511719 153.617188 C 128.175781 153.976562 124.226562 158.621094 124.589844 163.957031 L 134.597656 299.484375 C 134.929688 304.488281 139.210938 308.40625 144.214844 308.40625 " fill-opacity="1" fill-rule="nonzero"/><path fill="#ffffff" d="M 187.742188 308.40625 C 193.078125 308.40625 197.359375 304.128906 197.359375 298.761719 L 197.359375 163.230469 C 197.359375 157.894531 193.078125 153.617188 187.742188 153.617188 C 182.375 153.617188 178.097656 157.894531 178.097656 163.230469 L 178.097656 298.761719 C 178.097656 304.128906 182.375 308.40625 187.742188 308.40625 " fill-opacity="1" fill-rule="nonzero"/><path fill="#ffffff" d="M 230.515625 308.40625 L 231.242188 308.40625 C 236.214844 308.40625 240.496094 304.488281 240.886719 299.484375 L 250.863281 163.957031 C 251.195312 158.621094 247.277344 153.976562 241.941406 153.617188 C 236.578125 153.253906 231.933594 157.171875 231.601562 162.539062 L 221.59375 298.066406 C 221.234375 303.402344 225.179688 308.046875 230.515625 308.40625 " fill-opacity="1" fill-rule="nonzero"/></svg>