<svg xmlns="http://www.w3.org/2000/svg" xmlns:xlink="http://www.w3.org/1999/xlink" width="500" zoomAndPan="magnify" viewBox="0 0 375 374.999991" height="500" preserveAspectRatio="xMidYMid meet" version="1.0"><defs><clipPath id="9c791344b0"><path d="M 3 98 L 374 98 L 374 225 L 3 225 Z M 3 98 " clip-rule="nonzero"/></clipPath><clipPath id="7d3e694e24"><path d="M 370.800781 91.453125 L 375.832031 216.601562 L 4.878906 231.511719 L -0.148438 106.363281 Z M 370.800781 91.453125 " clip-rule="nonzero"/></clipPath><clipPath id="03a8298151"><path d="M 370.800781 91.453125 L 375.832031 216.601562 L 4.878906 231.511719 L -0.148438 106.363281 Z M 370.800781 91.453125 " clip-rule="nonzero"/></clipPath><clipPath id="7d79f9fd9a"><path d="M 370.800781 91.453125 L 375.832031 216.601562 L 4.878906 231.511719 L -0.148438 106.363281 Z M 370.800781 91.453125 " clip-rule="nonzero"/></clipPath><clipPath id="fff6eb5b7c"><path d="M 196 225 L 201 225 L 201 230 L 196 230 Z M 196 225 " clip-rule="nonzero"/></clipPath><clipPath id="7f72520842"><path d="M 195.175781 228.78125 L 219.117188 176.226562 L 281.226562 204.519531 L 257.28125 257.074219 Z M 195.175781 228.78125 " clip-rule="nonzero"/></clipPath><clipPath id="e16c0ad538"><path d="M 195.175781 228.78125 L 219.117188 176.226562 L 281.226562 204.519531 L 257.28125 257.074219 Z M 195.175781 228.78125 " clip-rule="nonzero"/></clipPath><clipPath id="4835c29d65"><path d="M 276 203 L 281 203 L 281 208 L 276 208 Z M 276 203 " clip-rule="nonzero"/></clipPath><clipPath id="cdd7e429a4"><path d="M 195.175781 228.78125 L 219.117188 176.226562 L 281.226562 204.519531 L 257.28125 257.074219 Z M 195.175781 228.78125 " clip-rule="nonzero"/></clipPath><clipPath id="9292251539"><path d="M 195.175781 228.78125 L 219.117188 176.226562 L 281.226562 204.519531 L 257.28125 257.074219 Z M 195.175781 228.78125 " clip-rule="nonzero"/></clipPath><clipPath id="41d8a22ed1"><path d="M 248 214 L 253 214 L 253 219 L 248 219 Z M 248 214 " clip-rule="nonzero"/></clipPath><clipPath id="b035091d4d"><path d="M 195.175781 228.78125 L 219.117188 176.226562 L 281.226562 204.519531 L 257.28125 257.074219 Z M 195.175781 228.78125 " clip-rule="nonzero"/></clipPath><clipPath id="b1fe98276b"><path d="M 195.175781 228.78125 L 219.117188 176.226562 L 281.226562 204.519531 L 257.28125 257.074219 Z M 195.175781 228.78125 " clip-rule="nonzero"/></clipPath><clipPath id="8ed445a997"><path d="M 225 199 L 231 199 L 231 204 L 225 204 Z M 225 199 " clip-rule="nonzero"/></clipPath><clipPath id="59516b8628"><path d="M 195.175781 228.78125 L 219.117188 176.226562 L 281.226562 204.519531 L 257.28125 257.074219 Z M 195.175781 228.78125 " clip-rule="nonzero"/></clipPath><clipPath id="da12b13fd0"><path d="M 195.175781 228.78125 L 219.117188 176.226562 L 281.226562 204.519531 L 257.28125 257.074219 Z M 195.175781 228.78125 " clip-rule="nonzero"/></clipPath><clipPath id="c817eb06d0"><path d="M 131 124 L 136 124 L 136 130 L 131 130 Z M 131 124 " clip-rule="nonzero"/></clipPath><clipPath id="e9af375500"><path d="M 135.730469 124.714844 L 134.457031 182.453125 L 66.222656 180.945312 L 67.496094 123.210938 Z M 135.730469 124.714844 " clip-rule="nonzero"/></clipPath><clipPath id="6cd8dcf2a9"><path d="M 135.730469 124.714844 L 134.457031 182.453125 L 66.222656 180.945312 L 67.496094 123.210938 Z M 135.730469 124.714844 " clip-rule="nonzero"/></clipPath><clipPath id="e8e06db217"><path d="M 66 176 L 71 176 L 71 181 L 66 181 Z M 66 176 " clip-rule="nonzero"/></clipPath><clipPath id="ed6757c7f2"><path d="M 135.730469 124.714844 L 134.457031 182.453125 L 66.222656 180.945312 L 67.496094 123.210938 Z M 135.730469 124.714844 " clip-rule="nonzero"/></clipPath><clipPath id="e2d0d88926"><path d="M 135.730469 124.714844 L 134.457031 182.453125 L 66.222656 180.945312 L 67.496094 123.210938 Z M 135.730469 124.714844 " clip-rule="nonzero"/></clipPath><clipPath id="d6ba8e0fc5"><path d="M 87 156 L 92 156 L 92 161 L 87 161 Z M 87 156 " clip-rule="nonzero"/></clipPath><clipPath id="5b7f78b305"><path d="M 135.730469 124.714844 L 134.457031 182.453125 L 66.222656 180.945312 L 67.496094 123.210938 Z M 135.730469 124.714844 " clip-rule="nonzero"/></clipPath><clipPath id="e51c10a1a6"><path d="M 135.730469 124.714844 L 134.457031 182.453125 L 66.222656 180.945312 L 67.496094 123.210938 Z M 135.730469 124.714844 " clip-rule="nonzero"/></clipPath><clipPath id="dad79ab2e0"><path d="M 114 160 L 119 160 L 119 166 L 114 166 Z M 114 160 " clip-rule="nonzero"/></clipPath><clipPath id="f949b143ac"><path d="M 135.730469 124.714844 L 134.457031 182.453125 L 66.222656 180.945312 L 67.496094 123.210938 Z M 135.730469 124.714844 " clip-rule="nonzero"/></clipPath><clipPath id="450eac3c01"><path d="M 135.730469 124.714844 L 134.457031 182.453125 L 66.222656 180.945312 L 67.496094 123.210938 Z M 135.730469 124.714844 " clip-rule="nonzero"/></clipPath><clipPath id="cea755f371"><path d="M 220 149 L 225 149 L 225 154 L 220 154 Z M 220 149 " clip-rule="nonzero"/></clipPath><clipPath id="d5d490757f"><path d="M 281.273438 120.15625 L 257.136719 170.132812 L 219.992188 152.195312 L 244.128906 102.21875 Z M 281.273438 120.15625 " clip-rule="nonzero"/></clipPath><clipPath id="c35064b2ea"><path d="M 306.222656 130.046875 L 281.105469 182.046875 L 219.648438 152.367188 L 244.765625 100.363281 Z M 306.222656 130.046875 " clip-rule="nonzero"/></clipPath><clipPath id="7be334f1cf"><path d="M 248 139 L 253 139 L 253 144 L 248 144 Z M 248 139 " clip-rule="nonzero"/></clipPath><clipPath id="e3f2215b1e"><path d="M 281.273438 120.15625 L 257.136719 170.132812 L 219.992188 152.195312 L 244.128906 102.21875 Z M 281.273438 120.15625 " clip-rule="nonzero"/></clipPath><clipPath id="e84ad63fd8"><path d="M 306.222656 130.046875 L 281.105469 182.046875 L 219.648438 152.367188 L 244.765625 100.363281 Z M 306.222656 130.046875 " clip-rule="nonzero"/></clipPath><clipPath id="2fb16fda5e"><path d="M 346 143 L 351 143 L 351 148 L 346 148 Z M 346 143 " clip-rule="nonzero"/></clipPath><clipPath id="16f95bc407"><path d="M 350.695312 147.285156 L 299.429688 170.433594 L 288.007812 145.144531 L 339.273438 121.992188 Z M 350.695312 147.285156 " clip-rule="nonzero"/></clipPath><clipPath id="a20c0c6245"><path d="M 352.203125 146.601562 L 299.570312 170.371094 L 271.480469 108.171875 L 324.113281 84.402344 Z M 352.203125 146.601562 " clip-rule="nonzero"/></clipPath><clipPath id="ff4cd67f49"><path d="M 307 143 L 312 143 L 312 148 L 307 148 Z M 307 143 " clip-rule="nonzero"/></clipPath><clipPath id="df8e907d44"><path d="M 350.695312 147.285156 L 299.429688 170.433594 L 288.007812 145.144531 L 339.273438 121.992188 Z M 350.695312 147.285156 " clip-rule="nonzero"/></clipPath><clipPath id="724b59d586"><path d="M 352.203125 146.601562 L 299.570312 170.371094 L 271.480469 108.171875 L 324.113281 84.402344 Z M 352.203125 146.601562 " clip-rule="nonzero"/></clipPath><clipPath id="6f1592c10b"><path d="M 318 135 L 324 135 L 324 140 L 318 140 Z M 318 135 " clip-rule="nonzero"/></clipPath><clipPath id="39f95df673"><path d="M 386.730469 144.59375 L 338.742188 172.472656 L 318.019531 136.804688 L 366.007812 108.925781 Z M 386.730469 144.59375 " clip-rule="nonzero"/></clipPath><clipPath id="9fc9521b5e"><path d="M 401.855469 166.757812 L 351.921875 195.765625 L 317.636719 136.753906 L 367.574219 107.742188 Z M 401.855469 166.757812 " clip-rule="nonzero"/></clipPath><clipPath id="d9fe0e0b52"><path d="M 347 142 L 352 142 L 352 147 L 347 147 Z M 347 142 " clip-rule="nonzero"/></clipPath><clipPath id="3053c1f4fe"><path d="M 386.730469 144.59375 L 338.742188 172.472656 L 318.019531 136.804688 L 366.007812 108.925781 Z M 386.730469 144.59375 " clip-rule="nonzero"/></clipPath><clipPath id="4c8254d8bf"><path d="M 401.855469 166.757812 L 351.921875 195.765625 L 317.636719 136.753906 L 367.574219 107.742188 Z M 401.855469 166.757812 " clip-rule="nonzero"/></clipPath><clipPath id="5aed75ac68"><path d="M 304 179 L 309 179 L 309 184 L 304 184 Z M 304 179 " clip-rule="nonzero"/></clipPath><clipPath id="80e5808f8d"><path d="M 371.898438 171.296875 L 332.652344 210.539062 L 303.484375 181.371094 L 342.730469 142.128906 Z M 371.898438 171.296875 " clip-rule="nonzero"/></clipPath><clipPath id="b1f440b2e9"><path d="M 392.199219 188.84375 L 351.363281 229.679688 L 303.101562 181.421875 L 343.9375 140.585938 Z M 392.199219 188.84375 " clip-rule="nonzero"/></clipPath><clipPath id="97b0308298"><path d="M 333 179 L 338 179 L 338 184 L 333 184 Z M 333 179 " clip-rule="nonzero"/></clipPath><clipPath id="961464e818"><path d="M 371.898438 171.296875 L 332.652344 210.539062 L 303.484375 181.371094 L 342.730469 142.128906 Z M 371.898438 171.296875 " clip-rule="nonzero"/></clipPath><clipPath id="6086581790"><path d="M 392.199219 188.84375 L 351.363281 229.679688 L 303.101562 181.421875 L 343.9375 140.585938 Z M 392.199219 188.84375 " clip-rule="nonzero"/></clipPath><clipPath id="5d2663ff0f"><path d="M 142 195 L 148 195 L 148 201 L 142 201 Z M 142 195 " clip-rule="nonzero"/></clipPath><clipPath id="19d401f398"><path d="M 210.140625 209.9375 L 160.292969 234.339844 L 142.160156 197.289062 L 192.007812 172.890625 Z M 210.140625 209.9375 " clip-rule="nonzero"/></clipPath><clipPath id="cdfb0d4da4"><path d="M 223.65625 233.121094 L 171.789062 258.511719 L 141.78125 197.210938 L 193.648438 171.820312 Z M 223.65625 233.121094 " clip-rule="nonzero"/></clipPath><clipPath id="b2ba387504"><path d="M 170 205 L 175 205 L 175 210 L 170 210 Z M 170 205 " clip-rule="nonzero"/></clipPath><clipPath id="9b9d631e56"><path d="M 210.140625 209.9375 L 160.292969 234.339844 L 142.160156 197.289062 L 192.007812 172.890625 Z M 210.140625 209.9375 " clip-rule="nonzero"/></clipPath><clipPath id="a4674deec5"><path d="M 223.65625 233.121094 L 171.789062 258.511719 L 141.78125 197.210938 L 193.648438 171.820312 Z M 223.65625 233.121094 " clip-rule="nonzero"/></clipPath><clipPath id="87f6d65b09"><path d="M 73.191406 252.664062 L 77.488281 252.664062 L 77.488281 256.3125 L 73.191406 256.3125 Z M 73.191406 252.664062 " clip-rule="nonzero"/></clipPath><clipPath id="c443771205"><path d="M 77.476562 253.949219 C 75.523438 257.023438 73.800781 256.425781 73.351562 255.824219 C 72.976562 255.148438 73.351562 253.351562 73.949219 252.824219 C 74.476562 252.375 76.875 253.050781 76.875 253.050781 " clip-rule="nonzero"/></clipPath><clipPath id="7945a886d6"><path d="M 13 179 L 18 179 L 18 185 L 13 185 Z M 13 179 " clip-rule="nonzero"/></clipPath><clipPath id="30a517cc09"><path d="M 80.46875 193.917969 L 30.621094 218.320312 L 12.484375 181.269531 L 62.332031 156.867188 Z M 80.46875 193.917969 " clip-rule="nonzero"/></clipPath><clipPath id="65e2c5b9f0"><path d="M 93.980469 217.101562 L 42.113281 242.492188 L 12.105469 181.191406 L 63.976562 155.800781 Z M 93.980469 217.101562 " clip-rule="nonzero"/></clipPath><clipPath id="9b0b972fe7"><path d="M 40 189 L 46 189 L 46 194 L 40 194 Z M 40 189 " clip-rule="nonzero"/></clipPath><clipPath id="b89ed91b2c"><path d="M 80.46875 193.917969 L 30.621094 218.320312 L 12.484375 181.269531 L 62.332031 156.867188 Z M 80.46875 193.917969 " clip-rule="nonzero"/></clipPath><clipPath id="ed4ec19043"><path d="M 93.980469 217.101562 L 42.113281 242.492188 L 12.105469 181.191406 L 63.976562 155.800781 Z M 93.980469 217.101562 " clip-rule="nonzero"/></clipPath><clipPath id="fc1fd5a937"><path d="M 75 215 L 80 215 L 80 220 L 75 220 Z M 75 215 " clip-rule="nonzero"/></clipPath><clipPath id="f1cb961b1c"><path d="M 141.804688 234.035156 L 90.273438 254.644531 L 74.957031 216.34375 L 126.488281 195.734375 Z M 141.804688 234.035156 " clip-rule="nonzero"/></clipPath><clipPath id="3246e282fb"><path d="M 153.550781 258.164062 L 99.929688 279.609375 L 74.585938 216.238281 L 128.207031 194.792969 Z M 153.550781 258.164062 " clip-rule="nonzero"/></clipPath><clipPath id="aa0d1f064d"><path d="M 102 226 L 107 226 L 107 231 L 102 231 Z M 102 226 " clip-rule="nonzero"/></clipPath><clipPath id="bcfc89e992"><path d="M 141.804688 234.035156 L 90.273438 254.644531 L 74.957031 216.34375 L 126.488281 195.734375 Z M 141.804688 234.035156 " clip-rule="nonzero"/></clipPath><clipPath id="17783ef47f"><path d="M 153.550781 258.164062 L 99.929688 279.609375 L 74.585938 216.238281 L 128.207031 194.792969 Z M 153.550781 258.164062 " clip-rule="nonzero"/></clipPath></defs><g clip-path="url(#9c791344b0)"><g clip-path="url(#7d3e694e24)"><g clip-path="url(#03a8298151)"><g clip-path="url(#7d79f9fd9a)"><path fill="#000000" d="M 152.757812 222.699219 C 154.089844 221.976562 154.941406 220.972656 155.277344 219.714844 C 155.714844 218.089844 155.410156 216.453125 154.359375 214.859375 C 151.257812 210.136719 141.742188 206.175781 128.90625 204.261719 C 120.144531 202.953125 107.796875 202.164062 98.425781 201.714844 C 117.167969 198.578125 135.320312 193.507812 152.8125 187.898438 C 155.519531 188.855469 173.183594 195.03125 186.132812 197.613281 C 206.480469 201.671875 217.5625 201.078125 219.074219 195.851562 C 219.570312 194.144531 219.234375 192.4375 218.109375 190.910156 C 214.925781 186.582031 205.441406 183.722656 193.363281 183.449219 C 184.3125 183.242188 171.449219 184.023438 162.628906 184.679688 C 168.832031 182.609375 174.949219 180.503906 180.972656 178.429688 C 185.441406 176.890625 189.828125 175.386719 194.171875 173.917969 C 206.753906 172.949219 218.175781 173.269531 228.378906 174.367188 C 230.011719 176.539062 237.546875 186.441406 243.859375 193.199219 C 249.621094 199.371094 259.109375 206.132812 264.386719 206.296875 C 265.6875 206.339844 266.726562 205.996094 267.480469 205.289062 C 268.578125 204.25 269.074219 202.785156 268.917969 201.066406 C 268.425781 195.722656 262.011719 188.867188 256.226562 185.132812 C 251.535156 182.105469 243.445312 178.292969 237.371094 175.578125 C 268.300781 180.597656 285.816406 192.382812 287.265625 193.394531 C 288.175781 194.484375 294.917969 202.429688 302.730469 208.015625 C 307.636719 211.523438 317.359375 217.1875 322.707031 216.171875 C 324.027344 215.921875 325.023438 215.289062 325.667969 214.292969 C 326.414062 213.136719 326.574219 211.738281 326.136719 210.253906 C 324.710938 205.425781 317.40625 200.214844 311.222656 197.421875 C 302.484375 193.476562 290.53125 191.683594 288.507812 191.402344 C 287.019531 190.363281 278.75 184.855469 264.050781 179.769531 C 262.644531 179.28125 261.128906 178.792969 259.554688 178.308594 C 266.332031 178.878906 273.953125 179.457031 278.46875 179.601562 C 286.722656 179.863281 296.996094 180.1875 300.5 176.527344 C 301.449219 175.535156 301.859375 174.296875 301.769531 172.929688 C 301.632812 171.191406 300.769531 169.691406 299.203125 168.472656 C 295.066406 165.257812 285.832031 164.300781 275.675781 166.027344 C 264.179688 167.988281 247.761719 173.875 245.515625 174.691406 C 233.828125 172.242188 219.441406 170.570312 202.703125 171.121094 C 254.800781 155.050781 312.820312 157.910156 316.523438 158.113281 C 318.1875 158.828125 330.597656 164.089844 341.597656 167.207031 C 349.945312 169.574219 365.210938 170.8125 370.984375 166.863281 C 372.421875 165.878906 373.21875 164.625 373.355469 163.140625 C 373.582031 160.554688 372.59375 158.058594 370.476562 155.917969 C 365.769531 151.164062 356.398438 148.960938 344.769531 149.863281 C 330.992188 150.941406 318.425781 155.152344 316.636719 155.773438 C 314.0625 155.632812 291.539062 154.558594 262.535156 157.355469 C 270.117188 154.148438 281.804688 149.117188 288.375 145.851562 C 296.363281 141.875 302.160156 136.167969 303.878906 130.578125 C 304.664062 128.03125 304.519531 125.683594 303.460938 123.804688 C 302.703125 122.457031 301.355469 121.597656 299.570312 121.328125 C 294.105469 120.492188 284.316406 125.171875 276.800781 132.207031 C 268.425781 140.042969 256.082031 155.792969 254.171875 158.246094 C 236.078125 160.394531 216.097656 164.109375 197.152344 170.433594 C 191.609375 172.289062 185.957031 174.234375 180.203125 176.214844 C 155.847656 184.609375 129.972656 193.515625 102.867188 198.550781 C 124.484375 190.140625 146.671875 174 157.519531 162.402344 C 160.050781 162.199219 174.828125 161.011719 185.628906 160.191406 C 194.152344 159.542969 208.265625 156.632812 212.207031 151.269531 C 213.164062 149.964844 213.484375 148.597656 213.15625 147.191406 C 212.785156 145.613281 211.714844 144.277344 210.058594 143.332031 C 206.964844 141.558594 200.414062 140.324219 186.785156 144.5 C 177.910156 147.21875 170.089844 151.347656 164.578125 154.714844 C 174.292969 144.390625 182.589844 137.050781 183.542969 136.355469 C 184.640625 135.832031 203.980469 126.621094 212.105469 121.414062 C 218.425781 117.363281 226.191406 110.675781 227.285156 105.152344 C 227.621094 103.457031 227.339844 101.949219 226.441406 100.671875 C 225.441406 99.242188 223.855469 98.402344 221.851562 98.25 C 215.445312 97.75 205.03125 104.277344 198.660156 110.875 C 190.632812 119.191406 182.511719 133.773438 181.996094 134.703125 C 178.429688 137.320312 166.3125 149.011719 157.054688 159.472656 C 153.230469 163.789062 147.59375 168.878906 140.902344 174 C 145.507812 168.871094 150.96875 162.554688 153.660156 158.574219 C 159.210938 150.570312 162.472656 140.277344 161.246094 134.664062 C 160.875 132.957031 160.097656 131.742188 158.945312 131.054688 C 157.746094 130.339844 156.355469 130.234375 154.929688 130.753906 C 149.125 132.859375 142.972656 145.210938 140.253906 152.996094 C 136.867188 162.699219 132.15625 178.253906 131.386719 180.804688 C 116.980469 190.410156 99.78125 198.945312 84.808594 201.222656 C 84.777344 201.226562 84.75 201.246094 84.722656 201.253906 C 84.679688 201.261719 84.640625 201.265625 84.601562 201.277344 C 81.6875 201.601562 78.761719 201.871094 75.820312 202.085938 C 81.460938 199.566406 89.941406 195.617188 96.023438 192.039062 C 103.453125 187.667969 109.429688 180.519531 110.238281 175.035156 C 110.53125 173.027344 110.097656 171.316406 108.976562 170.101562 C 107.910156 168.953125 106.496094 168.386719 104.769531 168.425781 C 98.183594 168.5625 88.851562 177.535156 84.835938 182.253906 C 79.363281 188.695312 70.472656 200.277344 68.78125 202.488281 C 48.078125 203.296875 26.765625 201.007812 4.953125 193.863281 C 4.335938 193.660156 3.671875 193.996094 3.472656 194.609375 C 3.425781 194.746094 3.410156 194.886719 3.414062 195.023438 C 3.433594 195.496094 3.742188 195.929688 4.222656 196.089844 C 32.019531 205.195312 58.957031 206.515625 84.84375 203.621094 C 87.785156 205.089844 107.777344 215 121.011719 219.339844 C 132.769531 223.191406 147.144531 225.722656 152.757812 222.699219 Z M 193.308594 185.789062 C 204.328125 186.039062 213.535156 188.65625 216.214844 192.296875 C 216.675781 192.921875 216.921875 193.550781 216.945312 194.195312 C 216.960938 194.527344 216.917969 194.859375 216.816406 195.199219 C 216.003906 198.007812 207.640625 199.515625 186.597656 195.316406 C 177.175781 193.4375 165.179688 189.617188 158.4375 187.355469 C 166.761719 186.679688 182.707031 185.546875 193.308594 185.789062 Z M 254.953125 187.097656 C 261.003906 191.007812 266.21875 197.367188 266.578125 201.28125 C 266.585938 201.363281 266.59375 201.445312 266.597656 201.527344 C 266.632812 202.414062 266.394531 203.089844 265.867188 203.585938 C 265.585938 203.851562 265.109375 203.976562 264.460938 203.957031 C 260.359375 203.828125 251.714844 198.171875 245.578125 191.601562 C 240.988281 186.6875 235.71875 180.054688 232.613281 176.042969 C 238.53125 178.617188 249.390625 183.511719 254.953125 187.097656 Z M 310.253906 199.554688 C 317.015625 202.613281 322.875 207.496094 323.882812 210.914062 C 323.96875 211.210938 324.019531 211.488281 324.027344 211.746094 C 324.046875 212.226562 323.9375 212.648438 323.695312 213.023438 C 323.40625 213.464844 322.941406 213.742188 322.269531 213.871094 C 318.511719 214.582031 310.105469 210.40625 304.097656 206.113281 C 298.738281 202.28125 293.777344 197.15625 291.082031 194.1875 C 295.5625 194.96875 303.914062 196.691406 310.253906 199.554688 Z M 297.757812 170.320312 C 298.800781 171.128906 299.34375 172.042969 299.425781 173.113281 C 299.429688 173.152344 299.433594 173.191406 299.433594 173.230469 C 299.460938 173.894531 299.257812 174.433594 298.800781 174.910156 C 296.019531 177.8125 285.503906 177.480469 278.542969 177.257812 C 271.9375 177.046875 258.566406 175.894531 251.101562 175.21875 C 257.289062 173.113281 267.953125 169.722656 276.070312 168.335938 C 285.457031 166.738281 294.175781 167.535156 297.757812 170.320312 Z M 278.40625 133.914062 C 285.332031 127.429688 294.472656 122.917969 299.210938 123.644531 C 300.289062 123.808594 301.007812 124.238281 301.414062 124.953125 C 301.789062 125.613281 301.992188 126.375 302.023438 127.214844 C 302.058594 128.039062 301.929688 128.9375 301.632812 129.890625 C 300.449219 133.742188 296.066406 139.40625 287.324219 143.753906 C 279.839844 147.480469 265.589844 153.539062 258.539062 156.492188 C 263.007812 150.886719 271.941406 139.964844 278.40625 133.914062 Z M 368.804688 157.566406 C 370.207031 158.980469 370.96875 160.5625 371.035156 162.183594 C 371.042969 162.429688 371.035156 162.679688 371.011719 162.925781 C 370.945312 163.699219 370.5 164.351562 369.652344 164.929688 C 365.117188 168.039062 351.195312 167.496094 342.242188 164.957031 C 333.898438 162.589844 324.714844 158.964844 320.160156 157.09375 C 324.859375 155.652344 334.558594 153.011719 344.949219 152.203125 C 355.730469 151.363281 364.648438 153.367188 368.804688 157.566406 Z M 142.46875 153.769531 C 145.617188 144.761719 151.433594 134.515625 155.726562 132.953125 C 156.503906 132.675781 157.144531 132.710938 157.742188 133.066406 C 158.316406 133.40625 158.71875 134.113281 158.949219 135.164062 C 159.054688 135.648438 159.117188 136.1875 159.140625 136.765625 C 159.351562 142.007812 156.269531 150.691406 151.71875 157.253906 C 148.257812 162.375 139.792969 171.789062 134.996094 177.007812 C 136.828125 171.035156 140.007812 160.828125 142.46875 153.769531 Z M 208.890625 145.363281 C 209.964844 145.976562 210.648438 146.796875 210.867188 147.726562 C 210.898438 147.871094 210.917969 148.011719 210.925781 148.152344 C 210.949219 148.722656 210.746094 149.296875 210.3125 149.886719 C 207.351562 153.917969 195.34375 157.105469 185.453125 157.855469 C 177.265625 158.476562 166.773438 159.308594 161.070312 159.769531 C 165.960938 156.402344 175.796875 150.316406 187.476562 146.738281 C 200.972656 142.601562 206.6875 144.101562 208.890625 145.363281 Z M 200.351562 112.5 C 207.074219 105.539062 216.636719 100.191406 221.667969 100.585938 C 222.984375 100.6875 223.914062 101.152344 224.515625 102.011719 C 224.859375 102.503906 225.042969 103.050781 225.070312 103.671875 C 225.082031 103.996094 225.050781 104.335938 224.980469 104.703125 C 224.089844 109.191406 217.234375 115.34375 210.835938 119.445312 C 204.808594 123.308594 192.046875 129.628906 185.917969 132.609375 C 188.84375 127.6875 194.710938 118.347656 200.351562 112.5 Z M 86.628906 183.769531 C 91.921875 177.542969 100.097656 170.867188 104.820312 170.765625 C 105.859375 170.746094 106.652344 171.046875 107.25 171.691406 C 107.699219 172.179688 107.945312 172.832031 107.976562 173.640625 C 107.988281 173.96875 107.96875 174.320312 107.914062 174.699219 C 107.316406 178.746094 102.527344 185.492188 94.828125 190.023438 C 88.164062 193.945312 78.527344 198.34375 73.089844 200.734375 C 76.558594 196.246094 82.558594 188.558594 86.628906 183.769531 Z M 90.363281 203.722656 C 99.242188 204.042969 117.050781 204.863281 128.558594 206.578125 C 140.378906 208.339844 149.734375 212.097656 152.394531 216.144531 C 152.851562 216.835938 153.089844 217.503906 153.117188 218.164062 C 153.128906 218.480469 153.09375 218.796875 153.007812 219.109375 C 152.84375 219.730469 152.394531 220.230469 151.636719 220.636719 C 147.378906 222.933594 135.089844 221.484375 121.746094 217.113281 C 111.707031 213.824219 97.671875 207.257812 90.363281 203.722656 Z M 90.363281 203.722656 " fill-opacity="1" fill-rule="nonzero"/></g></g></g></g><g clip-path="url(#fff6eb5b7c)"><g clip-path="url(#7f72520842)"><g clip-path="url(#e16c0ad538)"><path fill="#000000" d="M 199.089844 225.601562 C 197.84375 225.109375 196.445312 226 196.179688 227.085938 C 195.964844 227.992188 196.59375 228.773438 196.699219 228.894531 C 196.828125 229.050781 197.515625 229.828125 198.570312 229.722656 C 199.390625 229.640625 200.070312 229.0625 200.328125 228.347656 C 200.699219 227.304688 200.160156 226.023438 199.089844 225.601562 Z M 199.089844 225.601562 " fill-opacity="1" fill-rule="nonzero"/></g></g></g><g clip-path="url(#4835c29d65)"><g clip-path="url(#cdd7e429a4)"><g clip-path="url(#9292251539)"><path fill="#000000" d="M 277.710938 203.785156 C 276.402344 204.070312 275.730469 205.585938 276.117188 206.636719 C 276.441406 207.511719 277.398438 207.808594 277.554688 207.855469 C 277.75 207.910156 278.75 208.175781 279.570312 207.503906 C 280.207031 206.980469 280.453125 206.121094 280.265625 205.382812 C 280 204.308594 278.839844 203.542969 277.714844 203.785156 Z M 277.710938 203.785156 " fill-opacity="1" fill-rule="nonzero"/></g></g></g><g clip-path="url(#41d8a22ed1)"><g clip-path="url(#b035091d4d)"><g clip-path="url(#b1fe98276b)"><path fill="#000000" d="M 250.292969 214.148438 C 248.984375 214.429688 248.3125 215.945312 248.699219 216.996094 C 249.019531 217.871094 249.980469 218.167969 250.132812 218.214844 C 250.328125 218.273438 251.332031 218.535156 252.152344 217.863281 C 252.789062 217.339844 253.03125 216.484375 252.847656 215.742188 C 252.578125 214.671875 251.421875 213.90625 250.292969 214.148438 Z M 250.292969 214.148438 " fill-opacity="1" fill-rule="nonzero"/></g></g></g><g clip-path="url(#8ed445a997)"><g clip-path="url(#59516b8628)"><g clip-path="url(#da12b13fd0)"><path fill="#000000" d="M 228.75 199.304688 C 227.503906 198.8125 226.105469 199.703125 225.84375 200.792969 C 225.625 201.699219 226.257812 202.476562 226.359375 202.601562 C 226.492188 202.757812 227.179688 203.535156 228.234375 203.429688 C 229.054688 203.347656 229.734375 202.769531 229.988281 202.050781 C 230.363281 201.011719 229.824219 199.730469 228.75 199.304688 Z M 228.75 199.304688 " fill-opacity="1" fill-rule="nonzero"/></g></g></g><g clip-path="url(#c817eb06d0)"><g clip-path="url(#e9af375500)"><g clip-path="url(#6cd8dcf2a9)"><path fill="#000000" d="M 133.386719 129.179688 C 134.726562 129.140625 135.660156 127.773438 135.472656 126.667969 C 135.316406 125.75 134.425781 125.285156 134.28125 125.210938 C 134.101562 125.121094 133.164062 124.675781 132.234375 125.1875 C 131.515625 125.585938 131.117188 126.386719 131.164062 127.148438 C 131.234375 128.25 132.234375 129.214844 133.386719 129.179688 Z M 133.386719 129.179688 " fill-opacity="1" fill-rule="nonzero"/></g></g></g><g clip-path="url(#e8e06db217)"><g clip-path="url(#ed6757c7f2)"><g clip-path="url(#e2d0d88926)"><path fill="#000000" d="M 69.738281 180.238281 C 70.832031 179.460938 70.851562 177.804688 70.082031 176.988281 C 69.441406 176.3125 68.441406 176.417969 68.28125 176.4375 C 68.082031 176.460938 67.054688 176.613281 66.566406 177.554688 C 66.1875 178.285156 66.300781 179.171875 66.761719 179.777344 C 67.433594 180.660156 68.800781 180.90625 69.738281 180.238281 Z M 69.738281 180.238281 " fill-opacity="1" fill-rule="nonzero"/></g></g></g><g clip-path="url(#d6ba8e0fc5)"><g clip-path="url(#5b7f78b305)"><g clip-path="url(#e51c10a1a6)"><path fill="#000000" d="M 90.851562 159.902344 C 91.941406 159.125 91.960938 157.46875 91.191406 156.65625 C 90.550781 155.976562 89.550781 156.082031 89.394531 156.101562 C 89.191406 156.125 88.164062 156.277344 87.675781 157.21875 C 87.296875 157.953125 87.414062 158.835938 87.875 159.441406 C 88.542969 160.324219 89.910156 160.570312 90.851562 159.902344 Z M 90.851562 159.902344 " fill-opacity="1" fill-rule="nonzero"/></g></g></g><g clip-path="url(#dad79ab2e0)"><g clip-path="url(#f949b143ac)"><g clip-path="url(#450eac3c01)"><path fill="#000000" d="M 116.5 165.042969 C 117.839844 165.003906 118.773438 163.636719 118.585938 162.53125 C 118.429688 161.613281 117.539062 161.144531 117.398438 161.074219 C 117.214844 160.980469 116.277344 160.539062 115.347656 161.050781 C 114.628906 161.449219 114.230469 162.25 114.277344 163.007812 C 114.347656 164.113281 115.347656 165.078125 116.5 165.042969 Z M 116.5 165.042969 " fill-opacity="1" fill-rule="nonzero"/></g></g></g><g clip-path="url(#cea755f371)"><g clip-path="url(#d5d490757f)"><g clip-path="url(#c35064b2ea)"><path fill="#000000" d="M 223.144531 153.179688 C 224.457031 152.925781 225.164062 151.425781 224.800781 150.367188 C 224.5 149.484375 223.546875 149.164062 223.394531 149.117188 C 223.199219 149.054688 222.203125 148.769531 221.367188 149.421875 C 220.71875 149.929688 220.457031 150.78125 220.625 151.527344 C 220.867188 152.605469 222.011719 153.394531 223.140625 153.179688 Z M 223.144531 153.179688 " fill-opacity="1" fill-rule="nonzero"/></g></g></g><g clip-path="url(#7be334f1cf)"><g clip-path="url(#e3f2215b1e)"><g clip-path="url(#e84ad63fd8)"><path fill="#000000" d="M 250.789062 143.4375 C 252.105469 143.183594 252.808594 141.683594 252.445312 140.625 C 252.144531 139.742188 251.191406 139.421875 251.039062 139.375 C 250.84375 139.3125 249.847656 139.027344 249.011719 139.679688 C 248.367188 140.1875 248.101562 141.042969 248.269531 141.785156 C 248.515625 142.863281 249.65625 143.65625 250.789062 143.4375 Z M 250.789062 143.4375 " fill-opacity="1" fill-rule="nonzero"/></g></g></g><g clip-path="url(#2fb16fda5e)"><g clip-path="url(#16f95bc407)"><g clip-path="url(#a20c0c6245)"><path fill="#000000" d="M 347.164062 146.414062 C 347.777344 147.605469 349.414062 147.859375 350.332031 147.214844 C 351.089844 146.675781 351.128906 145.671875 351.132812 145.511719 C 351.136719 145.308594 351.132812 144.269531 350.269531 143.65625 C 349.597656 143.175781 348.707031 143.164062 348.039062 143.535156 C 347.074219 144.074219 346.636719 145.390625 347.164062 146.414062 Z M 347.164062 146.414062 " fill-opacity="1" fill-rule="nonzero"/></g></g></g><g clip-path="url(#ff4cd67f49)"><g clip-path="url(#df8e907d44)"><g clip-path="url(#724b59d586)"><path fill="#000000" d="M 307.523438 146.660156 C 308.136719 147.851562 309.777344 148.105469 310.691406 147.457031 C 311.453125 146.917969 311.492188 145.917969 311.496094 145.757812 C 311.5 145.554688 311.492188 144.515625 310.628906 143.898438 C 309.960938 143.421875 309.066406 143.410156 308.402344 143.777344 C 307.4375 144.316406 307 145.636719 307.527344 146.660156 Z M 307.523438 146.660156 " fill-opacity="1" fill-rule="nonzero"/></g></g></g><g clip-path="url(#6f1592c10b)"><g clip-path="url(#39f95df673)"><g clip-path="url(#9fc9521b5e)"><path fill="#000000" d="M 320.078125 139.382812 C 321.308594 139.914062 322.734375 139.0625 323.027344 137.980469 C 323.269531 137.082031 322.660156 136.285156 322.558594 136.160156 C 322.433594 136 321.769531 135.203125 320.710938 135.277344 C 319.890625 135.335938 319.195312 135.894531 318.917969 136.605469 C 318.515625 137.636719 319.015625 138.929688 320.078125 139.382812 Z M 320.078125 139.382812 " fill-opacity="1" fill-rule="nonzero"/></g></g></g><g clip-path="url(#d9fe0e0b52)"><g clip-path="url(#3053c1f4fe)"><g clip-path="url(#4c8254d8bf)"><path fill="#000000" d="M 348.433594 146.800781 C 349.667969 147.328125 351.089844 146.480469 351.382812 145.398438 C 351.628906 144.5 351.019531 143.699219 350.917969 143.574219 C 350.792969 143.414062 350.125 142.617188 349.070312 142.695312 C 348.25 142.75 347.550781 143.308594 347.273438 144.019531 C 346.871094 145.050781 347.375 146.34375 348.433594 146.800781 Z M 348.433594 146.800781 " fill-opacity="1" fill-rule="nonzero"/></g></g></g><g clip-path="url(#5aed75ac68)"><g clip-path="url(#80e5808f8d)"><g clip-path="url(#b1f440b2e9)"><path fill="#000000" d="M 306.136719 183.339844 C 307.460938 183.535156 308.621094 182.347656 308.625 181.230469 C 308.632812 180.296875 307.839844 179.683594 307.710938 179.585938 C 307.546875 179.464844 306.699219 178.863281 305.695312 179.207031 C 304.917969 179.472656 304.386719 180.191406 304.300781 180.949219 C 304.175781 182.050781 304.996094 183.171875 306.136719 183.339844 Z M 306.136719 183.339844 " fill-opacity="1" fill-rule="nonzero"/></g></g></g><g clip-path="url(#97b0308298)"><g clip-path="url(#961464e818)"><g clip-path="url(#6086581790)"><path fill="#000000" d="M 335.445312 183.242188 C 336.773438 183.4375 337.933594 182.25 337.9375 181.128906 C 337.945312 180.199219 337.148438 179.582031 337.019531 179.488281 C 336.859375 179.367188 336.011719 178.765625 335.007812 179.109375 C 334.230469 179.375 333.699219 180.09375 333.613281 180.851562 C 333.488281 181.949219 334.304688 183.074219 335.445312 183.242188 Z M 335.445312 183.242188 " fill-opacity="1" fill-rule="nonzero"/></g></g></g><g clip-path="url(#5d2663ff0f)"><g clip-path="url(#19d401f398)"><g clip-path="url(#cdfb0d4da4)"><path fill="#000000" d="M 144.027344 200.011719 C 145.21875 200.625 146.699219 199.878906 147.066406 198.820312 C 147.375 197.941406 146.824219 197.101562 146.734375 196.96875 C 146.617188 196.800781 146.011719 195.960938 144.953125 195.960938 C 144.128906 195.960938 143.394531 196.46875 143.066406 197.15625 C 142.59375 198.15625 143.003906 199.480469 144.027344 200.011719 Z M 144.027344 200.011719 " fill-opacity="1" fill-rule="nonzero"/></g></g></g><g clip-path="url(#b2ba387504)"><g clip-path="url(#9b9d631e56)"><g clip-path="url(#a4674deec5)"><path fill="#000000" d="M 171.785156 209.421875 C 172.976562 210.035156 174.460938 209.289062 174.828125 208.230469 C 175.136719 207.351562 174.582031 206.511719 174.492188 206.378906 C 174.378906 206.210938 173.769531 205.371094 172.710938 205.371094 C 171.886719 205.371094 171.152344 205.878906 170.828125 206.566406 C 170.351562 207.566406 170.761719 208.894531 171.785156 209.421875 Z M 171.785156 209.421875 " fill-opacity="1" fill-rule="nonzero"/></g></g></g><g clip-path="url(#87f6d65b09)"><g clip-path="url(#c443771205)"><path fill="#ffffff" d="M 70.351562 249.824219 L 80.480469 249.824219 L 80.480469 259.648438 L 70.351562 259.648438 Z M 70.351562 249.824219 " fill-opacity="1" fill-rule="nonzero"/></g></g><g clip-path="url(#7945a886d6)"><g clip-path="url(#30a517cc09)"><g clip-path="url(#65e2c5b9f0)"><path fill="#000000" d="M 14.351562 183.988281 C 15.542969 184.605469 17.023438 183.859375 17.394531 182.800781 C 17.699219 181.921875 17.148438 181.082031 17.058594 180.949219 C 16.945312 180.78125 16.335938 179.9375 15.277344 179.9375 C 14.453125 179.9375 13.71875 180.445312 13.394531 181.132812 C 12.917969 182.132812 13.328125 183.460938 14.351562 183.988281 Z M 14.351562 183.988281 " fill-opacity="1" fill-rule="nonzero"/></g></g></g><g clip-path="url(#9b0b972fe7)"><g clip-path="url(#b89ed91b2c)"><g clip-path="url(#ed4ec19043)"><path fill="#000000" d="M 42.113281 193.398438 C 43.304688 194.015625 44.785156 193.269531 45.152344 192.210938 C 45.460938 191.332031 44.910156 190.492188 44.816406 190.359375 C 44.703125 190.191406 44.097656 189.351562 43.035156 189.347656 C 42.214844 189.347656 41.480469 189.855469 41.152344 190.546875 C 40.679688 191.542969 41.085938 192.871094 42.113281 193.398438 Z M 42.113281 193.398438 " fill-opacity="1" fill-rule="nonzero"/></g></g></g><g clip-path="url(#fc1fd5a937)"><g clip-path="url(#f1cb961b1c)"><g clip-path="url(#3246e282fb)"><path fill="#000000" d="M 76.617188 219.195312 C 77.757812 219.898438 79.289062 219.265625 79.738281 218.238281 C 80.109375 217.382812 79.621094 216.503906 79.542969 216.367188 C 79.441406 216.191406 78.898438 215.304688 77.839844 215.226562 C 77.019531 215.164062 76.25 215.613281 75.871094 216.277344 C 75.324219 217.238281 75.632812 218.59375 76.617188 219.195312 Z M 76.617188 219.195312 " fill-opacity="1" fill-rule="nonzero"/></g></g></g><g clip-path="url(#aa0d1f064d)"><g clip-path="url(#bcfc89e992)"><g clip-path="url(#17783ef47f)"><path fill="#000000" d="M 103.59375 230.652344 C 104.738281 231.355469 106.269531 230.722656 106.71875 229.695312 C 107.089844 228.839844 106.601562 227.964844 106.519531 227.824219 C 106.417969 227.648438 105.875 226.761719 104.820312 226.683594 C 104 226.621094 103.230469 227.074219 102.851562 227.734375 C 102.304688 228.695312 102.613281 230.050781 103.59375 230.652344 Z M 103.59375 230.652344 " fill-opacity="1" fill-rule="nonzero"/></g></g></g></svg>