<svg xmlns="http://www.w3.org/2000/svg" xmlns:xlink="http://www.w3.org/1999/xlink" width="500" zoomAndPan="magnify" viewBox="0 0 375 374.999991" height="500" preserveAspectRatio="xMidYMid meet" version="1.0"><defs><clipPath id="b5ce9257b2"><path d="M 0 99 L 313 99 L 313 210 L 0 210 Z M 0 99 " clip-rule="nonzero"/></clipPath><clipPath id="e295ca6347"><path d="M 309.792969 93.816406 L 314.1875 203.25 L -7.664062 216.183594 L -12.0625 106.753906 Z M 309.792969 93.816406 " clip-rule="nonzero"/></clipPath><clipPath id="15fe35ebac"><path d="M 309.792969 93.816406 L 314.1875 203.25 L -7.664062 216.183594 L -12.0625 106.753906 Z M 309.792969 93.816406 " clip-rule="nonzero"/></clipPath><clipPath id="4a9ebef4f7"><path d="M 309.792969 93.816406 L 314.1875 203.25 L -7.664062 216.183594 L -12.0625 106.753906 Z M 309.792969 93.816406 " clip-rule="nonzero"/></clipPath><clipPath id="96a489c7f8"><path d="M 158 210 L 162 210 L 162 214 L 158 214 Z M 158 210 " clip-rule="nonzero"/></clipPath><clipPath id="529ca64b70"><path d="M 157.355469 213.003906 L 178.054688 167.566406 L 232.285156 192.273438 L 211.585938 237.707031 Z M 157.355469 213.003906 " clip-rule="nonzero"/></clipPath><clipPath id="d20bed7f24"><path d="M 157.355469 213.003906 L 178.054688 167.566406 L 232.285156 192.273438 L 211.585938 237.707031 Z M 157.355469 213.003906 " clip-rule="nonzero"/></clipPath><clipPath id="ae591a7eb1"><path d="M 227 191 L 232 191 L 232 195 L 227 195 Z M 227 191 " clip-rule="nonzero"/></clipPath><clipPath id="2253cc3cd5"><path d="M 157.355469 213.003906 L 178.054688 167.566406 L 232.285156 192.273438 L 211.585938 237.707031 Z M 157.355469 213.003906 " clip-rule="nonzero"/></clipPath><clipPath id="802654b70f"><path d="M 157.355469 213.003906 L 178.054688 167.566406 L 232.285156 192.273438 L 211.585938 237.707031 Z M 157.355469 213.003906 " clip-rule="nonzero"/></clipPath><clipPath id="2b4645095a"><path d="M 203 200 L 208 200 L 208 204 L 203 204 Z M 203 200 " clip-rule="nonzero"/></clipPath><clipPath id="804e7747d8"><path d="M 157.355469 213.003906 L 178.054688 167.566406 L 232.285156 192.273438 L 211.585938 237.707031 Z M 157.355469 213.003906 " clip-rule="nonzero"/></clipPath><clipPath id="95a33c0ff6"><path d="M 157.355469 213.003906 L 178.054688 167.566406 L 232.285156 192.273438 L 211.585938 237.707031 Z M 157.355469 213.003906 " clip-rule="nonzero"/></clipPath><clipPath id="3a6199e8eb"><path d="M 183 187 L 188 187 L 188 192 L 183 192 Z M 183 187 " clip-rule="nonzero"/></clipPath><clipPath id="ab742ffa69"><path d="M 157.355469 213.003906 L 178.054688 167.566406 L 232.285156 192.273438 L 211.585938 237.707031 Z M 157.355469 213.003906 " clip-rule="nonzero"/></clipPath><clipPath id="41e260baf2"><path d="M 157.355469 213.003906 L 178.054688 167.566406 L 232.285156 192.273438 L 211.585938 237.707031 Z M 157.355469 213.003906 " clip-rule="nonzero"/></clipPath><clipPath id="9d796f5f79"><path d="M 101 122 L 106 122 L 106 127 L 101 127 Z M 101 122 " clip-rule="nonzero"/></clipPath><clipPath id="7da689a9bd"><path d="M 105.75 122.675781 L 104.648438 172.589844 L 45.074219 171.277344 L 46.175781 121.363281 Z M 105.75 122.675781 " clip-rule="nonzero"/></clipPath><clipPath id="9f35ef1ea6"><path d="M 105.75 122.675781 L 104.648438 172.589844 L 45.074219 171.277344 L 46.175781 121.363281 Z M 105.75 122.675781 " clip-rule="nonzero"/></clipPath><clipPath id="65e50ffae5"><path d="M 45 167 L 50 167 L 50 172 L 45 172 Z M 45 167 " clip-rule="nonzero"/></clipPath><clipPath id="c7d2df21cb"><path d="M 105.75 122.675781 L 104.648438 172.589844 L 45.074219 171.277344 L 46.175781 121.363281 Z M 105.75 122.675781 " clip-rule="nonzero"/></clipPath><clipPath id="3aa3a1e7aa"><path d="M 105.75 122.675781 L 104.648438 172.589844 L 45.074219 171.277344 L 46.175781 121.363281 Z M 105.75 122.675781 " clip-rule="nonzero"/></clipPath><clipPath id="9f9294e8cd"><path d="M 63 149 L 68 149 L 68 154 L 63 154 Z M 63 149 " clip-rule="nonzero"/></clipPath><clipPath id="94a9bd4417"><path d="M 105.75 122.675781 L 104.648438 172.589844 L 45.074219 171.277344 L 46.175781 121.363281 Z M 105.75 122.675781 " clip-rule="nonzero"/></clipPath><clipPath id="b875e27212"><path d="M 105.75 122.675781 L 104.648438 172.589844 L 45.074219 171.277344 L 46.175781 121.363281 Z M 105.75 122.675781 " clip-rule="nonzero"/></clipPath><clipPath id="3e73707230"><path d="M 87 154 L 91 154 L 91 158 L 87 158 Z M 87 154 " clip-rule="nonzero"/></clipPath><clipPath id="7c1a269e6f"><path d="M 105.75 122.675781 L 104.648438 172.589844 L 45.074219 171.277344 L 46.175781 121.363281 Z M 105.75 122.675781 " clip-rule="nonzero"/></clipPath><clipPath id="c9774458ba"><path d="M 105.75 122.675781 L 104.648438 172.589844 L 45.074219 171.277344 L 46.175781 121.363281 Z M 105.75 122.675781 " clip-rule="nonzero"/></clipPath><clipPath id="71396d0b88"><path d="M 179 143 L 184 143 L 184 148 L 179 148 Z M 179 143 " clip-rule="nonzero"/></clipPath><clipPath id="cc73d86a3b"><path d="M 232.085938 118.71875 L 211.074219 162.226562 L 179.167969 146.816406 L 200.179688 103.308594 Z M 232.085938 118.71875 " clip-rule="nonzero"/></clipPath><clipPath id="8ae3edc8af"><path d="M 253.738281 127.304688 L 232.023438 172.261719 L 178.363281 146.34375 L 200.078125 101.386719 Z M 253.738281 127.304688 " clip-rule="nonzero"/></clipPath><clipPath id="11b8f146ef"><path d="M 203 135 L 208 135 L 208 139 L 203 139 Z M 203 135 " clip-rule="nonzero"/></clipPath><clipPath id="488a98567b"><path d="M 232.085938 118.71875 L 211.074219 162.226562 L 179.167969 146.816406 L 200.179688 103.308594 Z M 232.085938 118.71875 " clip-rule="nonzero"/></clipPath><clipPath id="e70b1c7bb4"><path d="M 253.738281 127.304688 L 232.023438 172.261719 L 178.363281 146.34375 L 200.078125 101.386719 Z M 253.738281 127.304688 " clip-rule="nonzero"/></clipPath><clipPath id="2f06d49f10"><path d="M 289 138 L 293 138 L 293 143 L 289 143 Z M 289 138 " clip-rule="nonzero"/></clipPath><clipPath id="a095efd825"><path d="M 292.339844 142.269531 L 248.308594 162.15625 L 238.363281 140.140625 L 282.398438 120.253906 Z M 292.339844 142.269531 " clip-rule="nonzero"/></clipPath><clipPath id="4c22195e4e"><path d="M 293.648438 141.679688 L 248.148438 162.226562 L 223.621094 107.917969 L 269.125 87.371094 Z M 293.648438 141.679688 " clip-rule="nonzero"/></clipPath><clipPath id="e208889398"><path d="M 254 139 L 259 139 L 259 143 L 254 143 Z M 254 139 " clip-rule="nonzero"/></clipPath><clipPath id="21294a93a2"><path d="M 292.339844 142.269531 L 248.308594 162.15625 L 238.363281 140.140625 L 282.398438 120.253906 Z M 292.339844 142.269531 " clip-rule="nonzero"/></clipPath><clipPath id="1380abd4a6"><path d="M 293.648438 141.679688 L 248.148438 162.226562 L 223.621094 107.917969 L 269.125 87.371094 Z M 293.648438 141.679688 " clip-rule="nonzero"/></clipPath><clipPath id="d999f871c5"><path d="M 2 199 L 6 199 L 6 203 L 2 203 Z M 2 199 " clip-rule="nonzero"/></clipPath><clipPath id="379b170fa6"><path d="M 60.972656 207.285156 L 19.195312 231.554688 L 1.394531 200.917969 L 43.175781 176.644531 Z M 60.972656 207.285156 " clip-rule="nonzero"/></clipPath><clipPath id="39c1e747ee"><path d="M 74.101562 226.523438 L 30.929688 251.601562 L 0.996094 200.074219 L 44.167969 174.996094 Z M 74.101562 226.523438 " clip-rule="nonzero"/></clipPath><clipPath id="52145c215c"><path d="M 26 205 L 31 205 L 31 210 L 26 210 Z M 26 205 " clip-rule="nonzero"/></clipPath><clipPath id="b17be01b27"><path d="M 60.972656 207.285156 L 19.195312 231.554688 L 1.394531 200.917969 L 43.175781 176.644531 Z M 60.972656 207.285156 " clip-rule="nonzero"/></clipPath><clipPath id="f9d32aec0b"><path d="M 74.101562 226.523438 L 30.929688 251.601562 L 0.996094 200.074219 L 44.167969 174.996094 Z M 74.101562 226.523438 " clip-rule="nonzero"/></clipPath><clipPath id="85ba5cd5eb"><path d="M 248 104 L 315 104 L 315 210 L 248 210 Z M 248 104 " clip-rule="nonzero"/></clipPath><clipPath id="b899a335d6"><path d="M 310.53125 104.113281 L 314.929688 213.546875 L 248.949219 216.199219 L 244.550781 106.765625 Z M 310.53125 104.113281 " clip-rule="nonzero"/></clipPath><clipPath id="179c71f8ce"><path d="M 566.964844 93.808594 L 571.363281 203.238281 L 249.507812 216.175781 L 245.109375 106.746094 Z M 566.964844 93.808594 " clip-rule="nonzero"/></clipPath><clipPath id="60b8037c4a"><path d="M 566.964844 93.808594 L 571.363281 203.238281 L 249.507812 216.175781 L 245.109375 106.746094 Z M 566.964844 93.808594 " clip-rule="nonzero"/></clipPath><clipPath id="b7ae4dfd21"><path d="M 358 122 L 363 122 L 363 127 L 358 127 Z M 358 122 " clip-rule="nonzero"/></clipPath><clipPath id="35c70e7244"><path d="M 362.933594 122.675781 L 361.832031 172.589844 L 302.257812 171.277344 L 303.359375 121.363281 Z M 362.933594 122.675781 " clip-rule="nonzero"/></clipPath><clipPath id="3568e19414"><path d="M 362.933594 122.675781 L 361.832031 172.589844 L 302.257812 171.277344 L 303.359375 121.363281 Z M 362.933594 122.675781 " clip-rule="nonzero"/></clipPath><clipPath id="2384006839"><path d="M 302 167 L 307 167 L 307 172 L 302 172 Z M 302 167 " clip-rule="nonzero"/></clipPath><clipPath id="447a54624b"><path d="M 362.933594 122.675781 L 361.832031 172.589844 L 302.257812 171.277344 L 303.359375 121.363281 Z M 362.933594 122.675781 " clip-rule="nonzero"/></clipPath><clipPath id="80f5f76f48"><path d="M 362.933594 122.675781 L 361.832031 172.589844 L 302.257812 171.277344 L 303.359375 121.363281 Z M 362.933594 122.675781 " clip-rule="nonzero"/></clipPath><clipPath id="545dc295a3"><path d="M 321 149 L 325 149 L 325 154 L 321 154 Z M 321 149 " clip-rule="nonzero"/></clipPath><clipPath id="81ad9165e2"><path d="M 362.933594 122.675781 L 361.832031 172.589844 L 302.257812 171.277344 L 303.359375 121.363281 Z M 362.933594 122.675781 " clip-rule="nonzero"/></clipPath><clipPath id="a468ed7a05"><path d="M 362.933594 122.675781 L 361.832031 172.589844 L 302.257812 171.277344 L 303.359375 121.363281 Z M 362.933594 122.675781 " clip-rule="nonzero"/></clipPath><clipPath id="7f632d77e9"><path d="M 344 154 L 349 154 L 349 158 L 344 158 Z M 344 154 " clip-rule="nonzero"/></clipPath><clipPath id="9bd3cc5261"><path d="M 362.933594 122.675781 L 361.832031 172.589844 L 302.257812 171.277344 L 303.359375 121.363281 Z M 362.933594 122.675781 " clip-rule="nonzero"/></clipPath><clipPath id="9bd48e9bef"><path d="M 362.933594 122.675781 L 361.832031 172.589844 L 302.257812 171.277344 L 303.359375 121.363281 Z M 362.933594 122.675781 " clip-rule="nonzero"/></clipPath><clipPath id="7428cf247c"><path d="M 259 199 L 263 199 L 263 203 L 259 203 Z M 259 199 " clip-rule="nonzero"/></clipPath><clipPath id="39122bcdb4"><path d="M 318.15625 207.285156 L 276.378906 231.554688 L 258.578125 200.917969 L 300.359375 176.644531 Z M 318.15625 207.285156 " clip-rule="nonzero"/></clipPath><clipPath id="353f3270e5"><path d="M 331.285156 226.523438 L 288.113281 251.601562 L 258.179688 200.074219 L 301.351562 174.996094 Z M 331.285156 226.523438 " clip-rule="nonzero"/></clipPath><clipPath id="253834229c"><path d="M 283 205 L 288 205 L 288 210 L 283 210 Z M 283 205 " clip-rule="nonzero"/></clipPath><clipPath id="ddedb13b46"><path d="M 318.15625 207.285156 L 276.378906 231.554688 L 258.578125 200.917969 L 300.359375 176.644531 Z M 318.15625 207.285156 " clip-rule="nonzero"/></clipPath><clipPath id="8b59dee071"><path d="M 331.285156 226.523438 L 288.113281 251.601562 L 258.179688 200.074219 L 301.351562 174.996094 Z M 331.285156 226.523438 " clip-rule="nonzero"/></clipPath></defs><g clip-path="url(#b5ce9257b2)"><g clip-path="url(#e295ca6347)"><g clip-path="url(#15fe35ebac)"><g clip-path="url(#4a9ebef4f7)"><path fill="#000000" d="M 120.636719 208.527344 C 121.796875 207.894531 122.535156 207.019531 122.824219 205.917969 C 123.203125 204.496094 122.9375 203.066406 122.027344 201.671875 C 119.335938 197.542969 111.078125 194.074219 99.9375 192.394531 C 92.335938 191.25 81.621094 190.558594 73.492188 190.164062 C 89.753906 187.421875 105.503906 182.992188 120.675781 178.09375 C 123.027344 178.929688 138.355469 184.335938 149.59375 186.597656 C 167.246094 190.152344 176.859375 189.636719 178.171875 185.066406 C 178.601562 183.574219 178.3125 182.082031 177.335938 180.746094 C 174.570312 176.957031 166.339844 174.457031 155.859375 174.210938 C 148.007812 174.027344 136.847656 174.710938 129.195312 175.28125 C 134.574219 173.472656 139.882812 171.632812 145.109375 169.820312 C 148.984375 168.476562 152.789062 167.160156 156.558594 165.878906 C 167.476562 165.035156 177.386719 165.316406 186.238281 166.28125 C 187.660156 168.179688 194.199219 176.84375 199.675781 182.753906 C 204.679688 188.152344 212.910156 194.070312 217.488281 194.214844 C 218.617188 194.25 219.523438 193.953125 220.175781 193.332031 C 221.128906 192.425781 221.558594 191.144531 221.421875 189.640625 C 220.992188 184.964844 215.425781 178.96875 210.40625 175.703125 C 206.335938 173.054688 199.316406 169.71875 194.042969 167.339844 C 220.878906 171.738281 236.078125 182.054688 237.339844 182.9375 C 238.128906 183.890625 243.980469 190.839844 250.757812 195.726562 C 255.015625 198.796875 263.457031 203.75 268.097656 202.867188 C 269.242188 202.644531 270.105469 202.09375 270.664062 201.222656 C 271.308594 200.214844 271.449219 198.992188 271.070312 197.691406 C 269.832031 193.46875 263.492188 188.910156 258.125 186.464844 C 250.542969 183.011719 240.171875 181.441406 238.414062 181.195312 C 237.125 180.285156 229.949219 175.46875 217.191406 171.015625 C 215.972656 170.589844 214.65625 170.160156 213.289062 169.734375 C 219.167969 170.234375 225.785156 170.742188 229.703125 170.871094 C 236.863281 171.101562 245.777344 171.386719 248.816406 168.191406 C 249.640625 167.320312 249.996094 166.242188 249.917969 165.042969 C 249.800781 163.523438 249.050781 162.210938 247.6875 161.144531 C 244.101562 158.332031 236.085938 157.492188 227.273438 159 C 217.300781 160.710938 203.054688 165.855469 201.105469 166.570312 C 190.96875 164.421875 178.484375 162.957031 163.960938 163.433594 C 209.160156 149.394531 259.5 151.910156 262.714844 152.089844 C 264.160156 152.714844 274.929688 157.320312 284.472656 160.050781 C 291.714844 162.125 304.960938 163.210938 309.96875 159.757812 C 311.214844 158.894531 311.910156 157.800781 312.027344 156.5 C 312.222656 154.242188 311.367188 152.058594 309.527344 150.1875 C 305.441406 146.027344 297.3125 144.097656 287.222656 144.886719 C 275.265625 145.820312 264.363281 149.503906 262.8125 150.046875 C 260.578125 149.921875 241.035156 148.972656 215.871094 151.410156 C 222.449219 148.609375 232.589844 144.214844 238.289062 141.359375 C 245.21875 137.886719 250.246094 132.894531 251.738281 128.007812 C 252.417969 125.777344 252.292969 123.726562 251.371094 122.082031 C 250.710938 120.902344 249.542969 120.152344 247.992188 119.914062 C 243.253906 119.183594 234.761719 123.273438 228.242188 129.421875 C 220.976562 136.277344 210.269531 150.042969 208.613281 152.191406 C 192.914062 154.0625 175.582031 157.304688 159.144531 162.832031 C 154.335938 164.453125 149.433594 166.152344 144.441406 167.882812 C 123.308594 175.214844 100.863281 183 77.34375 187.394531 C 96.097656 180.046875 115.347656 165.9375 124.753906 155.796875 C 126.949219 155.621094 139.773438 154.585938 149.144531 153.871094 C 156.539062 153.308594 168.785156 150.765625 172.203125 146.074219 C 173.03125 144.9375 173.308594 143.738281 173.023438 142.511719 C 172.699219 141.128906 171.773438 139.960938 170.335938 139.132812 C 167.652344 137.582031 161.96875 136.5 150.144531 140.148438 C 142.441406 142.523438 135.660156 146.132812 130.878906 149.074219 C 139.304688 140.046875 146.5 133.632812 147.324219 133.023438 C 147.328125 133.023438 147.328125 133.023438 147.328125 133.023438 C 148.28125 132.566406 165.058594 124.519531 172.105469 119.964844 C 177.585938 116.425781 184.324219 110.578125 185.269531 105.75 C 185.5625 104.269531 185.316406 102.949219 184.539062 101.832031 C 183.671875 100.582031 182.292969 99.847656 180.554688 99.710938 C 174.996094 99.273438 165.960938 104.976562 160.4375 110.746094 C 153.472656 118.019531 146.429688 130.765625 145.984375 131.578125 C 142.890625 133.871094 132.378906 144.085938 124.351562 153.234375 C 121.035156 157.007812 116.144531 161.457031 110.339844 165.9375 C 114.332031 161.453125 119.070312 155.929688 121.40625 152.449219 C 126.21875 145.453125 129.042969 136.449219 127.980469 131.539062 C 127.65625 130.046875 126.984375 128.984375 125.984375 128.382812 C 124.941406 127.757812 123.738281 127.664062 122.496094 128.121094 C 117.460938 129.960938 112.128906 140.757812 109.773438 147.566406 C 106.835938 156.050781 102.75 169.652344 102.085938 171.882812 C 89.585938 180.28125 74.667969 187.738281 61.675781 189.726562 C 61.648438 189.730469 61.628906 189.746094 61.601562 189.753906 C 61.566406 189.761719 61.53125 189.761719 61.5 189.773438 C 58.96875 190.058594 56.429688 190.292969 53.878906 190.476562 C 58.769531 188.277344 66.128906 184.824219 71.402344 181.699219 C 77.847656 177.878906 83.03125 171.625 83.734375 166.832031 C 83.988281 165.074219 83.613281 163.578125 82.636719 162.515625 C 81.710938 161.511719 80.484375 161.019531 78.988281 161.050781 C 73.273438 161.167969 65.179688 169.011719 61.695312 173.140625 C 56.949219 178.769531 49.238281 188.894531 47.769531 190.828125 C 29.808594 191.527344 11.316406 189.523438 -7.613281 183.265625 C -8.148438 183.089844 -8.722656 183.382812 -8.898438 183.921875 C -8.9375 184.042969 -8.953125 184.160156 -8.949219 184.28125 C -8.929688 184.695312 -8.664062 185.078125 -8.246094 185.214844 C 15.875 193.1875 39.246094 194.347656 61.707031 191.824219 C 64.261719 193.109375 81.609375 201.78125 93.09375 205.582031 C 103.296875 208.953125 115.769531 211.171875 120.636719 208.527344 Z M 155.816406 176.257812 C 165.375 176.480469 173.363281 178.773438 175.691406 181.957031 C 176.09375 182.503906 176.304688 183.054688 176.324219 183.617188 C 176.335938 183.90625 176.300781 184.199219 176.214844 184.496094 C 175.511719 186.953125 168.25 188.265625 149.992188 184.589844 C 141.820312 182.941406 131.410156 179.601562 125.558594 177.621094 C 132.78125 177.03125 146.617188 176.042969 155.816406 176.257812 Z M 209.300781 177.421875 C 214.550781 180.839844 219.078125 186.40625 219.390625 189.828125 C 219.398438 189.898438 219.402344 189.972656 219.40625 190.042969 C 219.4375 190.820312 219.230469 191.410156 218.773438 191.84375 C 218.53125 192.078125 218.117188 192.1875 217.554688 192.167969 C 213.996094 192.054688 206.492188 187.105469 201.167969 181.355469 C 197.183594 177.058594 192.609375 171.257812 189.914062 167.75 C 195.050781 170 204.472656 174.28125 209.300781 177.421875 Z M 257.285156 188.328125 C 263.152344 191.007812 268.238281 195.277344 269.113281 198.265625 C 269.191406 198.527344 269.234375 198.769531 269.242188 198.996094 C 269.257812 199.414062 269.160156 199.78125 268.953125 200.113281 C 268.703125 200.5 268.296875 200.742188 267.714844 200.855469 C 264.457031 201.476562 257.160156 197.820312 251.945312 194.0625 C 247.296875 190.710938 242.988281 186.226562 240.652344 183.628906 C 244.539062 184.316406 251.785156 185.824219 257.285156 188.328125 Z M 246.4375 162.761719 C 247.339844 163.464844 247.8125 164.265625 247.886719 165.203125 C 247.886719 165.238281 247.890625 165.269531 247.890625 165.304688 C 247.914062 165.886719 247.738281 166.359375 247.34375 166.773438 C 244.929688 169.3125 235.804688 169.019531 229.765625 168.824219 C 224.035156 168.636719 212.429688 167.625 205.957031 167.03125 C 211.324219 165.191406 220.574219 162.230469 227.617188 161.019531 C 235.761719 159.625 243.324219 160.324219 246.4375 162.761719 Z M 229.636719 130.917969 C 235.644531 125.25 243.570312 121.304688 247.683594 121.941406 C 248.621094 122.085938 249.246094 122.460938 249.597656 123.085938 C 249.921875 123.664062 250.097656 124.328125 250.125 125.066406 C 250.15625 125.785156 250.042969 126.570312 249.789062 127.40625 C 248.761719 130.773438 244.960938 135.726562 237.375 139.527344 C 230.882812 142.78125 218.519531 148.074219 212.40625 150.65625 C 216.28125 145.757812 224.027344 136.207031 229.636719 130.917969 Z M 308.078125 151.625 C 309.292969 152.863281 309.957031 154.25 310.011719 155.664062 C 310.019531 155.882812 310.015625 156.097656 309.996094 156.316406 C 309.933594 156.988281 309.550781 157.5625 308.8125 158.066406 C 304.878906 160.785156 292.800781 160.304688 285.03125 158.082031 C 277.792969 156.007812 269.820312 152.839844 265.867188 151.199219 C 269.945312 149.9375 278.363281 147.632812 287.378906 146.929688 C 296.730469 146.195312 304.46875 147.953125 308.078125 151.625 Z M 111.695312 148.242188 C 114.421875 140.367188 119.46875 131.40625 123.191406 130.042969 C 123.867188 129.796875 124.421875 129.832031 124.9375 130.140625 C 125.4375 130.441406 125.789062 131.058594 125.984375 131.976562 C 126.078125 132.402344 126.132812 132.871094 126.152344 133.378906 C 126.339844 137.960938 123.667969 145.558594 119.71875 151.292969 C 116.71875 155.769531 109.375 164 105.214844 168.5625 C 106.804688 163.339844 109.558594 154.414062 111.695312 148.242188 Z M 169.320312 140.910156 C 170.253906 141.449219 170.847656 142.164062 171.039062 142.980469 C 171.066406 143.101562 171.082031 143.226562 171.089844 143.351562 C 171.109375 143.851562 170.933594 144.351562 170.558594 144.867188 C 167.988281 148.390625 157.574219 151.175781 148.988281 151.828125 C 141.886719 152.371094 132.785156 153.09375 127.832031 153.496094 C 132.078125 150.554688 140.609375 145.234375 150.742188 142.105469 C 162.453125 138.492188 167.410156 139.804688 169.320312 140.910156 Z M 161.90625 112.167969 C 167.734375 106.082031 176.03125 101.410156 180.398438 101.753906 C 181.539062 101.84375 182.347656 102.253906 182.871094 103.003906 C 183.167969 103.433594 183.324219 103.914062 183.347656 104.453125 C 183.359375 104.738281 183.332031 105.035156 183.269531 105.355469 C 182.5 109.28125 176.554688 114.660156 171.003906 118.246094 C 165.773438 121.621094 154.703125 127.144531 149.382812 129.75 C 151.921875 125.449219 157.011719 117.277344 161.90625 112.167969 Z M 63.25 174.464844 C 67.84375 169.019531 74.933594 163.183594 79.03125 163.097656 C 79.933594 163.078125 80.621094 163.34375 81.140625 163.90625 C 81.53125 164.332031 81.742188 164.902344 81.769531 165.613281 C 81.78125 165.898438 81.761719 166.207031 81.714844 166.535156 C 81.199219 170.074219 77.046875 175.976562 70.367188 179.9375 C 64.585938 183.363281 56.226562 187.207031 51.507812 189.296875 C 54.515625 185.371094 59.71875 178.648438 63.25 174.464844 Z M 66.5 191.914062 C 74.199219 192.195312 89.652344 192.917969 99.636719 194.421875 C 109.894531 195.96875 118.015625 199.253906 120.324219 202.792969 C 120.71875 203.402344 120.925781 203.984375 120.949219 204.5625 C 120.960938 204.839844 120.929688 205.113281 120.855469 205.390625 C 120.714844 205.929688 120.324219 206.367188 119.667969 206.722656 C 115.972656 208.730469 105.308594 207.460938 93.730469 203.636719 C 85.019531 200.753906 72.839844 195.007812 66.5 191.914062 Z M 66.5 191.914062 " fill-opacity="1" fill-rule="nonzero"/></g></g></g></g><g clip-path="url(#96a489c7f8)"><g clip-path="url(#529ca64b70)"><g clip-path="url(#d20bed7f24)"><path fill="#000000" d="M 160.753906 210.242188 C 159.671875 209.8125 158.457031 210.585938 158.230469 211.53125 C 158.042969 212.316406 158.589844 212.992188 158.679688 213.101562 C 158.792969 213.234375 159.390625 213.910156 160.304688 213.820312 C 161.015625 213.746094 161.605469 213.246094 161.828125 212.625 C 162.152344 211.71875 161.683594 210.609375 160.753906 210.242188 Z M 160.753906 210.242188 " fill-opacity="1" fill-rule="nonzero"/></g></g></g><g clip-path="url(#ae591a7eb1)"><g clip-path="url(#2253cc3cd5)"><g clip-path="url(#802654b70f)"><path fill="#000000" d="M 228.988281 191.308594 C 227.851562 191.554688 227.269531 192.871094 227.605469 193.78125 C 227.886719 194.539062 228.71875 194.800781 228.851562 194.839844 C 229.019531 194.886719 229.890625 195.117188 230.601562 194.535156 C 231.15625 194.078125 231.367188 193.335938 231.207031 192.695312 C 230.972656 191.761719 229.96875 191.097656 228.992188 191.308594 Z M 228.988281 191.308594 " fill-opacity="1" fill-rule="nonzero"/></g></g></g><g clip-path="url(#2b4645095a)"><g clip-path="url(#804e7747d8)"><g clip-path="url(#95a33c0ff6)"><path fill="#000000" d="M 205.191406 200.300781 C 204.054688 200.546875 203.472656 201.859375 203.808594 202.773438 C 204.089844 203.53125 204.921875 203.792969 205.054688 203.832031 C 205.222656 203.878906 206.09375 204.109375 206.804688 203.527344 C 207.359375 203.070312 207.570312 202.328125 207.410156 201.683594 C 207.175781 200.753906 206.171875 200.089844 205.191406 200.300781 Z M 205.191406 200.300781 " fill-opacity="1" fill-rule="nonzero"/></g></g></g><g clip-path="url(#3a6199e8eb)"><g clip-path="url(#ab742ffa69)"><g clip-path="url(#41e260baf2)"><path fill="#000000" d="M 186.496094 187.421875 C 185.414062 186.992188 184.199219 187.765625 183.972656 188.710938 C 183.785156 189.496094 184.332031 190.171875 184.421875 190.28125 C 184.535156 190.414062 185.132812 191.089844 186.046875 191 C 186.757812 190.925781 187.347656 190.425781 187.570312 189.804688 C 187.894531 188.898438 187.425781 187.789062 186.496094 187.421875 Z M 186.496094 187.421875 " fill-opacity="1" fill-rule="nonzero"/></g></g></g><g clip-path="url(#9d796f5f79)"><g clip-path="url(#7da689a9bd)"><g clip-path="url(#9f35ef1ea6)"><path fill="#000000" d="M 103.71875 126.554688 C 104.878906 126.519531 105.691406 125.332031 105.527344 124.371094 C 105.390625 123.574219 104.621094 123.171875 104.496094 123.109375 C 104.339844 123.027344 103.523438 122.644531 102.71875 123.089844 C 102.09375 123.433594 101.75 124.128906 101.789062 124.789062 C 101.847656 125.746094 102.71875 126.582031 103.71875 126.554688 Z M 103.71875 126.554688 " fill-opacity="1" fill-rule="nonzero"/></g></g></g><g clip-path="url(#65e50ffae5)"><g clip-path="url(#c7d2df21cb)"><g clip-path="url(#3aa3a1e7aa)"><path fill="#000000" d="M 48.480469 170.863281 C 49.429688 170.191406 49.445312 168.75 48.777344 168.046875 C 48.21875 167.457031 47.351562 167.546875 47.214844 167.566406 C 47.039062 167.585938 46.148438 167.71875 45.726562 168.535156 C 45.398438 169.171875 45.496094 169.9375 45.898438 170.464844 C 46.476562 171.230469 47.664062 171.441406 48.480469 170.863281 Z M 48.480469 170.863281 " fill-opacity="1" fill-rule="nonzero"/></g></g></g><g clip-path="url(#9f9294e8cd)"><g clip-path="url(#94a9bd4417)"><g clip-path="url(#b875e27212)"><path fill="#000000" d="M 66.800781 153.214844 C 67.75 152.542969 67.765625 151.101562 67.097656 150.398438 C 66.542969 149.808594 65.675781 149.898438 65.535156 149.917969 C 65.359375 149.9375 64.46875 150.070312 64.046875 150.886719 C 63.71875 151.523438 63.816406 152.289062 64.21875 152.816406 C 64.800781 153.582031 65.984375 153.792969 66.800781 153.214844 Z M 66.800781 153.214844 " fill-opacity="1" fill-rule="nonzero"/></g></g></g><g clip-path="url(#3e73707230)"><g clip-path="url(#7c1a269e6f)"><g clip-path="url(#c9774458ba)"><path fill="#000000" d="M 89.0625 157.675781 C 90.222656 157.644531 91.035156 156.457031 90.871094 155.496094 C 90.734375 154.699219 89.964844 154.292969 89.839844 154.230469 C 89.683594 154.152344 88.867188 153.765625 88.0625 154.210938 C 87.4375 154.558594 87.09375 155.25 87.132812 155.910156 C 87.195312 156.871094 88.0625 157.707031 89.0625 157.675781 Z M 89.0625 157.675781 " fill-opacity="1" fill-rule="nonzero"/></g></g></g><g clip-path="url(#71396d0b88)"><g clip-path="url(#cc73d86a3b)"><g clip-path="url(#8ae3edc8af)"><path fill="#000000" d="M 181.636719 147.382812 C 182.777344 147.164062 183.390625 145.859375 183.074219 144.941406 C 182.8125 144.175781 181.988281 143.898438 181.851562 143.855469 C 181.683594 143.800781 180.820312 143.554688 180.097656 144.121094 C 179.535156 144.5625 179.304688 145.300781 179.449219 145.945312 C 179.664062 146.882812 180.652344 147.570312 181.636719 147.382812 Z M 181.636719 147.382812 " fill-opacity="1" fill-rule="nonzero"/></g></g></g><g clip-path="url(#11b8f146ef)"><g clip-path="url(#488a98567b)"><g clip-path="url(#e70b1c7bb4)"><path fill="#000000" d="M 205.628906 138.925781 C 206.769531 138.707031 207.382812 137.40625 207.066406 136.484375 C 206.804688 135.71875 205.980469 135.441406 205.847656 135.402344 C 205.679688 135.347656 204.8125 135.097656 204.089844 135.667969 C 203.527344 136.109375 203.296875 136.847656 203.445312 137.492188 C 203.65625 138.429688 204.644531 139.117188 205.628906 138.925781 Z M 205.628906 138.925781 " fill-opacity="1" fill-rule="nonzero"/></g></g></g><g clip-path="url(#2f06d49f10)"><g clip-path="url(#a095efd825)"><g clip-path="url(#4c22195e4e)"><path fill="#000000" d="M 289.273438 141.515625 C 289.808594 142.550781 291.230469 142.769531 292.023438 142.210938 C 292.683594 141.742188 292.714844 140.871094 292.71875 140.734375 C 292.722656 140.554688 292.71875 139.65625 291.96875 139.121094 C 291.386719 138.707031 290.613281 138.695312 290.035156 139.015625 C 289.195312 139.484375 288.816406 140.628906 289.273438 141.519531 Z M 289.273438 141.515625 " fill-opacity="1" fill-rule="nonzero"/></g></g></g><g clip-path="url(#e208889398)"><g clip-path="url(#21294a93a2)"><g clip-path="url(#1380abd4a6)"><path fill="#000000" d="M 254.875 141.730469 C 255.40625 142.765625 256.828125 142.984375 257.621094 142.421875 C 258.28125 141.957031 258.316406 141.085938 258.316406 140.945312 C 258.320312 140.769531 258.316406 139.867188 257.566406 139.332031 C 256.988281 138.917969 256.210938 138.90625 255.632812 139.230469 C 254.796875 139.695312 254.417969 140.839844 254.875 141.730469 Z M 254.875 141.730469 " fill-opacity="1" fill-rule="nonzero"/></g></g></g><g clip-path="url(#d999f871c5)"><g clip-path="url(#379b170fa6)"><g clip-path="url(#39c1e747ee)"><path fill="#000000" d="M 3.125 202.765625 C 4.195312 203.226562 5.429688 202.488281 5.683594 201.550781 C 5.894531 200.769531 5.367188 200.078125 5.28125 199.96875 C 5.171875 199.828125 4.59375 199.136719 3.675781 199.203125 C 2.964844 199.253906 2.359375 199.738281 2.117188 200.355469 C 1.769531 201.25 2.207031 202.371094 3.125 202.765625 Z M 3.125 202.765625 " fill-opacity="1" fill-rule="nonzero"/></g></g></g><g clip-path="url(#52145c215c)"><g clip-path="url(#b17be01b27)"><g clip-path="url(#f9d32aec0b)"><path fill="#000000" d="M 27.738281 209.203125 C 28.804688 209.660156 30.042969 208.925781 30.296875 207.984375 C 30.507812 207.207031 29.980469 206.511719 29.890625 206.402344 C 29.78125 206.265625 29.207031 205.574219 28.289062 205.640625 C 27.574219 205.691406 26.972656 206.175781 26.730469 206.789062 C 26.382812 207.683594 26.816406 208.808594 27.738281 209.203125 Z M 27.738281 209.203125 " fill-opacity="1" fill-rule="nonzero"/></g></g></g><g clip-path="url(#85ba5cd5eb)"><g clip-path="url(#b899a335d6)"><g clip-path="url(#179c71f8ce)"><g clip-path="url(#60b8037c4a)"><path fill="#000000" d="M 377.8125 208.515625 C 378.96875 207.886719 379.707031 207.011719 380 205.910156 C 380.375 204.488281 380.113281 203.054688 379.203125 201.660156 C 376.507812 197.53125 368.25 194.066406 357.113281 192.386719 C 349.507812 191.242188 338.796875 190.546875 330.664062 190.152344 C 346.925781 187.414062 362.675781 182.984375 377.851562 178.082031 C 380.199219 178.921875 395.527344 184.324219 406.765625 186.589844 C 424.417969 190.144531 434.035156 189.628906 435.347656 185.054688 C 435.777344 183.5625 435.484375 182.070312 434.507812 180.734375 C 431.742188 176.949219 423.515625 174.449219 413.035156 174.203125 C 405.183594 174.019531 394.019531 174.699219 386.367188 175.273438 C 391.75 173.460938 397.058594 171.625 402.28125 169.8125 C 406.15625 168.464844 409.964844 167.152344 413.730469 165.871094 C 424.648438 165.023438 434.558594 165.308594 443.410156 166.273438 C 444.832031 168.171875 451.371094 176.832031 456.851562 182.746094 C 461.851562 188.144531 470.085938 194.058594 474.664062 194.207031 C 475.792969 194.242188 476.695312 193.945312 477.351562 193.324219 C 478.300781 192.417969 478.730469 191.136719 478.597656 189.632812 C 478.167969 184.957031 472.601562 178.960938 467.578125 175.695312 C 463.507812 173.042969 456.488281 169.707031 451.214844 167.332031 C 478.054688 171.730469 493.253906 182.042969 494.511719 182.929688 C 495.300781 183.882812 501.152344 190.832031 507.933594 195.71875 C 512.191406 198.785156 520.632812 203.742188 525.269531 202.859375 C 526.414062 202.636719 527.277344 202.085938 527.839844 201.214844 C 528.484375 200.203125 528.625 198.980469 528.242188 197.679688 C 527.007812 193.460938 520.667969 188.902344 515.300781 186.457031 C 507.714844 183.003906 497.34375 181.433594 495.589844 181.183594 C 494.296875 180.277344 487.121094 175.457031 474.363281 171.003906 C 473.144531 170.578125 471.828125 170.152344 470.464844 169.726562 C 476.34375 170.226562 482.960938 170.734375 486.875 170.863281 C 494.039062 171.09375 502.949219 171.378906 505.988281 168.179688 C 506.816406 167.3125 507.171875 166.230469 507.09375 165.035156 C 506.972656 163.511719 506.222656 162.203125 504.863281 161.136719 C 501.273438 158.324219 493.257812 157.480469 484.445312 158.992188 C 474.472656 160.703125 460.230469 165.847656 458.28125 166.558594 C 448.140625 164.414062 435.65625 162.949219 421.136719 163.425781 C 466.332031 149.386719 516.675781 151.902344 519.890625 152.082031 C 521.332031 152.707031 532.101562 157.3125 541.644531 160.042969 C 548.890625 162.113281 562.136719 163.203125 567.144531 159.746094 C 568.390625 158.886719 569.082031 157.792969 569.199219 156.492188 C 569.398438 154.230469 568.539062 152.046875 566.703125 150.175781 C 562.613281 146.019531 554.484375 144.089844 544.394531 144.875 C 532.441406 145.8125 521.539062 149.492188 519.984375 150.035156 C 517.753906 149.914062 498.210938 148.964844 473.042969 151.402344 C 479.621094 148.601562 489.761719 144.203125 495.460938 141.347656 C 502.390625 137.875 507.417969 132.882812 508.910156 127.996094 C 509.589844 125.769531 509.464844 123.71875 508.546875 122.074219 C 507.886719 120.894531 506.71875 120.144531 505.167969 119.90625 C 500.425781 119.175781 491.9375 123.261719 485.414062 129.414062 C 478.152344 136.265625 467.445312 150.035156 465.789062 152.179688 C 450.089844 154.054688 432.753906 157.296875 416.316406 162.824219 C 411.507812 164.441406 406.605469 166.144531 401.613281 167.875 C 380.480469 175.207031 358.035156 182.988281 334.519531 187.382812 C 353.269531 180.035156 372.519531 165.929688 381.929688 155.789062 C 384.125 155.609375 396.945312 154.578125 406.316406 153.863281 C 413.714844 153.296875 425.957031 150.757812 429.375 146.066406 C 430.207031 144.925781 430.484375 143.730469 430.195312 142.5 C 429.875 141.121094 428.945312 139.953125 427.511719 139.125 C 424.824219 137.574219 419.140625 136.492188 407.316406 140.140625 C 399.617188 142.515625 392.832031 146.125 388.050781 149.066406 C 396.476562 140.039062 403.671875 133.621094 404.5 133.015625 C 405.453125 132.558594 422.230469 124.507812 429.277344 119.957031 C 434.761719 116.417969 441.496094 110.570312 442.445312 105.742188 C 442.734375 104.257812 442.492188 102.941406 441.714844 101.820312 C 440.84375 100.570312 439.464844 99.839844 437.730469 99.703125 C 432.171875 99.265625 423.136719 104.96875 417.613281 110.738281 C 410.644531 118.007812 403.605469 130.757812 403.15625 131.570312 C 400.0625 133.859375 389.554688 144.078125 381.523438 153.222656 C 378.207031 157 373.316406 161.449219 367.511719 165.925781 C 371.507812 161.445312 376.246094 155.921875 378.578125 152.441406 C 383.394531 145.441406 386.21875 136.4375 385.152344 131.53125 C 384.828125 130.035156 384.15625 128.976562 383.15625 128.371094 C 382.117188 127.75 380.910156 127.65625 379.671875 128.109375 C 374.636719 129.949219 369.300781 140.75 366.945312 147.558594 C 364.007812 156.042969 359.925781 169.644531 359.257812 171.875 C 346.761719 180.269531 331.84375 187.730469 318.851562 189.71875 C 318.824219 189.722656 318.800781 189.738281 318.773438 189.746094 C 318.742188 189.753906 318.703125 189.753906 318.671875 189.765625 C 316.144531 190.050781 313.605469 190.285156 311.054688 190.46875 C 315.945312 188.269531 323.300781 184.816406 328.578125 181.691406 C 335.023438 177.871094 340.207031 171.617188 340.90625 166.824219 C 341.160156 165.066406 340.785156 163.570312 339.8125 162.507812 C 338.886719 161.503906 337.660156 161.007812 336.160156 161.042969 C 330.449219 161.160156 322.351562 169.003906 318.867188 173.128906 C 314.121094 178.757812 306.414062 188.886719 304.945312 190.820312 C 286.980469 191.519531 268.488281 189.515625 249.5625 183.257812 C 249.027344 183.082031 248.449219 183.375 248.277344 183.914062 C 248.238281 184.03125 248.222656 184.152344 248.226562 184.273438 C 248.242188 184.6875 248.511719 185.066406 248.925781 185.207031 C 273.046875 193.179688 296.421875 194.339844 318.882812 191.816406 C 321.433594 193.101562 338.78125 201.773438 350.269531 205.574219 C 360.472656 208.945312 372.945312 211.160156 377.8125 208.515625 Z M 412.988281 176.25 C 422.550781 176.472656 430.539062 178.765625 432.863281 181.949219 C 433.265625 182.496094 433.476562 183.046875 433.5 183.609375 C 433.511719 183.898438 433.472656 184.1875 433.386719 184.488281 C 432.683594 186.941406 425.425781 188.257812 407.167969 184.578125 C 398.992188 182.933594 388.582031 179.589844 382.730469 177.609375 C 389.953125 177.023438 403.789062 176.035156 412.988281 176.25 Z M 466.472656 177.410156 C 471.726562 180.832031 476.253906 186.398438 476.566406 189.816406 C 476.574219 189.890625 476.578125 189.964844 476.582031 190.03125 C 476.613281 190.808594 476.40625 191.402344 475.949219 191.835938 C 475.703125 192.066406 475.292969 192.175781 474.726562 192.160156 C 471.167969 192.046875 463.667969 187.09375 458.339844 181.347656 C 454.359375 177.050781 449.785156 171.25 447.089844 167.738281 C 452.222656 169.992188 461.648438 174.273438 466.472656 177.410156 Z M 514.460938 188.320312 C 520.328125 190.996094 525.410156 195.269531 526.289062 198.257812 C 526.363281 198.519531 526.40625 198.761719 526.414062 198.988281 C 526.433594 199.40625 526.335938 199.773438 526.125 200.101562 C 525.875 200.488281 525.472656 200.734375 524.890625 200.84375 C 521.628906 201.464844 514.332031 197.808594 509.121094 194.054688 C 504.46875 190.703125 500.164062 186.21875 497.824219 183.621094 C 501.710938 184.308594 508.957031 185.816406 514.460938 188.320312 Z M 503.609375 162.75 C 504.511719 163.457031 504.988281 164.257812 505.058594 165.195312 C 505.0625 165.226562 505.0625 165.261719 505.066406 165.296875 C 505.089844 165.878906 504.910156 166.347656 504.515625 166.765625 C 502.101562 169.304688 492.980469 169.011719 486.941406 168.8125 C 481.210938 168.628906 469.605469 167.617188 463.128906 167.019531 C 468.496094 165.183594 477.75 162.21875 484.789062 161.011719 C 492.9375 159.617188 500.5 160.3125 503.609375 162.75 Z M 486.808594 130.90625 C 492.816406 125.238281 500.746094 121.296875 504.859375 121.929688 C 505.792969 122.074219 506.417969 122.449219 506.769531 123.078125 C 507.09375 123.65625 507.269531 124.320312 507.300781 125.054688 C 507.328125 125.777344 507.21875 126.5625 506.960938 127.394531 C 505.933594 130.765625 502.132812 135.714844 494.550781 139.515625 C 488.054688 142.773438 475.695312 148.066406 469.578125 150.648438 C 473.453125 145.746094 481.203125 136.199219 486.808594 130.90625 Z M 565.25 151.617188 C 566.46875 152.855469 567.128906 154.238281 567.1875 155.65625 C 567.195312 155.871094 567.1875 156.089844 567.167969 156.304688 C 567.109375 156.980469 566.722656 157.550781 565.988281 158.058594 C 562.054688 160.773438 549.972656 160.296875 542.203125 158.074219 C 534.964844 156 526.996094 152.828125 523.042969 151.191406 C 527.121094 149.929688 535.535156 147.625 544.550781 146.917969 C 553.902344 146.1875 561.640625 147.945312 565.25 151.617188 Z M 368.867188 148.234375 C 371.59375 140.355469 376.640625 131.398438 380.367188 130.035156 C 381.039062 129.789062 381.59375 129.820312 382.113281 130.132812 C 382.609375 130.429688 382.960938 131.046875 383.160156 131.964844 C 383.253906 132.394531 383.308594 132.863281 383.328125 133.371094 C 383.511719 137.953125 380.84375 145.546875 376.894531 151.285156 C 373.894531 155.761719 366.550781 163.992188 362.390625 168.554688 C 363.976562 163.332031 366.734375 154.40625 368.867188 148.234375 Z M 426.496094 140.902344 C 427.429688 141.441406 428.023438 142.15625 428.210938 142.96875 C 428.242188 143.09375 428.257812 143.21875 428.261719 143.339844 C 428.28125 143.839844 428.109375 144.339844 427.730469 144.855469 C 425.164062 148.382812 414.746094 151.164062 406.164062 151.820312 C 399.0625 152.359375 389.957031 153.085938 385.007812 153.484375 C 389.25 150.542969 397.78125 145.226562 407.917969 142.097656 C 419.625 138.484375 424.582031 139.796875 426.496094 140.902344 Z M 419.078125 112.160156 C 424.910156 106.074219 433.207031 101.398438 437.570312 101.746094 C 438.710938 101.835938 439.519531 102.242188 440.042969 102.996094 C 440.339844 103.421875 440.5 103.902344 440.523438 104.445312 C 440.53125 104.730469 440.507812 105.027344 440.445312 105.347656 C 439.675781 109.273438 433.726562 114.652344 428.175781 118.238281 C 422.949219 121.613281 411.878906 127.136719 406.558594 129.742188 C 409.097656 125.4375 414.183594 117.269531 419.078125 112.160156 Z M 320.421875 174.457031 C 325.015625 169.011719 332.105469 163.175781 336.203125 163.085938 C 337.105469 163.070312 337.796875 163.335938 338.3125 163.898438 C 338.703125 164.324219 338.917969 164.894531 338.945312 165.605469 C 338.957031 165.890625 338.9375 166.195312 338.890625 166.527344 C 338.375 170.066406 334.21875 175.96875 327.542969 179.925781 C 321.761719 183.355469 313.398438 187.195312 308.683594 189.285156 C 311.691406 185.363281 316.894531 178.640625 320.421875 174.457031 Z M 323.671875 191.90625 C 331.375 192.1875 346.828125 192.910156 356.8125 194.414062 C 367.066406 195.957031 375.1875 199.246094 377.496094 202.785156 C 377.894531 203.390625 378.101562 203.976562 378.125 204.554688 C 378.136719 204.828125 378.105469 205.105469 378.03125 205.378906 C 377.886719 205.921875 377.5 206.359375 376.839844 206.714844 C 373.148438 208.722656 362.484375 207.453125 350.902344 203.625 C 342.195312 200.746094 330.011719 195 323.671875 191.90625 Z M 323.671875 191.90625 " fill-opacity="1" fill-rule="nonzero"/></g></g></g></g><g clip-path="url(#b7ae4dfd21)"><g clip-path="url(#35c70e7244)"><g clip-path="url(#3568e19414)"><path fill="#000000" d="M 360.898438 126.554688 C 362.0625 126.519531 362.875 125.332031 362.710938 124.371094 C 362.574219 123.574219 361.804688 123.171875 361.679688 123.109375 C 361.523438 123.027344 360.707031 122.644531 359.902344 123.089844 C 359.277344 123.433594 358.933594 124.128906 358.972656 124.789062 C 359.03125 125.746094 359.902344 126.582031 360.902344 126.554688 Z M 360.898438 126.554688 " fill-opacity="1" fill-rule="nonzero"/></g></g></g><g clip-path="url(#2384006839)"><g clip-path="url(#447a54624b)"><g clip-path="url(#80f5f76f48)"><path fill="#000000" d="M 305.664062 170.863281 C 306.613281 170.191406 306.628906 168.75 305.957031 168.046875 C 305.402344 167.457031 304.535156 167.546875 304.398438 167.566406 C 304.222656 167.585938 303.332031 167.71875 302.910156 168.535156 C 302.582031 169.171875 302.679688 169.9375 303.078125 170.464844 C 303.660156 171.230469 304.847656 171.441406 305.664062 170.863281 Z M 305.664062 170.863281 " fill-opacity="1" fill-rule="nonzero"/></g></g></g><g clip-path="url(#545dc295a3)"><g clip-path="url(#81ad9165e2)"><g clip-path="url(#a468ed7a05)"><path fill="#000000" d="M 323.984375 153.214844 C 324.933594 152.542969 324.949219 151.101562 324.28125 150.398438 C 323.722656 149.808594 322.859375 149.898438 322.71875 149.917969 C 322.542969 149.9375 321.652344 150.070312 321.230469 150.886719 C 320.902344 151.523438 321 152.289062 321.402344 152.816406 C 321.984375 153.582031 323.167969 153.792969 323.984375 153.214844 Z M 323.984375 153.214844 " fill-opacity="1" fill-rule="nonzero"/></g></g></g><g clip-path="url(#7f632d77e9)"><g clip-path="url(#9bd3cc5261)"><g clip-path="url(#9bd48e9bef)"><path fill="#000000" d="M 346.246094 157.675781 C 347.40625 157.644531 348.21875 156.457031 348.054688 155.496094 C 347.917969 154.699219 347.148438 154.292969 347.023438 154.230469 C 346.867188 154.152344 346.050781 153.765625 345.246094 154.210938 C 344.621094 154.558594 344.277344 155.25 344.316406 155.910156 C 344.378906 156.871094 345.246094 157.707031 346.246094 157.675781 Z M 346.246094 157.675781 " fill-opacity="1" fill-rule="nonzero"/></g></g></g><g clip-path="url(#7428cf247c)"><g clip-path="url(#39122bcdb4)"><g clip-path="url(#353f3270e5)"><path fill="#000000" d="M 260.308594 202.765625 C 261.378906 203.226562 262.613281 202.488281 262.867188 201.550781 C 263.078125 200.769531 262.550781 200.078125 262.464844 199.96875 C 262.355469 199.828125 261.777344 199.136719 260.859375 199.203125 C 260.144531 199.253906 259.542969 199.738281 259.300781 200.355469 C 258.953125 201.25 259.390625 202.371094 260.308594 202.765625 Z M 260.308594 202.765625 " fill-opacity="1" fill-rule="nonzero"/></g></g></g><g clip-path="url(#253834229c)"><g clip-path="url(#ddedb13b46)"><g clip-path="url(#8b59dee071)"><path fill="#000000" d="M 284.921875 209.203125 C 285.988281 209.660156 287.226562 208.925781 287.480469 207.984375 C 287.691406 207.207031 287.160156 206.511719 287.074219 206.402344 C 286.964844 206.265625 286.386719 205.574219 285.46875 205.640625 C 284.757812 205.691406 284.152344 206.175781 283.914062 206.789062 C 283.5625 207.683594 284 208.808594 284.917969 209.203125 Z M 284.921875 209.203125 " fill-opacity="1" fill-rule="nonzero"/></g></g></g></svg>