<svg xmlns="http://www.w3.org/2000/svg" xmlns:xlink="http://www.w3.org/1999/xlink" width="500" zoomAndPan="magnify" viewBox="0 0 375 374.999991" height="500" preserveAspectRatio="xMidYMid meet" version="1.0"><path fill="#ffffff" d="M 356.25 243.75 C 345 243.75 337.5 251.25 337.5 262.5 L 337.5 322.5 C 337.5 330 330 337.5 322.5 337.5 L 52.5 337.5 C 45 337.5 37.5 330 37.5 322.5 L 37.5 262.5 C 37.5 251.25 30 243.75 18.75 243.75 C 7.5 243.75 0 251.25 0 262.5 L 0 322.5 C 0 350.625 24.375 375 52.5 375 L 322.5 375 C 350.625 375 375 350.625 375 322.5 L 375 262.5 C 375 251.25 367.5 243.75 356.25 243.75 Z M 356.25 243.75 " fill-opacity="1" fill-rule="nonzero"/><path fill="#ffffff" d="M 187.5 0 C 176.25 0 168.75 7.5 168.75 18.75 L 168.75 211.875 L 136.875 174.375 C 129.375 166.875 118.125 165 110.625 172.5 C 103.125 180 101.25 191.25 108.75 198.75 L 174.375 273.75 C 178.125 277.5 183.75 279.375 189.375 279.375 C 195 279.375 200.625 277.5 204.375 273.75 L 270 198.75 C 277.5 191.25 275.625 180 268.125 172.5 C 260.625 165 249.375 166.875 241.875 174.375 L 210 211.875 L 210 18.75 C 206.25 7.5 198.75 0 187.5 0 Z M 187.5 0 " fill-opacity="1" fill-rule="nonzero"/></svg>