<svg version="1.0" preserveAspectRatio="xMidYMid meet" viewBox="0 162.749996094 375 52.49999874000001" zoomAndPan="magnify" xmlns:xlink="http://www.w3.org/1999/xlink" xmlns="http://www.w3.org/2000/svg" width="375" height="52.49999874000001"><defs><clipPath id="a7e3046c11"><path clip-rule="nonzero" d="M 0 163 L 194 163 L 194 212 L 0 212 Z M 0 163"/></clipPath><clipPath id="034f3c42b0"><path clip-rule="nonzero" d="M -218.179688 158.65625 L 193.554688 162.609375 L 193.085938 211.359375 L -218.644531 207.40625 Z M -218.179688 158.65625"/></clipPath><clipPath id="5caa201f1b"><path clip-rule="nonzero" d="M -2.1875 160.730469 L 193.554688 162.609375 L 193.085938 211.359375 L -2.65625 209.480469 Z M -2.1875 160.730469"/></clipPath><clipPath id="21fc18a57b"><path clip-rule="nonzero" d="M -218.226562 158.65625 L 238.5 163.042969 L 238.03125 211.789062 L -218.695312 207.40625 Z M -218.226562 158.65625"/></clipPath><clipPath id="ca17c1d150"><path clip-rule="nonzero" d="M 171 168 L 375 168 L 375 215 L 171 215 Z M 171 168"/></clipPath><clipPath id="6c19b14287"><path clip-rule="nonzero" d="M 171.332031 163.898438 L 518.566406 167.230469 L 518.097656 215.976562 L 170.863281 212.644531 Z M 171.332031 163.898438"/></clipPath><clipPath id="4a25c79ea8"><path clip-rule="nonzero" d="M 171.332031 163.898438 L 377.570312 165.878906 L 377.105469 214.625 L 170.863281 212.644531 Z M 171.332031 163.898438"/></clipPath><clipPath id="b2f32d7ab5"><path clip-rule="nonzero" d="M 171.332031 163.898438 L 628.0625 168.28125 L 627.59375 217.03125 L 170.863281 212.644531 Z M 171.332031 163.898438"/></clipPath></defs><g clip-path="url(#a7e3046c11)"><g clip-path="url(#034f3c42b0)"><g clip-path="url(#5caa201f1b)"><g clip-path="url(#21fc18a57b)"><path fill-rule="nonzero" fill-opacity="1" d="M 206.660156 187.171875 C 205.65625 187.667969 182.699219 198.835938 146.347656 204.179688 C 112.207031 209.203125 58.949219 209.976562 -0.933594 185.132812 C -61.101562 160.152344 -108.449219 161.007812 -137.570312 166.113281 C -168.746094 171.578125 -186.28125 182.976562 -186.902344 183.394531 C -188.90625 181.902344 -201.371094 173.515625 -217.636719 182.296875 L -218.457031 182.738281 L -217.714844 183.308594 C -217.621094 183.382812 -211.128906 188.324219 -201.503906 188.417969 C -199.878906 188.433594 -198.167969 188.308594 -196.382812 188.003906 C -207.039062 194.847656 -208.886719 205.886719 -208.914062 206.027344 L -209.050781 206.945312 L -208.148438 206.707031 C -188.667969 201.671875 -186.429688 184.859375 -186.402344 184.695312 L -186.378906 184.421875 L -186.269531 184.367188 L -186.234375 184.414062 C -186.066406 184.296875 -168.625 172.78125 -137.273438 167.296875 C -108.332031 162.234375 -61.269531 161.398438 -1.40625 186.246094 C 38.011719 202.609375 74.582031 207.910156 104.761719 208.203125 C 120.644531 208.355469 134.757812 207.121094 146.585938 205.371094 C 179.265625 200.558594 201.195312 191.054688 206.179688 188.746094 C 206.527344 190.988281 209.457031 205.859375 227.453125 210.875 L 228.351562 211.132812 L 228.230469 210.210938 C 228.210938 210.070312 226.582031 198.996094 216.0625 191.953125 C 217.839844 192.289062 219.546875 192.445312 221.171875 192.460938 C 230.800781 192.554688 237.386719 187.738281 237.480469 187.667969 L 238.234375 187.109375 L 237.417969 186.652344 C 221.316406 177.5625 208.691406 185.730469 206.671875 187.171875 Z M -216.144531 182.898438 C -202.035156 175.785156 -191.089844 182.007812 -188.179688 183.992188 C -201.90625 190.863281 -213.113281 184.851562 -216.144531 182.898438 Z M -207.480469 205.261719 C -206.605469 201.78125 -202.5625 189.785156 -187.8125 185.484375 C -188.570312 188.90625 -192.257812 200.871094 -207.480469 205.261719 Z M 226.800781 209.433594 C 211.6875 204.761719 208.207031 192.726562 207.515625 189.277344 C 222.179688 193.863281 225.992188 205.933594 226.800781 209.433594 Z M 207.910156 187.796875 C 210.863281 185.867188 221.898438 179.84375 235.894531 187.238281 C 232.824219 189.121094 221.503906 194.917969 207.910156 187.796875 Z M 207.910156 187.796875" fill="#000000" stroke="#000000" stroke-width="3"/></g></g></g></g><g clip-path="url(#ca17c1d150)"><g clip-path="url(#6c19b14287)"><g clip-path="url(#4a25c79ea8)"><g clip-path="url(#b2f32d7ab5)"><path fill-rule="nonzero" fill-opacity="1" d="M 596.21875 192.410156 C 595.214844 192.910156 572.257812 204.074219 535.90625 209.417969 C 501.769531 214.445312 448.511719 215.21875 388.625 190.371094 C 328.457031 165.390625 281.109375 166.246094 251.992188 171.355469 C 220.8125 176.820312 203.277344 188.214844 202.65625 188.632812 C 200.652344 187.140625 188.1875 178.757812 171.925781 187.535156 L 171.101562 187.976562 L 171.84375 188.550781 C 171.9375 188.621094 178.429688 193.5625 188.054688 193.65625 C 189.683594 193.671875 191.394531 193.546875 193.175781 193.246094 C 182.523438 200.085938 180.671875 211.125 180.644531 211.265625 L 180.507812 212.183594 L 181.410156 211.945312 C 200.890625 206.910156 203.128906 190.097656 203.15625 189.933594 L 203.183594 189.664062 L 203.289062 189.605469 L 203.324219 189.652344 C 203.492188 189.535156 220.933594 178.023438 252.289062 172.535156 C 281.230469 167.472656 328.289062 166.640625 388.152344 191.484375 C 427.570312 207.847656 464.140625 213.152344 494.324219 213.441406 C 510.203125 213.59375 524.316406 212.363281 536.144531 210.613281 C 568.824219 205.796875 590.757812 196.296875 595.742188 193.984375 C 596.085938 196.230469 599.019531 211.097656 617.011719 216.117188 L 617.914062 216.371094 L 617.792969 215.453125 C 617.769531 215.308594 616.140625 204.238281 605.621094 197.191406 C 607.398438 197.527344 609.105469 197.6875 610.734375 197.703125 C 620.359375 197.792969 626.945312 192.976562 627.039062 192.90625 L 627.792969 192.347656 L 626.980469 191.894531 C 610.875 182.804688 598.25 190.96875 596.230469 192.410156 Z M 173.414062 188.140625 C 187.523438 181.027344 198.46875 187.25 201.382812 189.234375 C 187.652344 196.105469 176.445312 190.089844 173.414062 188.140625 Z M 182.078125 210.503906 C 182.953125 207.023438 187 195.023438 201.746094 190.722656 C 200.992188 194.144531 197.300781 206.109375 182.078125 210.503906 Z M 616.363281 214.671875 C 601.25 210 597.765625 197.964844 597.078125 194.515625 C 611.738281 199.101562 615.554688 211.175781 616.363281 214.671875 Z M 597.46875 193.035156 C 600.421875 191.109375 611.460938 185.082031 625.453125 192.480469 C 622.386719 194.359375 611.066406 200.15625 597.46875 193.035156 Z M 597.46875 193.035156" fill="#000000" stroke="#000000" stroke-width="3"/></g></g></g></g></svg>