<svg xmlns="http://www.w3.org/2000/svg" xmlns:xlink="http://www.w3.org/1999/xlink" width="500" zoomAndPan="magnify" viewBox="0 0 375 374.999991" height="500" preserveAspectRatio="xMidYMid meet" version="1.0"><path fill="#ffffff" d="M 93.578125 178.238281 C 94.074219 177.753906 94.523438 177.226562 94.914062 176.652344 C 95.308594 176.078125 95.640625 175.472656 95.914062 174.832031 C 96.1875 174.191406 96.394531 173.53125 96.539062 172.851562 C 96.679688 172.171875 96.753906 171.484375 96.757812 170.789062 C 96.761719 170.09375 96.699219 169.402344 96.566406 168.71875 C 96.4375 168.035156 96.238281 167.375 95.972656 166.730469 C 95.710938 166.085938 95.386719 165.476562 95 164.898438 C 94.617188 164.316406 94.175781 163.78125 93.683594 163.289062 C 93.195312 162.800781 92.65625 162.359375 92.078125 161.976562 C 91.5 161.589844 90.890625 161.265625 90.246094 161 C 89.601562 160.738281 88.9375 160.539062 88.257812 160.40625 C 87.574219 160.277344 86.882812 160.210938 86.1875 160.21875 C 85.492188 160.222656 84.804688 160.296875 84.125 160.4375 C 83.445312 160.578125 82.785156 160.785156 82.144531 161.058594 C 81.503906 161.332031 80.898438 161.664062 80.324219 162.058594 C 79.75 162.453125 79.222656 162.898438 78.738281 163.398438 L 36.621094 205.515625 C 35.539062 206.617188 34.488281 207.742188 33.464844 208.894531 C 32.4375 210.046875 31.441406 211.222656 30.472656 212.421875 C 29.507812 213.621094 28.566406 214.84375 27.660156 216.089844 C 26.75 217.335938 25.871094 218.601562 25.027344 219.890625 C 24.179688 221.175781 23.363281 222.484375 22.578125 223.8125 C 21.796875 225.140625 21.042969 226.484375 20.324219 227.851562 C 19.605469 229.214844 18.921875 230.59375 18.269531 231.992188 C 17.617188 233.390625 17 234.800781 16.417969 236.226562 C 15.835938 237.65625 15.289062 239.097656 14.773438 240.550781 C 14.261719 242.003906 13.785156 243.46875 13.339844 244.945312 C 12.898438 246.421875 12.492188 247.910156 12.121094 249.40625 C 11.753906 250.902344 11.417969 252.40625 11.121094 253.917969 C 10.824219 255.433594 10.566406 256.953125 10.339844 258.476562 C 10.117188 260.003906 9.929688 261.53125 9.78125 263.066406 C 9.632812 264.601562 9.519531 266.136719 9.445312 267.679688 C 9.371094 269.21875 9.335938 270.757812 9.335938 272.300781 C 9.335938 273.84375 9.371094 275.382812 9.445312 276.921875 C 9.519531 278.460938 9.632812 280 9.78125 281.535156 C 9.929688 283.070312 10.117188 284.597656 10.339844 286.125 C 10.566406 287.648438 10.824219 289.167969 11.121094 290.679688 C 11.417969 292.195312 11.753906 293.699219 12.121094 295.195312 C 12.492188 296.691406 12.898438 298.179688 13.339844 299.65625 C 13.785156 301.132812 14.261719 302.597656 14.773438 304.050781 C 15.289062 305.503906 15.835938 306.945312 16.417969 308.371094 C 17 309.800781 17.617188 311.210938 18.269531 312.609375 C 18.921875 314.007812 19.605469 315.386719 20.324219 316.75 C 21.042969 318.113281 21.796875 319.460938 22.578125 320.789062 C 23.363281 322.117188 24.179688 323.421875 25.027344 324.710938 C 25.871094 326 26.75 327.265625 27.660156 328.511719 C 28.566406 329.757812 29.507812 330.980469 30.472656 332.179688 C 31.441406 333.378906 32.4375 334.554688 33.464844 335.707031 C 34.488281 336.859375 35.539062 337.984375 36.621094 339.085938 C 37.726562 340.152344 38.859375 341.191406 40.019531 342.203125 C 41.175781 343.214844 42.359375 344.195312 43.5625 345.152344 C 44.769531 346.109375 45.996094 347.035156 47.246094 347.929688 C 48.496094 348.828125 49.765625 349.691406 51.054688 350.527344 C 52.347656 351.363281 53.65625 352.167969 54.984375 352.941406 C 56.316406 353.714844 57.660156 354.453125 59.027344 355.164062 C 60.390625 355.871094 61.773438 356.546875 63.167969 357.1875 C 64.566406 357.832031 65.976562 358.4375 67.40625 359.015625 C 68.832031 359.589844 70.269531 360.128906 71.722656 360.632812 C 73.175781 361.140625 74.636719 361.609375 76.113281 362.046875 C 77.585938 362.480469 79.070312 362.882812 80.566406 363.246094 C 82.058594 363.613281 83.5625 363.941406 85.070312 364.234375 C 86.578125 364.523438 88.09375 364.78125 89.617188 365 C 91.140625 365.222656 92.664062 365.40625 94.195312 365.550781 C 95.726562 365.699219 97.261719 365.808594 98.796875 365.882812 C 100.332031 365.957031 101.867188 365.992188 103.40625 365.992188 C 104.945312 365.992188 106.480469 365.957031 108.015625 365.882812 C 109.550781 365.808594 111.085938 365.699219 112.617188 365.550781 C 114.148438 365.40625 115.671875 365.222656 117.195312 365 C 118.71875 364.78125 120.234375 364.523438 121.742188 364.234375 C 123.25 363.941406 124.753906 363.613281 126.246094 363.246094 C 127.742188 362.882812 129.226562 362.480469 130.699219 362.046875 C 132.175781 361.609375 133.636719 361.140625 135.089844 360.632812 C 136.542969 360.128906 137.980469 359.589844 139.40625 359.015625 C 140.835938 358.4375 142.246094 357.832031 143.644531 357.1875 C 145.039062 356.546875 146.421875 355.871094 147.785156 355.164062 C 149.152344 354.453125 150.496094 353.714844 151.828125 352.941406 C 153.15625 352.167969 154.464844 351.363281 155.757812 350.527344 C 157.046875 349.691406 158.316406 348.828125 159.566406 347.929688 C 160.816406 347.035156 162.042969 346.109375 163.25 345.152344 C 164.453125 344.195312 165.636719 343.214844 166.792969 342.203125 C 167.953125 341.191406 169.085938 340.152344 170.191406 339.085938 L 229.558594 279.726562 C 230.632812 278.621094 231.679688 277.496094 232.703125 276.339844 C 233.722656 275.1875 234.714844 274.007812 235.679688 272.808594 C 236.640625 271.605469 237.574219 270.382812 238.480469 269.132812 C 239.382812 267.886719 240.257812 266.621094 241.101562 265.332031 C 241.945312 264.042969 242.757812 262.734375 243.535156 261.40625 C 244.316406 260.078125 245.0625 258.730469 245.777344 257.367188 C 246.492188 256.003906 247.175781 254.621094 247.824219 253.222656 C 248.472656 251.828125 249.085938 250.414062 249.667969 248.988281 C 250.246094 247.5625 250.792969 246.121094 251.304688 244.667969 C 251.8125 243.214844 252.289062 241.75 252.730469 240.273438 C 253.167969 238.796875 253.574219 237.3125 253.941406 235.816406 C 254.308594 234.320312 254.640625 232.816406 254.9375 231.304688 C 255.234375 229.792969 255.492188 228.277344 255.714844 226.753906 C 255.9375 225.226562 256.121094 223.699219 256.269531 222.167969 C 256.417969 220.632812 256.53125 219.097656 256.605469 217.558594 C 256.679688 216.019531 256.714844 214.480469 256.714844 212.941406 C 256.714844 211.398438 256.679688 209.859375 256.605469 208.324219 C 256.53125 206.785156 256.417969 205.246094 256.269531 203.714844 C 256.121094 202.183594 255.9375 200.652344 255.714844 199.128906 C 255.492188 197.605469 255.234375 196.085938 254.9375 194.574219 C 254.640625 193.0625 254.308594 191.558594 253.941406 190.0625 C 253.574219 188.570312 253.167969 187.082031 252.730469 185.605469 C 252.289062 184.128906 251.8125 182.664062 251.304688 181.210938 C 250.792969 179.757812 250.246094 178.320312 249.667969 176.890625 C 249.085938 175.464844 248.472656 174.054688 247.824219 172.65625 C 247.175781 171.257812 246.492188 169.878906 245.777344 168.515625 C 245.0625 167.148438 244.316406 165.804688 243.535156 164.476562 C 242.757812 163.148438 241.945312 161.839844 241.101562 160.550781 C 240.257812 159.261719 239.382812 157.992188 238.480469 156.746094 C 237.574219 155.5 236.640625 154.273438 235.679688 153.074219 C 234.714844 151.871094 233.722656 150.695312 232.703125 149.539062 C 231.679688 148.386719 230.632812 147.257812 229.558594 146.15625 C 226.636719 143.21875 223.535156 140.492188 220.25 137.972656 C 216.96875 135.449219 213.53125 133.160156 209.941406 131.097656 C 206.351562 129.035156 202.640625 127.21875 198.808594 125.652344 C 194.976562 124.085938 191.054688 122.78125 187.050781 121.734375 C 186.382812 121.5625 185.703125 121.457031 185.015625 121.421875 C 184.328125 121.382812 183.640625 121.410156 182.960938 121.507812 C 182.277344 121.605469 181.609375 121.765625 180.960938 121.996094 C 180.308594 122.222656 179.6875 122.511719 179.09375 122.863281 C 178.5 123.214844 177.949219 123.617188 177.433594 124.078125 C 176.917969 124.539062 176.457031 125.042969 176.042969 125.59375 C 175.628906 126.144531 175.269531 126.730469 174.972656 127.351562 C 174.671875 127.972656 174.4375 128.617188 174.265625 129.285156 C 174.09375 129.953125 173.988281 130.628906 173.953125 131.316406 C 173.914062 132.007812 173.941406 132.691406 174.039062 133.375 C 174.136719 134.058594 174.296875 134.722656 174.527344 135.375 C 174.753906 136.023438 175.042969 136.644531 175.394531 137.238281 C 175.746094 137.832031 176.148438 138.386719 176.609375 138.902344 C 177.070312 139.414062 177.574219 139.878906 178.125 140.292969 C 178.675781 140.707031 179.261719 141.0625 179.882812 141.363281 C 180.503906 141.660156 181.148438 141.894531 181.816406 142.066406 C 188.054688 143.671875 193.96875 146.078125 199.550781 149.292969 C 205.136719 152.503906 210.191406 156.402344 214.710938 160.992188 C 215.550781 161.847656 216.367188 162.726562 217.164062 163.621094 C 217.960938 164.519531 218.734375 165.433594 219.484375 166.367188 C 220.238281 167.300781 220.964844 168.253906 221.671875 169.222656 C 222.378906 170.191406 223.058594 171.175781 223.71875 172.179688 C 224.375 173.179688 225.007812 174.199219 225.617188 175.230469 C 226.226562 176.261719 226.808594 177.308594 227.367188 178.371094 C 227.925781 179.433594 228.457031 180.507812 228.960938 181.59375 C 229.46875 182.679688 229.949219 183.777344 230.398438 184.886719 C 230.851562 186 231.277344 187.117188 231.675781 188.25 C 232.074219 189.378906 232.445312 190.519531 232.789062 191.667969 C 233.132812 192.816406 233.449219 193.972656 233.734375 195.136719 C 234.023438 196.300781 234.28125 197.46875 234.511719 198.648438 C 234.742188 199.824219 234.945312 201.003906 235.117188 202.191406 C 235.292969 203.375 235.4375 204.566406 235.554688 205.757812 C 235.667969 206.953125 235.753906 208.148438 235.8125 209.34375 C 235.871094 210.542969 235.902344 211.742188 235.902344 212.9375 C 235.902344 214.136719 235.871094 215.335938 235.8125 216.535156 C 235.753906 217.730469 235.667969 218.925781 235.554688 220.117188 C 235.4375 221.3125 235.292969 222.5 235.117188 223.6875 C 234.945312 224.875 234.742188 226.054688 234.511719 227.230469 C 234.28125 228.40625 234.023438 229.578125 233.734375 230.742188 C 233.449219 231.90625 233.132812 233.0625 232.789062 234.210938 C 232.445312 235.359375 232.074219 236.5 231.675781 237.628906 C 231.277344 238.757812 230.851562 239.878906 230.398438 240.988281 C 229.949219 242.101562 229.46875 243.199219 228.960938 244.285156 C 228.457031 245.371094 227.925781 246.445312 227.367188 247.507812 C 226.808594 248.566406 226.226562 249.613281 225.617188 250.648438 C 225.007812 251.679688 224.375 252.699219 223.71875 253.699219 C 223.058594 254.703125 222.378906 255.6875 221.671875 256.65625 C 220.964844 257.625 220.238281 258.578125 219.484375 259.511719 C 218.734375 260.445312 217.960938 261.359375 217.164062 262.257812 C 216.367188 263.152344 215.550781 264.027344 214.710938 264.886719 L 155.347656 324.246094 C 154.484375 325.070312 153.601562 325.878906 152.703125 326.664062 C 151.800781 327.449219 150.878906 328.210938 149.941406 328.953125 C 149.003906 329.695312 148.050781 330.414062 147.078125 331.109375 C 146.105469 331.804688 145.117188 332.476562 144.113281 333.125 C 143.109375 333.773438 142.089844 334.394531 141.054688 334.996094 C 140.019531 335.59375 138.972656 336.171875 137.910156 336.71875 C 136.847656 337.269531 135.773438 337.792969 134.6875 338.292969 C 133.601562 338.789062 132.503906 339.261719 131.394531 339.707031 C 130.285156 340.152344 129.164062 340.574219 128.035156 340.964844 C 126.90625 341.355469 125.769531 341.722656 124.621094 342.058594 C 123.476562 342.398438 122.320312 342.707031 121.160156 342.992188 C 120 343.273438 118.832031 343.527344 117.65625 343.757812 C 116.484375 343.984375 115.304688 344.183594 114.121094 344.351562 C 112.9375 344.523438 111.753906 344.664062 110.5625 344.78125 C 109.371094 344.894531 108.179688 344.980469 106.988281 345.035156 C 105.792969 345.09375 104.597656 345.121094 103.402344 345.121094 C 102.207031 345.121094 101.011719 345.09375 99.816406 345.035156 C 98.625 344.980469 97.433594 344.894531 96.242188 344.78125 C 95.050781 344.664062 93.863281 344.523438 92.683594 344.351562 C 91.5 344.183594 90.320312 343.984375 89.148438 343.757812 C 87.972656 343.527344 86.804688 343.273438 85.644531 342.992188 C 84.480469 342.707031 83.328125 342.398438 82.179688 342.058594 C 81.035156 341.722656 79.898438 341.355469 78.769531 340.964844 C 77.636719 340.574219 76.519531 340.152344 75.410156 339.707031 C 74.300781 339.261719 73.203125 338.789062 72.117188 338.292969 C 71.03125 337.792969 69.957031 337.269531 68.894531 336.71875 C 67.832031 336.171875 66.785156 335.59375 65.75 334.996094 C 64.714844 334.394531 63.695312 333.773438 62.691406 333.125 C 61.6875 332.476562 60.699219 331.804688 59.726562 331.109375 C 58.753906 330.414062 57.800781 329.695312 56.863281 328.953125 C 55.925781 328.210938 55.003906 327.449219 54.101562 326.664062 C 53.203125 325.878906 52.320312 325.070312 51.457031 324.246094 C 50.617188 323.386719 49.800781 322.511719 49.007812 321.613281 C 48.210938 320.71875 47.4375 319.800781 46.6875 318.867188 C 45.9375 317.933594 45.207031 316.984375 44.503906 316.011719 C 43.796875 315.042969 43.117188 314.058594 42.460938 313.054688 C 41.800781 312.054688 41.167969 311.035156 40.5625 310.003906 C 39.953125 308.96875 39.371094 307.921875 38.8125 306.863281 C 38.253906 305.800781 37.722656 304.726562 37.21875 303.640625 C 36.710938 302.554688 36.234375 301.457031 35.78125 300.347656 C 35.328125 299.234375 34.902344 298.117188 34.503906 296.984375 C 34.109375 295.855469 33.738281 294.714844 33.394531 293.566406 C 33.050781 292.417969 32.734375 291.261719 32.449219 290.097656 C 32.160156 288.933594 31.902344 287.765625 31.671875 286.589844 C 31.441406 285.414062 31.238281 284.230469 31.066406 283.046875 C 30.894531 281.859375 30.75 280.671875 30.632812 279.476562 C 30.515625 278.285156 30.429688 277.089844 30.371094 275.890625 C 30.316406 274.695312 30.285156 273.496094 30.285156 272.300781 C 30.285156 271.101562 30.3125 269.902344 30.371094 268.707031 C 30.429688 267.507812 30.515625 266.3125 30.632812 265.121094 C 30.75 263.925781 30.894531 262.738281 31.066406 261.550781 C 31.238281 260.367188 31.441406 259.183594 31.671875 258.007812 C 31.902344 256.832031 32.160156 255.664062 32.449219 254.5 C 32.734375 253.335938 33.050781 252.179688 33.394531 251.03125 C 33.738281 249.882812 34.109375 248.742188 34.503906 247.613281 C 34.902344 246.480469 35.328125 245.363281 35.78125 244.25 C 36.234375 243.140625 36.710938 242.042969 37.21875 240.957031 C 37.722656 239.871094 38.253906 238.796875 38.8125 237.734375 C 39.371094 236.675781 39.953125 235.628906 40.5625 234.59375 C 41.167969 233.5625 41.800781 232.542969 42.460938 231.542969 C 43.117188 230.539062 43.796875 229.554688 44.503906 228.585938 C 45.207031 227.617188 45.9375 226.664062 46.6875 225.730469 C 47.4375 224.796875 48.210938 223.878906 49.007812 222.984375 C 49.800781 222.085938 50.617188 221.210938 51.457031 220.351562 Z M 93.578125 178.238281 " fill-opacity="1" fill-rule="nonzero"/><path fill="#ffffff" d="M 288.417969 191.164062 C 287.921875 191.648438 287.476562 192.179688 287.082031 192.75 C 286.6875 193.324219 286.355469 193.929688 286.082031 194.570312 C 285.808594 195.210938 285.601562 195.871094 285.457031 196.550781 C 285.316406 197.230469 285.242188 197.921875 285.238281 198.617188 C 285.234375 199.3125 285.296875 200 285.429688 200.683594 C 285.558594 201.367188 285.757812 202.027344 286.023438 202.671875 C 286.285156 203.316406 286.609375 203.925781 286.996094 204.507812 C 287.382812 205.085938 287.820312 205.621094 288.3125 206.113281 C 288.804688 206.605469 289.339844 207.042969 289.917969 207.429688 C 290.496094 207.8125 291.105469 208.136719 291.75 208.402344 C 292.394531 208.664062 293.058594 208.863281 293.738281 208.996094 C 294.421875 209.128906 295.113281 209.191406 295.808594 209.1875 C 296.503906 209.179688 297.191406 209.109375 297.871094 208.964844 C 298.550781 208.824219 299.214844 208.617188 299.851562 208.34375 C 300.492188 208.070312 301.097656 207.738281 301.671875 207.34375 C 302.246094 206.949219 302.773438 206.503906 303.257812 206.003906 L 338.378906 170.882812 C 339.457031 169.78125 340.511719 168.65625 341.535156 167.503906 C 342.558594 166.351562 343.554688 165.175781 344.519531 163.976562 C 345.488281 162.773438 346.425781 161.550781 347.332031 160.304688 C 348.242188 159.0625 349.117188 157.792969 349.964844 156.503906 C 350.808594 155.21875 351.625 153.910156 352.40625 152.582031 C 353.191406 151.253906 353.941406 149.90625 354.660156 148.542969 C 355.378906 147.179688 356.0625 145.800781 356.710938 144.402344 C 357.363281 143.003906 357.980469 141.59375 358.5625 140.164062 C 359.144531 138.738281 359.691406 137.296875 360.207031 135.84375 C 360.71875 134.390625 361.195312 132.925781 361.636719 131.449219 C 362.078125 129.972656 362.484375 128.484375 362.855469 126.988281 C 363.222656 125.492188 363.558594 123.988281 363.855469 122.476562 C 364.152344 120.964844 364.410156 119.445312 364.632812 117.917969 C 364.855469 116.394531 365.042969 114.863281 365.191406 113.332031 C 365.339844 111.796875 365.453125 110.257812 365.527344 108.71875 C 365.601562 107.179688 365.640625 105.640625 365.640625 104.097656 C 365.640625 102.558594 365.601562 101.015625 365.527344 99.476562 C 365.453125 97.9375 365.339844 96.398438 365.191406 94.867188 C 365.042969 93.332031 364.855469 91.800781 364.632812 90.277344 C 364.410156 88.753906 364.152344 87.234375 363.855469 85.71875 C 363.558594 84.207031 363.222656 82.703125 362.855469 81.207031 C 362.484375 79.710938 362.078125 78.222656 361.636719 76.746094 C 361.195312 75.269531 360.71875 73.804688 360.207031 72.351562 C 359.691406 70.898438 359.144531 69.457031 358.5625 68.03125 C 357.980469 66.605469 357.363281 65.191406 356.710938 63.792969 C 356.0625 62.398438 355.378906 61.015625 354.660156 59.652344 C 353.941406 58.289062 353.191406 56.941406 352.40625 55.613281 C 351.625 54.289062 350.808594 52.980469 349.964844 51.691406 C 349.117188 50.402344 348.242188 49.136719 347.332031 47.890625 C 346.425781 46.644531 345.488281 45.421875 344.519531 44.222656 C 343.554688 43.019531 342.558594 41.84375 341.535156 40.691406 C 340.511719 39.539062 339.457031 38.414062 338.378906 37.3125 C 337.273438 36.246094 336.140625 35.207031 334.984375 34.191406 C 333.824219 33.179688 332.644531 32.195312 331.441406 31.238281 C 330.234375 30.28125 329.007812 29.355469 327.757812 28.457031 C 326.511719 27.5625 325.242188 26.695312 323.949219 25.859375 C 322.660156 25.019531 321.347656 24.214844 320.019531 23.441406 C 318.691406 22.667969 317.34375 21.925781 315.980469 21.21875 C 314.613281 20.507812 313.234375 19.832031 311.835938 19.1875 C 310.441406 18.546875 309.027344 17.9375 307.601562 17.363281 C 306.175781 16.785156 304.734375 16.246094 303.285156 15.738281 C 301.832031 15.234375 300.367188 14.761719 298.894531 14.324219 C 297.417969 13.890625 295.933594 13.488281 294.441406 13.125 C 292.945312 12.757812 291.445312 12.429688 289.933594 12.136719 C 288.425781 11.84375 286.90625 11.585938 285.386719 11.367188 C 283.863281 11.144531 282.335938 10.960938 280.804688 10.816406 C 279.277344 10.667969 277.742188 10.558594 276.207031 10.484375 C 274.667969 10.410156 273.132812 10.375 271.59375 10.375 C 270.054688 10.375 268.519531 10.410156 266.984375 10.484375 C 265.445312 10.558594 263.914062 10.667969 262.382812 10.816406 C 260.851562 10.960938 259.324219 11.144531 257.804688 11.367188 C 256.28125 11.585938 254.765625 11.84375 253.253906 12.136719 C 251.746094 12.429688 250.242188 12.757812 248.75 13.125 C 247.253906 13.488281 245.769531 13.890625 244.296875 14.324219 C 242.820312 14.761719 241.359375 15.234375 239.90625 15.738281 C 238.453125 16.246094 237.011719 16.785156 235.585938 17.363281 C 234.160156 17.9375 232.75 18.546875 231.351562 19.1875 C 229.953125 19.832031 228.574219 20.507812 227.210938 21.21875 C 225.84375 21.925781 224.496094 22.667969 223.167969 23.441406 C 221.839844 24.214844 220.53125 25.019531 219.238281 25.859375 C 217.949219 26.695312 216.679688 27.5625 215.429688 28.457031 C 214.179688 29.355469 212.953125 30.28125 211.75 31.238281 C 210.542969 32.195312 209.363281 33.179688 208.207031 34.191406 C 207.046875 35.207031 205.917969 36.246094 204.808594 37.3125 L 145.445312 96.675781 C 144.378906 97.78125 143.339844 98.914062 142.324219 100.070312 C 141.3125 101.226562 140.328125 102.410156 139.371094 103.613281 C 138.414062 104.816406 137.488281 106.042969 136.589844 107.292969 C 135.691406 108.542969 134.824219 109.8125 133.988281 111.101562 C 133.148438 112.394531 132.34375 113.703125 131.570312 115.03125 C 130.796875 116.359375 130.054688 117.707031 129.34375 119.074219 C 128.636719 120.4375 127.960938 121.820312 127.316406 123.214844 C 126.671875 124.613281 126.0625 126.023438 125.488281 127.449219 C 124.910156 128.878906 124.371094 130.316406 123.863281 131.769531 C 123.359375 133.222656 122.886719 134.683594 122.449219 136.160156 C 122.011719 137.632812 121.613281 139.117188 121.246094 140.613281 C 120.882812 142.105469 120.554688 143.609375 120.261719 145.121094 C 119.964844 146.628906 119.710938 148.144531 119.488281 149.667969 C 119.269531 151.191406 119.085938 152.714844 118.9375 154.246094 C 118.789062 155.777344 118.679688 157.3125 118.605469 158.847656 C 118.53125 160.382812 118.496094 161.921875 118.496094 163.460938 C 118.496094 165 118.53125 166.535156 118.605469 168.070312 C 118.679688 169.609375 118.789062 171.140625 118.9375 172.671875 C 119.085938 174.203125 119.269531 175.730469 119.488281 177.253906 C 119.710938 178.773438 119.964844 180.292969 120.261719 181.800781 C 120.554688 183.3125 120.882812 184.8125 121.246094 186.308594 C 121.613281 187.800781 122.011719 189.285156 122.449219 190.761719 C 122.886719 192.234375 123.359375 193.699219 123.863281 195.152344 C 124.371094 196.605469 124.910156 198.042969 125.488281 199.46875 C 126.0625 200.894531 126.671875 202.308594 127.316406 203.703125 C 127.960938 205.101562 128.636719 206.484375 129.34375 207.847656 C 130.054688 209.210938 130.796875 210.558594 131.570312 211.886719 C 132.34375 213.21875 133.148438 214.527344 133.988281 215.816406 C 134.824219 217.109375 135.691406 218.378906 136.589844 219.625 C 137.488281 220.875 138.414062 222.101562 139.371094 223.304688 C 140.328125 224.511719 141.3125 225.691406 142.324219 226.847656 C 143.339844 228.007812 144.378906 229.136719 145.445312 230.246094 C 148.367188 233.179688 151.46875 235.90625 154.753906 238.429688 C 158.035156 240.949219 161.472656 243.238281 165.0625 245.300781 C 168.652344 247.363281 172.363281 249.179688 176.195312 250.746094 C 180.027344 252.3125 183.945312 253.621094 187.949219 254.664062 C 188.617188 254.824219 189.292969 254.921875 189.980469 254.953125 C 190.664062 254.984375 191.347656 254.949219 192.027344 254.847656 C 192.703125 254.746094 193.367188 254.582031 194.015625 254.351562 C 194.660156 254.125 195.28125 253.835938 195.871094 253.488281 C 196.460938 253.136719 197.011719 252.734375 197.527344 252.28125 C 198.039062 251.824219 198.503906 251.324219 198.921875 250.777344 C 199.335938 250.230469 199.695312 249.652344 200 249.035156 C 200.304688 248.421875 200.546875 247.78125 200.726562 247.121094 C 200.898438 246.453125 201.003906 245.773438 201.042969 245.085938 C 201.082031 244.398438 201.054688 243.714844 200.957031 243.03125 C 200.863281 242.347656 200.699219 241.679688 200.472656 241.03125 C 200.246094 240.378906 199.957031 239.757812 199.605469 239.164062 C 199.253906 238.570312 198.851562 238.015625 198.390625 237.5 C 197.933594 236.988281 197.425781 236.523438 196.875 236.109375 C 196.324219 235.695312 195.738281 235.335938 195.117188 235.039062 C 194.496094 234.738281 193.851562 234.503906 193.183594 234.332031 C 186.945312 232.726562 181.03125 230.320312 175.449219 227.109375 C 169.863281 223.894531 164.808594 219.996094 160.289062 215.40625 C 159.449219 214.550781 158.632812 213.671875 157.835938 212.777344 C 157.039062 211.878906 156.265625 210.964844 155.515625 210.03125 C 154.761719 209.097656 154.035156 208.144531 153.328125 207.175781 C 152.625 206.207031 151.941406 205.222656 151.285156 204.21875 C 150.625 203.21875 149.992188 202.199219 149.386719 201.167969 C 148.777344 200.132812 148.195312 199.085938 147.636719 198.027344 C 147.078125 196.964844 146.546875 195.890625 146.039062 194.804688 C 145.535156 193.71875 145.054688 192.621094 144.601562 191.511719 C 144.148438 190.398438 143.722656 189.28125 143.324219 188.148438 C 142.925781 187.019531 142.558594 185.878906 142.214844 184.730469 C 141.871094 183.582031 141.554688 182.425781 141.269531 181.261719 C 140.980469 180.097656 140.722656 178.929688 140.492188 177.753906 C 140.261719 176.574219 140.058594 175.394531 139.886719 174.207031 C 139.710938 173.023438 139.566406 171.832031 139.449219 170.640625 C 139.335938 169.445312 139.246094 168.25 139.191406 167.054688 C 139.132812 165.855469 139.101562 164.660156 139.101562 163.460938 C 139.101562 162.261719 139.132812 161.0625 139.191406 159.867188 C 139.246094 158.667969 139.335938 157.472656 139.449219 156.28125 C 139.566406 155.085938 139.710938 153.898438 139.886719 152.710938 C 140.058594 151.527344 140.261719 150.34375 140.492188 149.167969 C 140.722656 147.992188 140.980469 146.820312 141.269531 145.65625 C 141.554688 144.492188 141.871094 143.339844 142.214844 142.191406 C 142.558594 141.039062 142.925781 139.902344 143.324219 138.769531 C 143.722656 137.640625 144.148438 136.519531 144.601562 135.410156 C 145.054688 134.300781 145.535156 133.203125 146.039062 132.113281 C 146.546875 131.027344 147.078125 129.953125 147.636719 128.894531 C 148.195312 127.832031 148.777344 126.785156 149.386719 125.753906 C 149.992188 124.71875 150.625 123.703125 151.285156 122.699219 C 151.941406 121.699219 152.625 120.710938 153.328125 119.742188 C 154.035156 118.773438 154.761719 117.824219 155.515625 116.890625 C 156.265625 115.953125 157.039062 115.039062 157.835938 114.144531 C 158.632812 113.246094 159.449219 112.371094 160.289062 111.511719 L 219.652344 52.15625 C 220.503906 51.304688 221.371094 50.476562 222.265625 49.667969 C 223.15625 48.863281 224.066406 48.078125 224.996094 47.316406 C 225.921875 46.554688 226.871094 45.816406 227.835938 45.097656 C 228.800781 44.382812 229.785156 43.691406 230.785156 43.023438 C 231.785156 42.355469 232.800781 41.714844 233.832031 41.097656 C 234.863281 40.476562 235.90625 39.886719 236.96875 39.320312 C 238.027344 38.753906 239.101562 38.214844 240.1875 37.699219 C 241.273438 37.1875 242.375 36.699219 243.484375 36.238281 C 244.59375 35.78125 245.714844 35.347656 246.847656 34.945312 C 247.980469 34.539062 249.121094 34.164062 250.273438 33.8125 C 251.421875 33.464844 252.582031 33.144531 253.746094 32.851562 C 254.914062 32.5625 256.085938 32.296875 257.265625 32.0625 C 258.441406 31.828125 259.625 31.625 260.816406 31.449219 C 262.003906 31.273438 263.199219 31.125 264.394531 31.007812 C 265.589844 30.890625 266.789062 30.800781 267.988281 30.742188 C 269.191406 30.683594 270.390625 30.65625 271.59375 30.65625 C 272.792969 30.65625 273.996094 30.683594 275.195312 30.746094 C 276.398438 30.804688 277.597656 30.890625 278.792969 31.011719 C 279.988281 31.128906 281.179688 31.273438 282.371094 31.453125 C 283.558594 31.628906 284.742188 31.832031 285.921875 32.070312 C 287.101562 32.304688 288.273438 32.566406 289.4375 32.859375 C 290.605469 33.152344 291.761719 33.472656 292.914062 33.820312 C 294.0625 34.167969 295.203125 34.546875 296.335938 34.953125 C 297.46875 35.355469 298.589844 35.789062 299.699219 36.25 C 300.808594 36.710938 301.910156 37.195312 302.996094 37.710938 C 304.082031 38.222656 305.15625 38.765625 306.214844 39.332031 C 307.273438 39.898438 308.320312 40.492188 309.351562 41.109375 C 310.382812 41.726562 311.398438 42.371094 312.398438 43.039062 C 313.394531 43.707031 314.378906 44.398438 315.34375 45.113281 C 316.308594 45.828125 317.257812 46.570312 318.1875 47.332031 C 319.113281 48.09375 320.023438 48.878906 320.914062 49.6875 C 321.804688 50.492188 322.675781 51.320312 323.527344 52.171875 C 324.375 53.023438 325.207031 53.890625 326.011719 54.78125 C 326.820312 55.671875 327.605469 56.582031 328.367188 57.511719 C 329.128906 58.441406 329.867188 59.386719 330.585938 60.355469 C 331.300781 61.320312 331.992188 62.300781 332.660156 63.300781 C 333.328125 64.300781 333.972656 65.316406 334.589844 66.347656 C 335.207031 67.378906 335.800781 68.421875 336.367188 69.484375 C 336.933594 70.542969 337.472656 71.617188 337.988281 72.703125 C 338.5 73.789062 338.988281 74.886719 339.449219 76 C 339.910156 77.109375 340.339844 78.230469 340.746094 79.363281 C 341.152344 80.492188 341.527344 81.632812 341.878906 82.785156 C 342.226562 83.933594 342.546875 85.09375 342.839844 86.257812 C 343.132812 87.425781 343.394531 88.597656 343.628906 89.777344 C 343.863281 90.957031 344.070312 92.140625 344.246094 93.328125 C 344.421875 94.515625 344.570312 95.710938 344.6875 96.90625 C 344.808594 98.101562 344.894531 99.300781 344.953125 100.5 C 345.015625 101.703125 345.042969 102.902344 345.042969 104.105469 C 345.042969 105.308594 345.015625 106.507812 344.957031 107.707031 C 344.898438 108.910156 344.808594 110.109375 344.691406 111.304688 C 344.574219 112.5 344.425781 113.691406 344.25 114.882812 C 344.074219 116.070312 343.871094 117.253906 343.636719 118.433594 C 343.402344 119.613281 343.136719 120.785156 342.847656 121.953125 C 342.554688 123.117188 342.234375 124.277344 341.886719 125.425781 C 341.539062 126.578125 341.160156 127.71875 340.753906 128.847656 C 340.351562 129.980469 339.917969 131.101562 339.460938 132.214844 C 339 133.324219 338.511719 134.421875 338 135.507812 C 337.484375 136.597656 336.945312 137.667969 336.378906 138.730469 C 335.8125 139.789062 335.222656 140.835938 334.601562 141.867188 C 333.984375 142.898438 333.34375 143.914062 332.675781 144.914062 C 332.007812 145.914062 331.316406 146.894531 330.601562 147.859375 C 329.886719 148.828125 329.144531 149.773438 328.382812 150.703125 C 327.621094 151.632812 326.835938 152.542969 326.03125 153.433594 C 325.222656 154.324219 324.394531 155.195312 323.546875 156.046875 Z M 288.417969 191.164062 " fill-opacity="1" fill-rule="nonzero"/></svg>