<svg xmlns="http://www.w3.org/2000/svg" xmlns:xlink="http://www.w3.org/1999/xlink" width="500" zoomAndPan="magnify" viewBox="0 0 375 374.999991" height="500" preserveAspectRatio="xMidYMid meet" version="1.0"><defs><clipPath id="13dd5a6013"><path d="M 191 34.542969 L 244 34.542969 L 244 85 L 191 85 Z M 191 34.542969 " clip-rule="nonzero"/></clipPath></defs><path fill="#ffffff" d="M 334.539062 251.464844 C 331.957031 248.261719 327.671875 246.984375 323.761719 248.25 C 301.269531 255.558594 277.15625 256.582031 254.007812 251.222656 C 183.730469 234.964844 139.78125 164.566406 156.039062 94.289062 C 159.046875 81.28125 163.964844 68.898438 170.664062 57.5 C 172.757812 53.953125 172.429688 49.484375 169.847656 46.28125 C 167.277344 43.074219 162.992188 41.792969 159.070312 43.066406 C 134.785156 50.945312 112.746094 64.976562 95.320312 83.621094 C 77.34375 102.847656 64.691406 126.644531 58.722656 152.425781 C 40.003906 233.332031 90.605469 314.402344 171.515625 333.117188 C 203.398438 340.484375 236.046875 337.453125 265.929688 324.324219 C 294.816406 311.648438 319.464844 289.753906 335.355469 262.683594 C 337.4375 259.136719 337.109375 254.667969 334.539062 251.464844 " fill-opacity="1" fill-rule="nonzero"/><path fill="#ffffff" d="M 297.082031 130.648438 C 296.070312 127.128906 292.964844 124.621094 289.300781 124.367188 L 266.367188 122.820312 L 258.160156 101.972656 C 256.855469 98.648438 253.640625 96.453125 250.0625 96.453125 C 246.46875 96.453125 243.265625 98.648438 241.953125 101.972656 L 233.742188 122.820312 L 210.8125 124.367188 C 207.160156 124.621094 204.042969 127.128906 203.03125 130.648438 C 202.019531 134.167969 203.3125 137.957031 206.28125 140.113281 L 224.550781 153.386719 L 217.851562 176.183594 C 216.804688 179.761719 218.144531 183.613281 221.1875 185.765625 C 224.234375 187.910156 228.3125 187.886719 231.332031 185.695312 L 250.0625 172.089844 L 268.78125 185.695312 C 270.3125 186.800781 272.105469 187.363281 273.90625 187.363281 C 275.660156 187.363281 277.414062 186.828125 278.921875 185.765625 C 281.96875 183.613281 283.308594 179.761719 282.261719 176.183594 L 275.5625 153.386719 L 293.828125 140.113281 C 296.800781 137.957031 298.089844 134.167969 297.082031 130.648438 " fill-opacity="1" fill-rule="nonzero"/><g clip-path="url(#13dd5a6013)"><path fill="#ffffff" d="M 243.328125 53.320312 C 242.765625 51.386719 241.0625 50.007812 239.054688 49.863281 L 226.449219 49.023438 L 221.945312 37.570312 C 221.226562 35.738281 219.460938 34.535156 217.5 34.535156 C 215.527344 34.535156 213.773438 35.738281 213.042969 37.570312 L 208.535156 49.023438 L 195.945312 49.863281 C 193.933594 50.007812 192.230469 51.386719 191.667969 53.320312 C 191.109375 55.257812 191.828125 57.328125 193.460938 58.507812 L 203.496094 65.804688 L 199.804688 78.320312 C 199.230469 80.28125 199.976562 82.402344 201.644531 83.582031 C 203.324219 84.765625 205.550781 84.738281 207.21875 83.546875 L 217.5 76.070312 L 227.789062 83.546875 C 228.617188 84.15625 229.601562 84.460938 230.601562 84.460938 C 231.550781 84.460938 232.527344 84.167969 233.355469 83.582031 C 235.023438 82.402344 235.765625 80.28125 235.179688 78.320312 L 231.503906 65.804688 L 241.539062 58.507812 C 243.167969 57.328125 243.886719 55.257812 243.328125 53.320312 " fill-opacity="1" fill-rule="nonzero"/></g><path fill="#ffffff" d="M 336.597656 99.449219 C 336.257812 98.246094 335.195312 97.378906 333.941406 97.296875 L 326.101562 96.773438 L 323.300781 89.648438 C 322.847656 88.503906 321.753906 87.761719 320.535156 87.761719 C 319.304688 87.761719 318.210938 88.503906 317.757812 89.648438 L 314.957031 96.773438 L 307.128906 97.296875 C 305.871094 97.378906 304.800781 98.246094 304.460938 99.449219 C 304.105469 100.644531 304.558594 101.945312 305.570312 102.679688 L 311.816406 107.207031 L 309.527344 115.015625 C 309.160156 116.230469 309.625 117.546875 310.671875 118.277344 C 311.707031 119.019531 313.105469 119.007812 314.128906 118.253906 L 320.535156 113.601562 L 326.929688 118.253906 C 327.453125 118.628906 328.0625 118.824219 328.683594 118.824219 C 329.277344 118.824219 329.886719 118.644531 330.398438 118.277344 C 331.433594 117.546875 331.898438 116.230469 331.542969 115.015625 L 329.242188 107.207031 L 335.488281 102.679688 C 336.5 101.945312 336.949219 100.644531 336.597656 99.449219 " fill-opacity="1" fill-rule="nonzero"/></svg>