<svg version="1.0" preserveAspectRatio="xMidYMid meet" viewBox="0 115.49999722800001 377.25 126.74999695800001" zoomAndPan="magnify" xmlns:xlink="http://www.w3.org/1999/xlink" xmlns="http://www.w3.org/2000/svg" style="max-height: 500px" width="377.25" height="126.74999695800001"><defs><clipPath id="40f21c8bb7"><path clip-rule="nonzero" d="M 73.191406 252.664062 L 77.488281 252.664062 L 77.488281 256.3125 L 73.191406 256.3125 Z M 73.191406 252.664062"/></clipPath><clipPath id="1eb2a80a6e"><path clip-rule="nonzero" d="M 77.476562 253.949219 C 75.523438 257.023438 73.800781 256.425781 73.351562 255.824219 C 72.976562 255.148438 73.351562 253.351562 73.949219 252.824219 C 74.476562 252.375 76.875 253.050781 76.875 253.050781"/></clipPath><clipPath id="4c13a313ab"><path clip-rule="nonzero" d="M 67 122 L 365 122 L 365 224 L 67 224 Z M 67 122"/></clipPath><clipPath id="33d109512d"><path clip-rule="nonzero" d="M 362.226562 117.03125 L 366.257812 217.347656 L 68.917969 229.296875 L 64.886719 128.984375 Z M 362.226562 117.03125"/></clipPath><clipPath id="031412d1cd"><path clip-rule="nonzero" d="M 362.226562 117.03125 L 366.257812 217.347656 L 68.917969 229.296875 L 64.886719 128.984375 Z M 362.226562 117.03125"/></clipPath><clipPath id="6d2bab8d47"><path clip-rule="nonzero" d="M 362.226562 117.03125 L 366.257812 217.347656 L 68.917969 229.296875 L 64.886719 128.984375 Z M 362.226562 117.03125"/></clipPath><clipPath id="ed14d7e07d"><path clip-rule="nonzero" d="M 222 224 L 226 224 L 226 228 L 222 228 Z M 222 224"/></clipPath><clipPath id="b332f3d3f5"><path clip-rule="nonzero" d="M 221.453125 227.109375 L 240.640625 184.984375 L 290.425781 207.664062 L 271.234375 249.789062 Z M 221.453125 227.109375"/></clipPath><clipPath id="fea48da34c"><path clip-rule="nonzero" d="M 221.453125 227.109375 L 240.640625 184.984375 L 290.425781 207.664062 L 271.234375 249.789062 Z M 221.453125 227.109375"/></clipPath><clipPath id="33748d9749"><path clip-rule="nonzero" d="M 286 207 L 290 207 L 290 211 L 286 211 Z M 286 207"/></clipPath><clipPath id="20eb48c5a7"><path clip-rule="nonzero" d="M 221.453125 227.109375 L 240.640625 184.984375 L 290.425781 207.664062 L 271.234375 249.789062 Z M 221.453125 227.109375"/></clipPath><clipPath id="1b99dfe3df"><path clip-rule="nonzero" d="M 221.453125 227.109375 L 240.640625 184.984375 L 290.425781 207.664062 L 271.234375 249.789062 Z M 221.453125 227.109375"/></clipPath><clipPath id="32e2fd5d14"><path clip-rule="nonzero" d="M 264 215 L 268 215 L 268 219 L 264 219 Z M 264 215"/></clipPath><clipPath id="002107b75d"><path clip-rule="nonzero" d="M 221.453125 227.109375 L 240.640625 184.984375 L 290.425781 207.664062 L 271.234375 249.789062 Z M 221.453125 227.109375"/></clipPath><clipPath id="2341be1532"><path clip-rule="nonzero" d="M 221.453125 227.109375 L 240.640625 184.984375 L 290.425781 207.664062 L 271.234375 249.789062 Z M 221.453125 227.109375"/></clipPath><clipPath id="eceee4eb5e"><path clip-rule="nonzero" d="M 246 203 L 250 203 L 250 207 L 246 207 Z M 246 203"/></clipPath><clipPath id="9197510833"><path clip-rule="nonzero" d="M 221.453125 227.109375 L 240.640625 184.984375 L 290.425781 207.664062 L 271.234375 249.789062 Z M 221.453125 227.109375"/></clipPath><clipPath id="f755fb5691"><path clip-rule="nonzero" d="M 221.453125 227.109375 L 240.640625 184.984375 L 290.425781 207.664062 L 271.234375 249.789062 Z M 221.453125 227.109375"/></clipPath><clipPath id="926ddf6c11"><path clip-rule="nonzero" d="M 170 143 L 174 143 L 174 148 L 170 148 Z M 170 143"/></clipPath><clipPath id="9fd46fbb09"><path clip-rule="nonzero" d="M 173.800781 143.695312 L 172.78125 189.972656 L 118.089844 188.765625 L 119.109375 142.488281 Z M 173.800781 143.695312"/></clipPath><clipPath id="29f3a06ff7"><path clip-rule="nonzero" d="M 173.800781 143.695312 L 172.78125 189.972656 L 118.089844 188.765625 L 119.109375 142.488281 Z M 173.800781 143.695312"/></clipPath><clipPath id="693cb52d47"><path clip-rule="nonzero" d="M 118 185 L 122 185 L 122 189 L 118 189 Z M 118 185"/></clipPath><clipPath id="ca7f3161a1"><path clip-rule="nonzero" d="M 173.800781 143.695312 L 172.78125 189.972656 L 118.089844 188.765625 L 119.109375 142.488281 Z M 173.800781 143.695312"/></clipPath><clipPath id="05999b7c31"><path clip-rule="nonzero" d="M 173.800781 143.695312 L 172.78125 189.972656 L 118.089844 188.765625 L 119.109375 142.488281 Z M 173.800781 143.695312"/></clipPath><clipPath id="c76b270e11"><path clip-rule="nonzero" d="M 135 168 L 139 168 L 139 173 L 135 173 Z M 135 168"/></clipPath><clipPath id="b4bedf0559"><path clip-rule="nonzero" d="M 173.800781 143.695312 L 172.78125 189.972656 L 118.089844 188.765625 L 119.109375 142.488281 Z M 173.800781 143.695312"/></clipPath><clipPath id="80253b8f50"><path clip-rule="nonzero" d="M 173.800781 143.695312 L 172.78125 189.972656 L 118.089844 188.765625 L 119.109375 142.488281 Z M 173.800781 143.695312"/></clipPath><clipPath id="02029343ae"><path clip-rule="nonzero" d="M 156 172 L 161 172 L 161 177 L 156 177 Z M 156 172"/></clipPath><clipPath id="a03f5ac2ef"><path clip-rule="nonzero" d="M 173.800781 143.695312 L 172.78125 189.972656 L 118.089844 188.765625 L 119.109375 142.488281 Z M 173.800781 143.695312"/></clipPath><clipPath id="c3c5a2181d"><path clip-rule="nonzero" d="M 173.800781 143.695312 L 172.78125 189.972656 L 118.089844 188.765625 L 119.109375 142.488281 Z M 173.800781 143.695312"/></clipPath><clipPath id="037071cfae"><path clip-rule="nonzero" d="M 241 163 L 246 163 L 246 167 L 241 167 Z M 241 163"/></clipPath><clipPath id="f7b097976b"><path clip-rule="nonzero" d="M 290.464844 140.039062 L 271.117188 180.097656 L 241.34375 165.71875 L 260.691406 125.660156 Z M 290.464844 140.039062"/></clipPath><clipPath id="8dbdb9d2cc"><path clip-rule="nonzero" d="M 310.460938 147.964844 L 290.328125 189.648438 L 241.066406 165.855469 L 261.199219 124.175781 Z M 310.460938 147.964844"/></clipPath><clipPath id="4d56982560"><path clip-rule="nonzero" d="M 263 155 L 268 155 L 268 159 L 263 159 Z M 263 155"/></clipPath><clipPath id="30998c0077"><path clip-rule="nonzero" d="M 290.464844 140.039062 L 271.117188 180.097656 L 241.34375 165.71875 L 260.691406 125.660156 Z M 290.464844 140.039062"/></clipPath><clipPath id="4c336a24c5"><path clip-rule="nonzero" d="M 310.460938 147.964844 L 290.328125 189.648438 L 241.066406 165.855469 L 261.199219 124.175781 Z M 310.460938 147.964844"/></clipPath><clipPath id="d6cabc6ab6"><path clip-rule="nonzero" d="M 343 158 L 347 158 L 347 163 L 343 163 Z M 343 158"/></clipPath><clipPath id="bc089dd3ad"><path clip-rule="nonzero" d="M 346.109375 161.785156 L 305.019531 180.339844 L 295.863281 160.070312 L 336.953125 141.511719 Z M 346.109375 161.785156"/></clipPath><clipPath id="f38b14c4e1"><path clip-rule="nonzero" d="M 347.316406 161.238281 L 305.132812 180.289062 L 282.613281 130.433594 L 324.800781 111.378906 Z M 347.316406 161.238281"/></clipPath><clipPath id="30b31c72dc"><path clip-rule="nonzero" d="M 311 158 L 315 158 L 315 163 L 311 163 Z M 311 158"/></clipPath><clipPath id="2e18d8546d"><path clip-rule="nonzero" d="M 346.109375 161.785156 L 305.019531 180.339844 L 295.863281 160.070312 L 336.953125 141.511719 Z M 346.109375 161.785156"/></clipPath><clipPath id="44820fba20"><path clip-rule="nonzero" d="M 347.316406 161.238281 L 305.132812 180.289062 L 282.613281 130.433594 L 324.800781 111.378906 Z M 347.316406 161.238281"/></clipPath><clipPath id="c74748c6b7"><path clip-rule="nonzero" d="M 320 152 L 324 152 L 324 156 L 320 156 Z M 320 152"/></clipPath><clipPath id="9e6ce13dc7"><path clip-rule="nonzero" d="M 374.992188 159.625 L 336.527344 181.972656 L 319.917969 153.382812 L 358.386719 131.035156 Z M 374.992188 159.625"/></clipPath><clipPath id="1a6eea5d45"><path clip-rule="nonzero" d="M 387.117188 177.394531 L 347.09375 200.644531 L 319.613281 153.34375 L 359.636719 130.089844 Z M 387.117188 177.394531"/></clipPath><clipPath id="b033beb8a7"><path clip-rule="nonzero" d="M 343 158 L 347 158 L 347 162 L 343 162 Z M 343 158"/></clipPath><clipPath id="854fcf4102"><path clip-rule="nonzero" d="M 374.992188 159.625 L 336.527344 181.972656 L 319.917969 153.382812 L 358.386719 131.035156 Z M 374.992188 159.625"/></clipPath><clipPath id="86965e7cd6"><path clip-rule="nonzero" d="M 387.117188 177.394531 L 347.09375 200.644531 L 319.613281 153.34375 L 359.636719 130.089844 Z M 387.117188 177.394531"/></clipPath><clipPath id="8c4209dddf"><path clip-rule="nonzero" d="M 308 187 L 313 187 L 313 191 L 308 191 Z M 308 187"/></clipPath><clipPath id="102efef03a"><path clip-rule="nonzero" d="M 363.105469 181.03125 L 331.648438 212.488281 L 308.269531 189.105469 L 339.726562 157.652344 Z M 363.105469 181.03125"/></clipPath><clipPath id="93a0685c1f"><path clip-rule="nonzero" d="M 379.378906 195.097656 L 346.644531 227.828125 L 307.960938 189.144531 L 340.695312 156.414062 Z M 379.378906 195.097656"/></clipPath><clipPath id="ee90ff27cd"><path clip-rule="nonzero" d="M 332 187 L 336 187 L 336 191 L 332 191 Z M 332 187"/></clipPath><clipPath id="20583b9fae"><path clip-rule="nonzero" d="M 363.105469 181.03125 L 331.648438 212.488281 L 308.269531 189.105469 L 339.726562 157.652344 Z M 363.105469 181.03125"/></clipPath><clipPath id="8c52d70583"><path clip-rule="nonzero" d="M 379.378906 195.097656 L 346.644531 227.828125 L 307.960938 189.144531 L 340.695312 156.414062 Z M 379.378906 195.097656"/></clipPath><clipPath id="a813765cf3"><path clip-rule="nonzero" d="M 179 200 L 183 200 L 183 205 L 179 205 Z M 179 200"/></clipPath><clipPath id="d4ebc11e0b"><path clip-rule="nonzero" d="M 233.449219 212.003906 L 193.492188 231.5625 L 178.957031 201.867188 L 218.910156 182.308594 Z M 233.449219 212.003906"/></clipPath><clipPath id="30ab451387"><path clip-rule="nonzero" d="M 244.28125 230.585938 L 202.707031 250.9375 L 178.652344 201.804688 L 220.230469 181.453125 Z M 244.28125 230.585938"/></clipPath><clipPath id="e8ae7337f2"><path clip-rule="nonzero" d="M 201 208 L 206 208 L 206 212 L 201 212 Z M 201 208"/></clipPath><clipPath id="8f8edac229"><path clip-rule="nonzero" d="M 233.449219 212.003906 L 193.492188 231.5625 L 178.957031 201.867188 L 218.910156 182.308594 Z M 233.449219 212.003906"/></clipPath><clipPath id="43c1c407fa"><path clip-rule="nonzero" d="M 244.28125 230.585938 L 202.707031 250.9375 L 178.652344 201.804688 L 220.230469 181.453125 Z M 244.28125 230.585938"/></clipPath><clipPath id="9eca3d7392"><path clip-rule="nonzero" d="M 75 187 L 80 187 L 80 192 L 75 192 Z M 75 187"/></clipPath><clipPath id="9dee28e1e7"><path clip-rule="nonzero" d="M 129.507812 199.164062 L 89.550781 218.722656 L 75.015625 189.023438 L 114.96875 169.464844 Z M 129.507812 199.164062"/></clipPath><clipPath id="5a739f6df4"><path clip-rule="nonzero" d="M 140.339844 217.746094 L 98.765625 238.097656 L 74.710938 188.960938 L 116.289062 168.609375 Z M 140.339844 217.746094"/></clipPath><clipPath id="d51e46de99"><path clip-rule="nonzero" d="M 97 195 L 102 195 L 102 199 L 97 199 Z M 97 195"/></clipPath><clipPath id="2684fbbcfd"><path clip-rule="nonzero" d="M 129.507812 199.164062 L 89.550781 218.722656 L 75.015625 189.023438 L 114.96875 169.464844 Z M 129.507812 199.164062"/></clipPath><clipPath id="c6e761efed"><path clip-rule="nonzero" d="M 140.339844 217.746094 L 98.765625 238.097656 L 74.710938 188.960938 L 116.289062 168.609375 Z M 140.339844 217.746094"/></clipPath><clipPath id="9f65db2234"><path clip-rule="nonzero" d="M 125 216 L 130 216 L 130 220 L 125 220 Z M 125 216"/></clipPath><clipPath id="b6581ce284"><path clip-rule="nonzero" d="M 178.671875 231.320312 L 137.367188 247.839844 L 125.089844 217.140625 L 166.394531 200.621094 Z M 178.671875 231.320312"/></clipPath><clipPath id="c831147e54"><path clip-rule="nonzero" d="M 188.085938 250.660156 L 145.105469 267.847656 L 124.792969 217.054688 L 167.773438 199.863281 Z M 188.085938 250.660156"/></clipPath><clipPath id="c2f7a9567b"><path clip-rule="nonzero" d="M 147 225 L 151 225 L 151 229 L 147 229 Z M 147 225"/></clipPath><clipPath id="ed94c34916"><path clip-rule="nonzero" d="M 178.671875 231.320312 L 137.367188 247.839844 L 125.089844 217.140625 L 166.394531 200.621094 Z M 178.671875 231.320312"/></clipPath><clipPath id="c58ed5782e"><path clip-rule="nonzero" d="M 188.085938 250.660156 L 145.105469 267.847656 L 124.792969 217.054688 L 167.773438 199.863281 Z M 188.085938 250.660156"/></clipPath><clipPath id="7133cf328d"><path clip-rule="nonzero" d="M 32 192 L 36 192 L 36 196 L 32 196 Z M 32 192"/></clipPath><clipPath id="02c6649df1"><path clip-rule="nonzero" d="M 86.472656 185.945312 L 54.652344 217.765625 L 31.320312 194.429688 L 63.136719 162.609375 Z M 86.472656 185.945312"/></clipPath><clipPath id="1dc8823178"><path clip-rule="nonzero" d="M 102.746094 200.011719 L 69.863281 232.894531 L 31.148438 194.179688 L 64.03125 161.296875 Z M 102.746094 200.011719"/></clipPath><clipPath id="437b45ade3"><path clip-rule="nonzero" d="M 55 192 L 60 192 L 60 196 L 55 196 Z M 55 192"/></clipPath><clipPath id="c0c18365a3"><path clip-rule="nonzero" d="M 86.472656 185.945312 L 54.652344 217.765625 L 31.320312 194.429688 L 63.136719 162.609375 Z M 86.472656 185.945312"/></clipPath><clipPath id="506e914843"><path clip-rule="nonzero" d="M 102.746094 200.011719 L 69.863281 232.894531 L 31.148438 194.179688 L 64.03125 161.296875 Z M 102.746094 200.011719"/></clipPath><clipPath id="b54d402424"><path clip-rule="nonzero" d="M 31 172 L 71 172 L 71 198 L 31 198 Z M 31 172"/></clipPath><clipPath id="0ebb196093"><path clip-rule="nonzero" d="M 70.347656 172.316406 L 68.058594 197.714844 L 31.457031 194.414062 L 33.746094 169.015625 Z M 70.347656 172.316406"/></clipPath><clipPath id="b15bad98b5"><path clip-rule="nonzero" d="M 70.625 172.339844 L 68.335938 197.738281 L 30.242188 194.304688 L 32.53125 168.90625 Z M 70.625 172.339844"/></clipPath><clipPath id="4f6d943864"><path clip-rule="nonzero" d="M 156.414062 180.074219 L 149.410156 257.757812 L -80.65625 237.019531 L -73.652344 159.335938 Z M 156.414062 180.074219"/></clipPath><clipPath id="610fccde77"><path clip-rule="nonzero" d="M 27 178 L 31 178 L 31 182 L 27 182 Z M 27 178"/></clipPath><clipPath id="2f004a225e"><path clip-rule="nonzero" d="M -34.511719 197.75 L -16.09375 157.324219 L 31.503906 179.007812 L 13.085938 219.4375 Z M -34.511719 197.75"/></clipPath><clipPath id="bd3d5d9dba"><path clip-rule="nonzero" d="M -34.511719 197.75 L -16.09375 157.324219 L 31.503906 179.007812 L 13.085938 219.4375 Z M -34.511719 197.75"/></clipPath><clipPath id="e9d81ffef8"><path clip-rule="nonzero" d="M 6 186 L 10 186 L 10 190 L 6 190 Z M 6 186"/></clipPath><clipPath id="258c4c558d"><path clip-rule="nonzero" d="M -34.511719 197.75 L -16.09375 157.324219 L 31.503906 179.007812 L 13.085938 219.4375 Z M -34.511719 197.75"/></clipPath><clipPath id="9b0dc3edd8"><path clip-rule="nonzero" d="M -34.511719 197.75 L -16.09375 157.324219 L 31.503906 179.007812 L 13.085938 219.4375 Z M -34.511719 197.75"/></clipPath><clipPath id="0d3b52e3c3"><path clip-rule="nonzero" d="M 2 187 L 48 187 L 48 220 L 2 220 Z M 2 187"/></clipPath><clipPath id="33351fca9a"><path clip-rule="nonzero" d="M 47.222656 191.601562 L 44.585938 220.859375 L 2.480469 217.0625 L 5.117188 187.804688 Z M 47.222656 191.601562"/></clipPath><clipPath id="147fe2210d"><path clip-rule="nonzero" d="M 143.699219 229.492188 L 151.738281 140.285156 L -112.304688 116.484375 L -120.347656 205.6875 Z M 143.699219 229.492188"/></clipPath><clipPath id="c0cb150b51"><path clip-rule="nonzero" d="M 143.699219 229.492188 L 151.738281 140.285156 L -112.304688 116.484375 L -120.347656 205.6875 Z M 143.699219 229.492188"/></clipPath><clipPath id="f649e0dbac"><path clip-rule="nonzero" d="M 341 186 L 344 186 L 344 189 L 341 189 Z M 341 186"/></clipPath><clipPath id="2c27459243"><path clip-rule="nonzero" d="M 328.292969 204.980469 L 340.121094 179.015625 L 358.511719 187.394531 L 346.683594 213.359375 Z M 328.292969 204.980469"/></clipPath><clipPath id="26b94a3d10"><path clip-rule="nonzero" d="M 307.1875 195.363281 L 322.464844 161.828125 L 361.957031 179.816406 L 346.675781 213.355469 Z M 307.1875 195.363281"/></clipPath><clipPath id="da9661c6a8"><path clip-rule="nonzero" d="M 337 187 L 375 187 L 375 214 L 337 214 Z M 337 187"/></clipPath><clipPath id="56fae7b350"><path clip-rule="nonzero" d="M 374.996094 190.261719 L 372.808594 214.535156 L 337.878906 211.386719 L 340.066406 187.113281 Z M 374.996094 190.261719"/></clipPath><clipPath id="4801493d2b"><path clip-rule="nonzero" d="M 455.03125 221.695312 L 461.699219 147.695312 L 242.652344 127.949219 L 235.980469 201.949219 Z M 455.03125 221.695312"/></clipPath><clipPath id="f5c68edba9"><path clip-rule="nonzero" d="M 455.03125 221.695312 L 461.699219 147.695312 L 242.652344 127.949219 L 235.980469 201.949219 Z M 455.03125 221.695312"/></clipPath></defs><g clip-path="url(#40f21c8bb7)"><g clip-path="url(#1eb2a80a6e)"><path fill-rule="nonzero" fill-opacity="1" d="M 70.351562 249.824219 L 80.480469 249.824219 L 80.480469 259.648438 L 70.351562 259.648438 Z M 70.351562 249.824219" fill="#ffffff"/></g></g><g clip-path="url(#4c13a313ab)"><g clip-path="url(#33d109512d)"><g clip-path="url(#031412d1cd)"><g clip-path="url(#6d2bab8d47)"><path fill-rule="nonzero" fill-opacity="1" d="M 187.449219 222.234375 C 188.519531 221.652344 189.203125 220.851562 189.472656 219.839844 C 189.820312 218.539062 189.578125 217.226562 188.738281 215.949219 C 186.25 212.164062 178.621094 208.988281 168.332031 207.453125 C 161.308594 206.40625 151.414062 205.773438 143.902344 205.414062 C 158.925781 202.898438 173.476562 198.832031 187.496094 194.335938 C 189.664062 195.105469 203.824219 200.054688 214.207031 202.125 C 230.511719 205.378906 239.394531 204.902344 240.609375 200.710938 C 241.007812 199.34375 240.738281 197.976562 239.835938 196.753906 C 237.28125 193.285156 229.679688 190.992188 220 190.769531 C 212.746094 190.605469 202.433594 191.234375 195.363281 191.757812 C 200.335938 190.097656 205.242188 188.410156 210.066406 186.75 C 213.648438 185.515625 217.164062 184.308594 220.648438 183.132812 C 230.730469 182.355469 239.886719 182.613281 248.066406 183.492188 C 249.375 185.234375 255.417969 193.171875 260.476562 198.585938 C 265.09375 203.535156 272.699219 208.953125 276.925781 209.085938 C 277.96875 209.121094 278.804688 208.847656 279.410156 208.277344 C 280.289062 207.445312 280.6875 206.273438 280.5625 204.894531 C 280.167969 200.609375 275.027344 195.113281 270.390625 192.121094 C 266.628906 189.695312 260.144531 186.636719 255.273438 184.460938 C 280.066406 188.484375 294.105469 197.933594 295.269531 198.746094 C 295.996094 199.617188 301.402344 205.988281 307.660156 210.464844 C 311.59375 213.273438 319.390625 217.816406 323.675781 217 C 324.734375 216.800781 325.53125 216.292969 326.050781 215.492188 C 326.644531 214.570312 326.777344 213.449219 326.425781 212.257812 C 325.28125 208.386719 319.425781 204.210938 314.472656 201.972656 C 307.464844 198.808594 297.886719 197.375 296.261719 197.144531 C 295.070312 196.3125 288.441406 191.898438 276.65625 187.820312 C 275.53125 187.433594 274.316406 187.039062 273.054688 186.652344 C 278.488281 187.105469 284.597656 187.570312 288.214844 187.6875 C 294.832031 187.898438 303.066406 188.15625 305.875 185.222656 C 306.636719 184.429688 306.964844 183.4375 306.894531 182.339844 C 306.785156 180.945312 306.09375 179.746094 304.835938 178.765625 C 301.519531 176.191406 294.117188 175.421875 285.976562 176.808594 C 276.761719 178.378906 263.601562 183.097656 261.800781 183.753906 C 252.433594 181.789062 240.902344 180.449219 227.488281 180.890625 C 269.242188 168.011719 315.75 170.300781 318.71875 170.464844 C 320.054688 171.035156 330 175.253906 338.816406 177.753906 C 345.507812 179.652344 357.746094 180.644531 362.371094 177.476562 C 363.523438 176.6875 364.164062 175.683594 364.273438 174.492188 C 364.457031 172.421875 363.664062 170.421875 361.964844 168.703125 C 358.191406 164.894531 350.683594 163.128906 341.359375 163.851562 C 330.316406 164.714844 320.246094 168.09375 318.808594 168.589844 C 316.746094 168.476562 298.691406 167.613281 275.441406 169.855469 C 281.523438 167.285156 290.890625 163.253906 296.15625 160.636719 C 302.558594 157.449219 307.207031 152.871094 308.585938 148.394531 C 309.214844 146.351562 309.097656 144.46875 308.25 142.960938 C 307.640625 141.882812 306.5625 141.195312 305.128906 140.976562 C 300.75 140.308594 292.90625 144.058594 286.878906 149.699219 C 280.167969 155.980469 270.273438 168.601562 268.742188 170.570312 C 254.238281 172.292969 238.222656 175.269531 223.035156 180.339844 C 218.59375 181.824219 214.0625 183.386719 209.453125 184.976562 C 189.925781 191.703125 169.1875 198.839844 147.460938 202.875 C 164.789062 196.136719 182.574219 183.199219 191.269531 173.902344 C 193.296875 173.738281 205.144531 172.785156 213.800781 172.128906 C 220.632812 171.609375 231.945312 169.277344 235.105469 164.976562 C 235.871094 163.933594 236.128906 162.835938 235.863281 161.710938 C 235.566406 160.445312 234.707031 159.375 233.382812 158.613281 C 230.902344 157.195312 225.652344 156.203125 214.726562 159.550781 C 207.613281 161.730469 201.34375 165.042969 196.925781 167.738281 C 204.714844 159.464844 211.363281 153.578125 212.128906 153.023438 C 213.007812 152.605469 228.511719 145.222656 235.023438 141.046875 C 240.089844 137.800781 246.3125 132.441406 247.1875 128.015625 C 247.457031 126.65625 247.234375 125.445312 246.515625 124.421875 C 245.710938 123.277344 244.441406 122.605469 242.835938 122.480469 C 237.699219 122.082031 229.351562 127.3125 224.246094 132.601562 C 217.808594 139.265625 211.300781 150.953125 210.886719 151.699219 C 208.027344 153.796875 198.316406 163.167969 190.894531 171.550781 C 187.832031 175.015625 183.3125 179.09375 177.949219 183.199219 C 181.640625 179.089844 186.019531 174.023438 188.175781 170.835938 C 192.625 164.417969 195.238281 156.167969 194.253906 151.667969 C 193.957031 150.296875 193.335938 149.324219 192.414062 148.773438 C 191.453125 148.203125 190.335938 148.117188 189.191406 148.535156 C 184.539062 150.222656 179.609375 160.121094 177.429688 166.363281 C 174.714844 174.140625 170.9375 186.609375 170.324219 188.652344 C 158.773438 196.351562 144.988281 203.195312 132.988281 205.019531 C 132.960938 205.023438 132.941406 205.039062 132.917969 205.042969 C 132.886719 205.050781 132.851562 205.050781 132.824219 205.0625 C 130.488281 205.324219 128.140625 205.539062 125.78125 205.710938 C 130.304688 203.691406 137.101562 200.527344 141.976562 197.65625 C 147.929688 194.15625 152.722656 188.421875 153.367188 184.027344 C 153.605469 182.417969 153.257812 181.046875 152.359375 180.074219 C 151.503906 179.152344 150.371094 178.699219 148.988281 178.730469 C 143.707031 178.839844 136.226562 186.03125 133.007812 189.816406 C 128.621094 194.976562 121.496094 204.261719 120.140625 206.035156 C 103.546875 206.679688 86.460938 204.847656 68.980469 199.117188 C 68.484375 198.957031 67.953125 199.226562 67.789062 199.71875 C 67.753906 199.828125 67.738281 199.9375 67.746094 200.046875 C 67.761719 200.429688 68.007812 200.777344 68.390625 200.902344 C 90.671875 208.203125 112.265625 209.261719 133.015625 206.941406 C 135.375 208.121094 151.398438 216.0625 162.007812 219.542969 C 171.429688 222.628906 182.953125 224.65625 187.449219 222.234375 Z M 219.957031 192.648438 C 228.789062 192.847656 236.167969 194.945312 238.316406 197.863281 C 238.6875 198.367188 238.882812 198.871094 238.902344 199.386719 C 238.914062 199.652344 238.878906 199.917969 238.800781 200.191406 C 238.148438 202.441406 231.441406 203.648438 214.578125 200.285156 C 207.023438 198.777344 197.410156 195.71875 192.003906 193.902344 C 198.675781 193.363281 211.460938 192.453125 219.957031 192.648438 Z M 269.367188 193.695312 C 274.21875 196.828125 278.398438 201.929688 278.6875 205.0625 C 278.691406 205.132812 278.699219 205.199219 278.699219 205.261719 C 278.730469 205.972656 278.535156 206.515625 278.113281 206.914062 C 277.890625 207.128906 277.507812 207.226562 276.988281 207.210938 C 273.699219 207.109375 266.769531 202.574219 261.851562 197.304688 C 258.175781 193.367188 253.949219 188.050781 251.460938 184.835938 C 256.203125 186.898438 264.910156 190.820312 269.367188 193.695312 Z M 313.691406 203.679688 C 319.113281 206.132812 323.808594 210.046875 324.617188 212.785156 C 324.6875 213.023438 324.726562 213.246094 324.734375 213.453125 C 324.75 213.835938 324.660156 214.175781 324.46875 214.476562 C 324.238281 214.832031 323.863281 215.054688 323.324219 215.15625 C 320.3125 215.726562 313.574219 212.378906 308.757812 208.9375 C 304.464844 205.867188 300.484375 201.757812 298.328125 199.378906 C 301.917969 200.007812 308.609375 201.386719 313.691406 203.679688 Z M 303.679688 180.25 C 304.511719 180.894531 304.949219 181.628906 305.015625 182.488281 C 305.019531 182.515625 305.019531 182.546875 305.019531 182.578125 C 305.042969 183.113281 304.878906 183.546875 304.515625 183.925781 C 302.285156 186.253906 293.855469 185.988281 288.277344 185.8125 C 282.980469 185.640625 272.261719 184.714844 266.28125 184.171875 C 271.238281 182.488281 279.789062 179.769531 286.292969 178.660156 C 293.820312 177.378906 300.804688 178.015625 303.679688 180.25 Z M 288.167969 151.066406 C 293.71875 145.871094 301.042969 142.253906 304.84375 142.832031 C 305.707031 142.964844 306.285156 143.308594 306.609375 143.882812 C 306.90625 144.414062 307.070312 145.023438 307.097656 145.699219 C 307.125 146.359375 307.019531 147.078125 306.785156 147.84375 C 305.835938 150.929688 302.320312 155.46875 295.316406 158.957031 C 289.3125 161.941406 277.894531 166.796875 272.242188 169.167969 C 275.824219 164.671875 282.984375 155.917969 288.167969 151.066406 Z M 360.625 170.023438 C 361.75 171.160156 362.359375 172.429688 362.414062 173.726562 C 362.421875 173.925781 362.414062 174.125 362.394531 174.320312 C 362.339844 174.941406 361.984375 175.464844 361.304688 175.929688 C 357.671875 178.421875 346.511719 177.984375 339.332031 175.949219 C 332.644531 174.050781 325.285156 171.148438 321.632812 169.648438 C 325.402344 168.488281 333.175781 166.375 341.503906 165.726562 C 350.144531 165.050781 357.292969 166.660156 360.625 170.023438 Z M 179.207031 166.980469 C 181.726562 159.761719 186.390625 151.546875 189.832031 150.296875 C 190.453125 150.074219 190.96875 150.101562 191.445312 150.386719 C 191.90625 150.660156 192.230469 151.226562 192.414062 152.066406 C 192.5 152.457031 192.550781 152.886719 192.566406 153.351562 C 192.738281 157.554688 190.269531 164.515625 186.621094 169.777344 C 183.84375 173.878906 177.058594 181.425781 173.214844 185.609375 C 174.683594 180.820312 177.230469 172.640625 179.207031 166.980469 Z M 232.445312 160.242188 C 233.308594 160.738281 233.855469 161.390625 234.03125 162.140625 C 234.054688 162.253906 234.070312 162.367188 234.078125 162.480469 C 234.09375 162.9375 233.933594 163.394531 233.585938 163.867188 C 231.210938 167.101562 221.589844 169.65625 213.660156 170.257812 C 207.097656 170.753906 198.6875 171.421875 194.113281 171.789062 C 198.035156 169.09375 205.917969 164.214844 215.28125 161.347656 C 226.101562 158.03125 230.679688 159.230469 232.445312 160.242188 Z M 225.601562 133.902344 C 230.988281 128.324219 238.65625 124.035156 242.6875 124.351562 C 243.742188 124.433594 244.488281 124.808594 244.972656 125.496094 C 245.246094 125.890625 245.394531 126.328125 245.414062 126.824219 C 245.421875 127.085938 245.398438 127.359375 245.339844 127.652344 C 244.628906 131.25 239.132812 136.183594 234.003906 139.46875 C 229.171875 142.566406 218.945312 147.632812 214.03125 150.019531 C 216.375 146.078125 221.078125 138.589844 225.601562 133.902344 Z M 134.445312 191.03125 C 138.6875 186.039062 145.242188 180.6875 149.027344 180.605469 C 149.859375 180.589844 150.496094 180.832031 150.972656 181.347656 C 151.335938 181.738281 151.53125 182.261719 151.558594 182.910156 C 151.566406 183.171875 151.550781 183.453125 151.507812 183.757812 C 151.027344 187.003906 147.191406 192.410156 141.019531 196.042969 C 135.675781 199.183594 127.953125 202.710938 123.59375 204.625 C 126.375 201.03125 131.183594 194.867188 134.445312 191.03125 Z M 137.441406 207.023438 C 144.554688 207.277344 158.832031 207.9375 168.054688 209.3125 C 177.527344 210.722656 185.03125 213.734375 187.164062 216.980469 C 187.527344 217.535156 187.71875 218.070312 187.742188 218.597656 C 187.75 218.851562 187.722656 219.105469 187.652344 219.355469 C 187.519531 219.855469 187.160156 220.253906 186.554688 220.582031 C 183.140625 222.421875 173.289062 221.261719 162.59375 217.757812 C 154.546875 215.121094 143.296875 209.855469 137.441406 207.023438 Z M 137.441406 207.023438" fill="#000000"/></g></g></g></g><g clip-path="url(#ed14d7e07d)"><g clip-path="url(#b332f3d3f5)"><g clip-path="url(#fea48da34c)"><path fill-rule="nonzero" fill-opacity="1" d="M 224.589844 224.558594 C 223.589844 224.164062 222.46875 224.878906 222.257812 225.75 C 222.082031 226.476562 222.589844 227.101562 222.671875 227.199219 C 222.777344 227.324219 223.328125 227.949219 224.175781 227.863281 C 224.832031 227.796875 225.375 227.335938 225.582031 226.761719 C 225.878906 225.925781 225.449219 224.898438 224.589844 224.558594 Z M 224.589844 224.558594" fill="#000000"/></g></g></g><g clip-path="url(#33748d9749)"><g clip-path="url(#20eb48c5a7)"><g clip-path="url(#1b99dfe3df)"><path fill-rule="nonzero" fill-opacity="1" d="M 287.609375 207.074219 C 286.558594 207.300781 286.023438 208.515625 286.332031 209.359375 C 286.589844 210.058594 287.359375 210.296875 287.484375 210.332031 C 287.640625 210.378906 288.441406 210.589844 289.101562 210.050781 C 289.609375 209.632812 289.804688 208.945312 289.65625 208.351562 C 289.441406 207.492188 288.511719 206.878906 287.609375 207.074219 Z M 287.609375 207.074219" fill="#000000"/></g></g></g><g clip-path="url(#32e2fd5d14)"><g clip-path="url(#002107b75d)"><g clip-path="url(#2341be1532)"><path fill-rule="nonzero" fill-opacity="1" d="M 265.632812 215.378906 C 264.582031 215.605469 264.042969 216.820312 264.355469 217.664062 C 264.613281 218.363281 265.378906 218.601562 265.503906 218.636719 C 265.660156 218.683594 266.464844 218.894531 267.121094 218.355469 C 267.632812 217.9375 267.828125 217.25 267.679688 216.65625 C 267.464844 215.796875 266.535156 215.183594 265.632812 215.378906 Z M 265.632812 215.378906" fill="#000000"/></g></g></g><g clip-path="url(#eceee4eb5e)"><g clip-path="url(#9197510833)"><g clip-path="url(#f755fb5691)"><path fill-rule="nonzero" fill-opacity="1" d="M 248.363281 203.484375 C 247.367188 203.085938 246.246094 203.800781 246.035156 204.671875 C 245.859375 205.398438 246.367188 206.023438 246.449219 206.125 C 246.554688 206.25 247.105469 206.871094 247.949219 206.785156 C 248.605469 206.722656 249.152344 206.257812 249.355469 205.683594 C 249.65625 204.847656 249.222656 203.824219 248.363281 203.484375 Z M 248.363281 203.484375" fill="#000000"/></g></g></g><g clip-path="url(#926ddf6c11)"><g clip-path="url(#9fd46fbb09)"><g clip-path="url(#29f3a06ff7)"><path fill-rule="nonzero" fill-opacity="1" d="M 171.925781 147.273438 C 172.996094 147.242188 173.746094 146.144531 173.597656 145.257812 C 173.46875 144.523438 172.757812 144.148438 172.644531 144.089844 C 172.496094 144.015625 171.746094 143.664062 171.003906 144.074219 C 170.425781 144.390625 170.105469 145.035156 170.144531 145.644531 C 170.199219 146.527344 171 147.300781 171.925781 147.273438 Z M 171.925781 147.273438" fill="#000000"/></g></g></g><g clip-path="url(#693cb52d47)"><g clip-path="url(#ca7f3161a1)"><g clip-path="url(#05999b7c31)"><path fill-rule="nonzero" fill-opacity="1" d="M 120.910156 188.199219 C 121.785156 187.574219 121.796875 186.246094 121.179688 185.59375 C 120.667969 185.050781 119.867188 185.136719 119.738281 185.152344 C 119.578125 185.171875 118.753906 185.292969 118.363281 186.046875 C 118.0625 186.632812 118.152344 187.34375 118.523438 187.828125 C 119.058594 188.535156 120.15625 188.734375 120.90625 188.199219 Z M 120.910156 188.199219" fill="#000000"/></g></g></g><g clip-path="url(#c76b270e11)"><g clip-path="url(#b4bedf0559)"><g clip-path="url(#80253b8f50)"><path fill-rule="nonzero" fill-opacity="1" d="M 137.828125 171.898438 C 138.707031 171.277344 138.71875 169.945312 138.101562 169.292969 C 137.589844 168.753906 136.789062 168.835938 136.660156 168.851562 C 136.5 168.871094 135.675781 168.992188 135.285156 169.746094 C 134.984375 170.335938 135.074219 171.042969 135.445312 171.53125 C 135.980469 172.234375 137.078125 172.433594 137.828125 171.898438 Z M 137.828125 171.898438" fill="#000000"/></g></g></g><g clip-path="url(#02029343ae)"><g clip-path="url(#a03f5ac2ef)"><g clip-path="url(#c3c5a2181d)"><path fill-rule="nonzero" fill-opacity="1" d="M 158.386719 176.019531 C 159.460938 175.988281 160.210938 174.890625 160.0625 174.003906 C 159.933594 173.269531 159.222656 172.894531 159.109375 172.835938 C 158.960938 172.761719 158.210938 172.40625 157.464844 172.820312 C 156.890625 173.136719 156.570312 173.777344 156.609375 174.386719 C 156.664062 175.273438 157.464844 176.046875 158.390625 176.019531 Z M 158.386719 176.019531" fill="#000000"/></g></g></g><g clip-path="url(#037071cfae)"><g clip-path="url(#f7b097976b)"><g clip-path="url(#8dbdb9d2cc)"><path fill-rule="nonzero" fill-opacity="1" d="M 243.871094 166.507812 C 244.925781 166.308594 245.488281 165.105469 245.199219 164.253906 C 244.957031 163.546875 244.191406 163.292969 244.070312 163.253906 C 243.914062 163.203125 243.117188 162.972656 242.445312 163.496094 C 241.925781 163.90625 241.714844 164.589844 241.851562 165.183594 C 242.046875 166.050781 242.960938 166.683594 243.867188 166.507812 Z M 243.871094 166.507812" fill="#000000"/></g></g></g><g clip-path="url(#4d56982560)"><g clip-path="url(#30998c0077)"><g clip-path="url(#4c336a24c5)"><path fill-rule="nonzero" fill-opacity="1" d="M 266.027344 158.699219 C 267.082031 158.5 267.648438 157.292969 267.355469 156.445312 C 267.117188 155.738281 266.351562 155.484375 266.230469 155.445312 C 266.074219 155.394531 265.273438 155.164062 264.605469 155.6875 C 264.085938 156.097656 263.875 156.78125 264.011719 157.375 C 264.207031 158.242188 265.121094 158.875 266.027344 158.699219 Z M 266.027344 158.699219" fill="#000000"/></g></g></g><g clip-path="url(#d6cabc6ab6)"><g clip-path="url(#bc089dd3ad)"><g clip-path="url(#f38b14c4e1)"><path fill-rule="nonzero" fill-opacity="1" d="M 343.277344 161.085938 C 343.769531 162.042969 345.082031 162.246094 345.816406 161.726562 C 346.425781 161.296875 346.457031 160.492188 346.460938 160.363281 C 346.464844 160.199219 346.460938 159.367188 345.765625 158.875 C 345.230469 158.492188 344.515625 158.480469 343.980469 158.777344 C 343.207031 159.210938 342.855469 160.265625 343.277344 161.085938 Z M 343.277344 161.085938" fill="#000000"/></g></g></g><g clip-path="url(#30b31c72dc)"><g clip-path="url(#2e18d8546d)"><g clip-path="url(#44820fba20)"><path fill-rule="nonzero" fill-opacity="1" d="M 311.507812 161.285156 C 312 162.238281 313.3125 162.441406 314.042969 161.921875 C 314.65625 161.492188 314.683594 160.6875 314.6875 160.558594 C 314.691406 160.394531 314.6875 159.5625 313.996094 159.070312 C 313.457031 158.6875 312.742188 158.675781 312.210938 158.972656 C 311.433594 159.40625 311.085938 160.460938 311.507812 161.285156 Z M 311.507812 161.285156" fill="#000000"/></g></g></g><g clip-path="url(#c74748c6b7)"><g clip-path="url(#9e6ce13dc7)"><g clip-path="url(#1a6eea5d45)"><path fill-rule="nonzero" fill-opacity="1" d="M 321.566406 155.453125 C 322.554688 155.875 323.695312 155.195312 323.929688 154.328125 C 324.125 153.605469 323.636719 152.96875 323.558594 152.867188 C 323.457031 152.738281 322.921875 152.101562 322.074219 152.160156 C 321.417969 152.207031 320.859375 152.65625 320.636719 153.222656 C 320.316406 154.050781 320.71875 155.085938 321.566406 155.449219 Z M 321.566406 155.453125" fill="#000000"/></g></g></g><g clip-path="url(#b033beb8a7)"><g clip-path="url(#854fcf4102)"><g clip-path="url(#86965e7cd6)"><path fill-rule="nonzero" fill-opacity="1" d="M 344.296875 161.394531 C 345.285156 161.820312 346.425781 161.136719 346.660156 160.273438 C 346.855469 159.550781 346.367188 158.910156 346.289062 158.808594 C 346.1875 158.683594 345.652344 158.042969 344.808594 158.105469 C 344.148438 158.152344 343.589844 158.597656 343.367188 159.167969 C 343.046875 159.992188 343.449219 161.03125 344.296875 161.394531 Z M 344.296875 161.394531" fill="#000000"/></g></g></g><g clip-path="url(#8c4209dddf)"><g clip-path="url(#102efef03a)"><g clip-path="url(#93a0685c1f)"><path fill-rule="nonzero" fill-opacity="1" d="M 310.390625 190.683594 C 311.457031 190.839844 312.382812 189.890625 312.390625 188.992188 C 312.394531 188.246094 311.757812 187.753906 311.652344 187.675781 C 311.523438 187.578125 310.84375 187.097656 310.039062 187.371094 C 309.417969 187.585938 308.992188 188.160156 308.921875 188.769531 C 308.824219 189.648438 309.476562 190.550781 310.390625 190.683594 Z M 310.390625 190.683594" fill="#000000"/></g></g></g><g clip-path="url(#ee90ff27cd)"><g clip-path="url(#20583b9fae)"><g clip-path="url(#8c52d70583)"><path fill-rule="nonzero" fill-opacity="1" d="M 333.886719 190.605469 C 334.949219 190.761719 335.878906 189.8125 335.882812 188.914062 C 335.886719 188.167969 335.253906 187.675781 335.148438 187.597656 C 335.019531 187.5 334.339844 187.019531 333.535156 187.292969 C 332.910156 187.507812 332.488281 188.082031 332.417969 188.691406 C 332.316406 189.570312 332.972656 190.472656 333.886719 190.605469 Z M 333.886719 190.605469" fill="#000000"/></g></g></g><g clip-path="url(#a813765cf3)"><g clip-path="url(#d4ebc11e0b)"><g clip-path="url(#30ab451387)"><path fill-rule="nonzero" fill-opacity="1" d="M 180.453125 204.046875 C 181.410156 204.539062 182.59375 203.941406 182.890625 203.09375 C 183.136719 202.390625 182.695312 201.714844 182.621094 201.609375 C 182.53125 201.476562 182.042969 200.800781 181.195312 200.800781 C 180.535156 200.800781 179.945312 201.207031 179.683594 201.757812 C 179.304688 202.558594 179.632812 203.625 180.453125 204.046875 Z M 180.453125 204.046875" fill="#000000"/></g></g></g><g clip-path="url(#e8ae7337f2)"><g clip-path="url(#8f8edac229)"><g clip-path="url(#43c1c407fa)"><path fill-rule="nonzero" fill-opacity="1" d="M 202.703125 211.589844 C 203.660156 212.082031 204.847656 211.484375 205.140625 210.636719 C 205.386719 209.933594 204.945312 209.257812 204.875 209.152344 C 204.78125 209.019531 204.296875 208.34375 203.445312 208.34375 C 202.785156 208.34375 202.199219 208.75 201.9375 209.300781 C 201.554688 210.101562 201.882812 211.167969 202.703125 211.589844 Z M 202.703125 211.589844" fill="#000000"/></g></g></g><g clip-path="url(#9eca3d7392)"><g clip-path="url(#9dee28e1e7)"><g clip-path="url(#5a739f6df4)"><path fill-rule="nonzero" fill-opacity="1" d="M 76.511719 191.207031 C 77.46875 191.699219 78.652344 191.101562 78.949219 190.253906 C 79.195312 189.546875 78.753906 188.875 78.679688 188.769531 C 78.589844 188.632812 78.101562 187.957031 77.253906 187.957031 C 76.59375 187.957031 76.003906 188.363281 75.742188 188.917969 C 75.363281 189.71875 75.691406 190.78125 76.511719 191.203125 Z M 76.511719 191.207031" fill="#000000"/></g></g></g><g clip-path="url(#d51e46de99)"><g clip-path="url(#2684fbbcfd)"><g clip-path="url(#c6e761efed)"><path fill-rule="nonzero" fill-opacity="1" d="M 98.761719 198.75 C 99.71875 199.242188 100.90625 198.644531 101.199219 197.796875 C 101.445312 197.089844 101.003906 196.417969 100.933594 196.3125 C 100.839844 196.175781 100.355469 195.5 99.503906 195.5 C 98.84375 195.5 98.257812 195.90625 97.996094 196.460938 C 97.613281 197.261719 97.941406 198.324219 98.761719 198.75 Z M 98.761719 198.75" fill="#000000"/></g></g></g><g clip-path="url(#9f65db2234)"><g clip-path="url(#b6581ce284)"><g clip-path="url(#c831147e54)"><path fill-rule="nonzero" fill-opacity="1" d="M 126.417969 219.425781 C 127.335938 219.988281 128.5625 219.480469 128.921875 218.65625 C 129.21875 217.972656 128.828125 217.269531 128.765625 217.15625 C 128.683594 217.015625 128.25 216.308594 127.402344 216.242188 C 126.742188 216.191406 126.125 216.554688 125.824219 217.085938 C 125.386719 217.855469 125.632812 218.941406 126.417969 219.425781 Z M 126.417969 219.425781" fill="#000000"/></g></g></g><g clip-path="url(#c2f7a9567b)"><g clip-path="url(#ed94c34916)"><g clip-path="url(#c58ed5782e)"><path fill-rule="nonzero" fill-opacity="1" d="M 148.046875 228.609375 C 148.960938 229.171875 150.1875 228.664062 150.546875 227.839844 C 150.84375 227.15625 150.457031 226.453125 150.390625 226.339844 C 150.308594 226.199219 149.875 225.492188 149.027344 225.425781 C 148.367188 225.378906 147.75 225.738281 147.449219 226.269531 C 147.011719 227.039062 147.257812 228.125 148.046875 228.609375 Z M 148.046875 228.609375" fill="#000000"/></g></g></g><g clip-path="url(#7133cf328d)"><g clip-path="url(#02c6649df1)"><g clip-path="url(#1dc8823178)"><path fill-rule="nonzero" fill-opacity="1" d="M 33.757812 195.597656 C 34.820312 195.753906 35.75 194.800781 35.753906 193.902344 C 35.757812 193.15625 35.125 192.664062 35.019531 192.585938 C 34.890625 192.488281 34.210938 192.007812 33.40625 192.285156 C 32.78125 192.496094 32.359375 193.074219 32.289062 193.679688 C 32.1875 194.5625 32.84375 195.460938 33.757812 195.59375 Z M 33.757812 195.597656" fill="#000000"/></g></g></g><g clip-path="url(#437b45ade3)"><g clip-path="url(#c0c18365a3)"><g clip-path="url(#506e914843)"><path fill-rule="nonzero" fill-opacity="1" d="M 57.253906 195.515625 C 58.316406 195.671875 59.246094 194.722656 59.25 193.824219 C 59.257812 193.078125 58.621094 192.585938 58.515625 192.507812 C 58.386719 192.410156 57.707031 191.929688 56.902344 192.207031 C 56.277344 192.417969 55.855469 192.996094 55.785156 193.601562 C 55.683594 194.484375 56.339844 195.382812 57.253906 195.515625 Z M 57.253906 195.515625" fill="#000000"/></g></g></g><g clip-path="url(#b54d402424)"><g clip-path="url(#0ebb196093)"><g clip-path="url(#b15bad98b5)"><g clip-path="url(#4f6d943864)"><path fill-rule="nonzero" fill-opacity="1" d="M 11.289062 243.519531 C 12.171875 243.179688 12.777344 242.628906 13.085938 241.878906 C 13.488281 240.910156 13.429688 239.875 12.914062 238.804688 C 11.378906 235.640625 5.828125 232.425781 -1.9375 230.207031 C -7.234375 228.691406 -14.789062 227.207031 -20.535156 226.175781 C -8.71875 225.75 2.890625 224.082031 14.136719 222.03125 C 15.726562 222.84375 26.128906 228.082031 33.910156 230.722656 C 46.132812 234.871094 53.019531 235.398438 54.375 232.292969 C 54.820312 231.277344 54.75 230.199219 54.179688 229.164062 C 52.5625 226.234375 46.941406 223.703125 39.511719 222.558594 C 33.945312 221.699219 25.949219 221.144531 20.453125 220.835938 C 24.445312 220.058594 28.390625 219.253906 32.273438 218.457031 C 35.15625 217.867188 37.984375 217.292969 40.78125 216.738281 C 48.621094 217.15625 55.644531 218.273438 61.847656 219.777344 C 62.683594 221.25 66.53125 227.972656 69.878906 232.65625 C 72.9375 236.929688 78.242188 241.875 81.484375 242.402344 C 82.285156 242.53125 82.957031 242.40625 83.476562 242.027344 C 84.238281 241.476562 84.664062 240.613281 84.707031 239.535156 C 84.832031 236.195312 81.429688 231.445312 78.164062 228.671875 C 75.511719 226.425781 70.828125 223.417969 67.300781 221.25 C 85.976562 226.847656 95.832031 235.539062 96.644531 236.28125 C 97.117188 237.027344 100.636719 242.476562 105.003906 246.558594 C 107.746094 249.121094 113.289062 253.402344 116.671875 253.207031 C 117.503906 253.160156 118.171875 252.847656 118.652344 252.285156 C 119.203125 251.632812 119.414062 250.78125 119.265625 249.828125 C 118.777344 246.734375 114.691406 242.925781 111.101562 240.699219 C 106.027344 237.558594 98.796875 235.488281 97.570312 235.148438 C 96.738281 234.386719 92.082031 230.320312 83.421875 225.992188 C 82.59375 225.578125 81.699219 225.152344 80.765625 224.726562 C 84.902344 225.625 89.558594 226.597656 92.332031 227.050781 C 97.402344 227.878906 103.714844 228.910156 106.171875 226.933594 C 106.839844 226.394531 107.191406 225.664062 107.246094 224.8125 C 107.300781 223.726562 106.890625 222.734375 106.019531 221.851562 C 103.730469 219.535156 98.109375 218.195312 91.703125 218.445312 C 84.453125 218.726562 73.847656 221.035156 72.394531 221.359375 C 65.382812 218.902344 56.640625 216.710938 46.273438 215.699219 C 79.710938 209.980469 115.277344 216.429688 117.546875 216.855469 C 118.515625 217.429688 125.746094 221.679688 132.28125 224.496094 C 137.238281 226.632812 146.558594 228.628906 150.4375 226.652344 C 151.402344 226.160156 151.996094 225.453125 152.203125 224.546875 C 152.550781 222.96875 152.144531 221.347656 151.007812 219.855469 C 148.488281 216.539062 142.886719 214.421875 135.636719 214.042969 C 127.050781 213.59375 118.957031 215.179688 117.800781 215.417969 C 116.226562 215.125 102.417969 212.640625 84.296875 212.027344 C 89.234375 210.660156 96.851562 208.496094 101.167969 207.011719 C 106.417969 205.199219 110.457031 202.140625 111.96875 198.832031 C 112.65625 197.320312 112.757812 195.859375 112.257812 194.613281 C 111.898438 193.71875 111.136719 193.082031 110.054688 192.769531 C 106.753906 191.8125 100.335938 193.910156 95.128906 197.648438 C 89.328125 201.8125 80.441406 210.542969 79.066406 211.902344 C 67.726562 211.769531 55.101562 212.449219 42.902344 214.828125 C 39.332031 215.523438 35.6875 216.269531 31.980469 217.03125 C 16.273438 220.246094 -0.410156 223.65625 -17.539062 224.578125 C -3.523438 221.128906 11.46875 212.953125 19.097656 206.667969 C 20.675781 206.746094 29.890625 207.207031 36.621094 207.570312 C 41.929688 207.859375 50.875 207.199219 53.738281 204.207031 C 54.433594 203.480469 54.742188 202.660156 54.652344 201.765625 C 54.550781 200.761719 53.996094 199.851562 53.054688 199.132812 C 51.289062 197.789062 47.347656 196.496094 38.601562 197.972656 C 32.90625 198.9375 27.746094 200.855469 24.074219 202.488281 C 30.902344 196.898438 36.613281 193.035156 37.257812 192.683594 C 37.976562 192.449219 50.652344 188.320312 56.085938 185.761719 C 60.3125 183.773438 65.644531 180.269531 66.765625 176.945312 C 67.109375 175.925781 67.054688 174.972656 66.605469 174.109375 C 66.105469 173.148438 65.191406 172.5 63.972656 172.242188 C 60.058594 171.417969 53.105469 174.609375 48.644531 178.167969 C 43.015625 182.65625 36.828125 191.003906 36.4375 191.539062 C 34.023438 192.867188 25.605469 199.105469 19.046875 204.820312 C 16.339844 207.179688 12.449219 209.863281 7.910156 212.488281 C 11.164062 209.695312 15.046875 206.234375 17.027344 203.992188 C 21.097656 199.5 23.941406 193.402344 23.636719 189.839844 C 23.546875 188.753906 23.164062 187.941406 22.511719 187.421875 C 21.828125 186.886719 20.980469 186.707031 20.054688 186.914062 C 16.304688 187.746094 11.511719 194.875 9.207031 199.464844 C 6.332031 205.183594 2.167969 214.410156 1.488281 215.921875 C -8.175781 220.691406 -19.472656 224.574219 -28.898438 224.769531 C -28.917969 224.769531 -28.933594 224.78125 -28.953125 224.78125 C -28.976562 224.785156 -29.003906 224.78125 -29.027344 224.789062 C -30.851562 224.753906 -32.679688 224.683594 -34.511719 224.578125 C -30.828125 223.480469 -25.277344 221.722656 -21.238281 220.003906 C -16.300781 217.90625 -12.035156 213.972656 -11.09375 210.652344 C -10.75 209.433594 -10.878906 208.34375 -11.472656 207.503906 C -12.039062 206.707031 -12.863281 206.246094 -13.933594 206.128906 C -18.007812 205.683594 -24.488281 210.46875 -27.347656 213.058594 C -31.246094 216.59375 -37.664062 223.03125 -38.886719 224.257812 C -51.726562 223.085938 -64.691406 219.953125 -77.570312 213.777344 C -77.933594 213.605469 -78.371094 213.757812 -78.542969 214.121094 C -78.582031 214.203125 -78.605469 214.285156 -78.613281 214.371094 C -78.640625 214.664062 -78.484375 214.957031 -78.203125 215.09375 C -61.785156 222.964844 -45.273438 225.953125 -29.070312 226.253906 C -27.371094 227.398438 -15.839844 235.132812 -8.023438 238.882812 C -1.078125 242.210938 7.585938 244.933594 11.289062 243.519531 Z M 39.292969 224 C 46.070312 225.042969 51.539062 227.402344 52.898438 229.867188 C 53.132812 230.289062 53.230469 230.699219 53.195312 231.097656 C 53.175781 231.304688 53.121094 231.503906 53.035156 231.707031 C 52.304688 233.378906 47.023438 233.632812 34.378906 229.339844 C 28.71875 227.417969 21.628906 224.09375 17.648438 222.152344 C 22.839844 222.40625 32.769531 222.992188 39.292969 224 Z M 77.214844 229.78125 C 80.636719 232.6875 83.339844 237.035156 83.246094 239.480469 C 83.242188 239.53125 83.238281 239.582031 83.234375 239.632812 C 83.1875 240.183594 82.984375 240.582031 82.617188 240.847656 C 82.425781 240.988281 82.121094 241.027344 81.722656 240.960938 C 79.199219 240.550781 74.324219 236.359375 71.070312 231.808594 C 68.636719 228.402344 65.921875 223.882812 64.328125 221.152344 C 67.769531 223.222656 74.074219 227.117188 77.214844 229.78125 Z M 110.328125 241.941406 C 114.253906 244.375 117.472656 247.863281 117.820312 250.054688 C 117.851562 250.246094 117.859375 250.421875 117.84375 250.582031 C 117.816406 250.878906 117.714844 251.128906 117.535156 251.34375 C 117.320312 251.589844 117.011719 251.726562 116.585938 251.75 C 114.210938 251.886719 109.359375 248.628906 106.003906 245.492188 C 103.003906 242.695312 100.355469 239.128906 98.9375 237.078125 C 101.636719 237.921875 106.648438 239.660156 110.328125 241.941406 Z M 104.980469 222.878906 C 105.558594 223.460938 105.820312 224.070312 105.785156 224.738281 C 105.785156 224.761719 105.78125 224.785156 105.78125 224.808594 C 105.742188 225.222656 105.574219 225.539062 105.253906 225.796875 C 103.304688 227.363281 96.84375 226.3125 92.566406 225.613281 C 88.507812 224.949219 80.351562 223.15625 75.800781 222.136719 C 79.789062 221.335938 86.640625 220.101562 91.761719 219.902344 C 97.683594 219.671875 102.996094 220.867188 104.980469 222.878906 Z M 95.984375 198.832031 C 100.78125 195.390625 106.78125 193.339844 109.648438 194.171875 C 110.300781 194.359375 110.707031 194.683594 110.902344 195.15625 C 111.078125 195.59375 111.140625 196.082031 111.09375 196.601562 C 111.046875 197.117188 110.894531 197.660156 110.636719 198.222656 C 109.59375 200.507812 106.433594 203.652344 100.691406 205.632812 C 95.769531 207.328125 86.492188 209.917969 81.902344 211.175781 C 85.113281 208.074219 91.503906 202.046875 95.984375 198.832031 Z M 149.84375 220.738281 C 150.59375 221.722656 150.9375 222.761719 150.847656 223.769531 C 150.832031 223.921875 150.808594 224.074219 150.773438 224.226562 C 150.667969 224.695312 150.339844 225.066406 149.773438 225.355469 C 146.722656 226.90625 138.175781 225.449219 132.859375 223.15625 C 127.902344 221.019531 122.527344 218.042969 119.871094 216.519531 C 122.886719 216.007812 129.085938 215.160156 135.5625 215.5 C 142.277344 215.851562 147.617188 217.808594 149.84375 220.738281 Z M 10.511719 200.121094 C 13.179688 194.8125 17.597656 188.953125 20.371094 188.335938 C 20.871094 188.226562 21.265625 188.300781 21.605469 188.570312 C 21.929688 188.824219 22.125 189.292969 22.179688 189.960938 C 22.207031 190.269531 22.203125 190.605469 22.167969 190.96875 C 21.875 194.21875 19.273438 199.335938 15.933594 203.019531 C 13.386719 205.902344 7.402344 211.03125 4.023438 213.867188 C 5.636719 210.328125 8.421875 204.28125 10.511719 200.121094 Z M 52.167969 200.292969 C 52.78125 200.757812 53.136719 201.320312 53.195312 201.910156 C 53.207031 202.003906 53.207031 202.089844 53.199219 202.179688 C 53.167969 202.535156 52.996094 202.871094 52.679688 203.199219 C 50.527344 205.453125 42.863281 206.449219 36.699219 206.113281 C 31.597656 205.835938 25.058594 205.503906 21.5 205.328125 C 24.789062 203.644531 31.351562 200.679688 38.847656 199.414062 C 47.507812 197.949219 50.910156 199.335938 52.167969 200.292969 Z M 49.554688 179.308594 C 54.261719 175.550781 60.597656 173.023438 63.667969 173.671875 C 64.472656 173.839844 65.007812 174.203125 65.3125 174.785156 C 65.484375 175.113281 65.550781 175.46875 65.515625 175.851562 C 65.5 176.054688 65.453125 176.261719 65.378906 176.480469 C 64.46875 179.183594 59.742188 182.429688 55.460938 184.445312 C 51.429688 186.34375 43.046875 189.214844 39.023438 190.5625 C 41.226562 187.757812 45.601562 182.464844 49.554688 179.308594 Z M -26.367188 214.140625 C -22.59375 210.722656 -17.011719 207.257812 -14.089844 207.578125 C -13.449219 207.648438 -12.980469 207.898438 -12.667969 208.34375 C -12.429688 208.683594 -12.332031 209.105469 -12.375 209.609375 C -12.394531 209.8125 -12.4375 210.027344 -12.5 210.253906 C -13.195312 212.707031 -16.695312 216.488281 -21.808594 218.664062 C -26.238281 220.546875 -32.539062 222.484375 -36.085938 223.523438 C -33.585938 221.03125 -29.261719 216.769531 -26.367188 214.140625 Z M -25.671875 226.761719 C -20.21875 227.675781 -9.296875 229.621094 -2.335938 231.609375 C 4.8125 233.652344 10.285156 236.726562 11.597656 239.441406 C 11.824219 239.90625 11.917969 240.339844 11.878906 240.746094 C 11.863281 240.945312 11.816406 241.136719 11.734375 241.324219 C 11.585938 241.691406 11.265625 241.964844 10.765625 242.15625 C 7.953125 243.230469 0.488281 241.34375 -7.390625 237.566406 C -13.320312 234.726562 -21.449219 229.535156 -25.671875 226.761719 Z M -25.671875 226.761719" fill="#000000"/></g></g></g></g><g clip-path="url(#610fccde77)"><g clip-path="url(#2f004a225e)"><g clip-path="url(#bd3d5d9dba)"><path fill-rule="nonzero" fill-opacity="1" d="M 28.695312 178.613281 C 27.691406 178.828125 27.179688 179.992188 27.476562 180.796875 C 27.722656 181.464844 28.457031 181.695312 28.574219 181.726562 C 28.722656 181.773438 29.492188 181.972656 30.121094 181.460938 C 30.605469 181.058594 30.792969 180.402344 30.652344 179.835938 C 30.445312 179.015625 29.558594 178.425781 28.695312 178.613281 Z M 28.695312 178.613281" fill="#000000"/></g></g></g><g clip-path="url(#e9d81ffef8)"><g clip-path="url(#258c4c558d)"><g clip-path="url(#9b0dc3edd8)"><path fill-rule="nonzero" fill-opacity="1" d="M 7.695312 186.546875 C 6.695312 186.765625 6.179688 187.925781 6.476562 188.730469 C 6.722656 189.398438 7.457031 189.628906 7.574219 189.664062 C 7.726562 189.707031 8.492188 189.910156 9.121094 189.394531 C 9.609375 188.992188 9.796875 188.335938 9.652344 187.769531 C 9.449219 186.949219 8.558594 186.363281 7.699219 186.546875 Z M 7.695312 186.546875" fill="#000000"/></g></g></g><g clip-path="url(#0d3b52e3c3)"><g clip-path="url(#33351fca9a)"><g clip-path="url(#147fe2210d)"><g clip-path="url(#c0cb150b51)"><path fill-rule="nonzero" fill-opacity="1" d="M -7.148438 128.015625 C -6.222656 128.578125 -5.652344 129.324219 -5.457031 130.238281 C -5.203125 131.414062 -5.480469 132.570312 -6.285156 133.671875 C -8.664062 136.9375 -15.59375 139.429688 -24.816406 140.339844 C -31.113281 140.964844 -39.945312 141.089844 -46.644531 141.078125 C -33.390625 143.984375 -20.621094 148.25 -8.347656 152.875 C -6.382812 152.289062 6.4375 148.503906 15.765625 147.117188 C 30.421875 144.941406 38.304688 145.757812 39.195312 149.546875 C 39.488281 150.78125 39.191406 151.988281 38.332031 153.039062 C 35.90625 156.019531 29.042969 157.722656 20.417969 157.492188 C 13.957031 157.320312 4.808594 156.304688 -1.460938 155.523438 C 2.890625 157.222656 7.179688 158.941406 11.402344 160.636719 C 14.53125 161.894531 17.609375 163.125 20.652344 164.328125 C 29.59375 165.46875 37.75 165.644531 45.066406 165.21875 C 46.3125 163.726562 52.039062 156.921875 56.78125 152.316406 C 61.109375 148.113281 68.117188 143.621094 71.886719 143.691406 C 72.816406 143.707031 73.546875 143.988281 74.058594 144.519531 C 74.804688 145.300781 75.105469 146.363281 74.933594 147.585938 C 74.390625 151.386719 69.574219 156.054688 65.3125 158.519531 C 61.859375 160.515625 55.953125 162.953125 51.523438 164.675781 C 73.765625 162.1875 86.675781 154.386719 87.746094 153.71875 C 88.433594 152.972656 93.523438 147.535156 99.296875 143.820312 C 102.917969 141.492188 110.058594 137.789062 113.835938 138.703125 C 114.765625 138.929688 115.457031 139.417969 115.878906 140.152344 C 116.371094 141.003906 116.4375 142.007812 116.070312 143.054688 C 114.882812 146.453125 109.488281 149.914062 104.976562 151.691406 C 98.601562 154.199219 90.015625 155.054688 88.5625 155.1875 C 87.460938 155.875 81.371094 159.515625 70.703125 162.628906 C 69.683594 162.925781 68.582031 163.21875 67.445312 163.511719 C 72.296875 163.34375 77.753906 163.203125 80.980469 163.257812 C 86.875 163.363281 94.214844 163.496094 96.585938 166.234375 C 97.226562 166.976562 97.476562 167.875 97.363281 168.847656 C 97.203125 170.085938 96.535156 171.128906 95.371094 171.941406 C 92.308594 174.09375 85.6875 174.449219 78.503906 172.855469 C 70.375 171.046875 58.875 166.261719 57.300781 165.597656 C 48.878906 166.933594 38.558594 167.617188 26.640625 166.628906 C 63.226562 179.953125 104.707031 179.96875 107.359375 179.957031 C 108.570312 179.507812 117.609375 176.1875 125.566406 174.347656 C 131.601562 172.953125 142.535156 172.609375 146.511719 175.636719 C 147.5 176.390625 148.027344 177.316406 148.070312 178.382812 C 148.140625 180.234375 147.347656 181.984375 145.761719 183.4375 C 142.234375 186.664062 135.472656 187.90625 127.210938 186.847656 C 117.421875 185.59375 108.609375 182.136719 107.355469 181.628906 C 105.515625 181.640625 89.410156 181.609375 68.824219 178.582031 C 74.117188 181.144531 82.273438 185.152344 86.84375 187.71875 C 92.402344 190.839844 96.332031 195.125 97.359375 199.175781 C 97.828125 201.023438 97.644531 202.695312 96.820312 204 C 96.230469 204.933594 95.242188 205.5 93.957031 205.628906 C 90.03125 206.035156 83.214844 202.34375 78.105469 197.050781 C 72.410156 191.15625 64.164062 179.472656 62.890625 177.648438 C 50.0625 175.472656 35.945312 172.113281 22.65625 166.921875 C 18.769531 165.402344 14.808594 163.8125 10.773438 162.191406 C -6.300781 155.332031 -24.4375 148.054688 -43.589844 143.496094 C -28.472656 150.269531 -13.21875 162.585938 -5.898438 171.253906 C -4.097656 171.488281 6.398438 172.863281 14.074219 173.832031 C 20.128906 174.59375 30.09375 177.175781 32.710938 181.144531 C 33.347656 182.113281 33.527344 183.101562 33.242188 184.09375 C 32.921875 185.207031 32.109375 186.121094 30.898438 186.742188 C 28.628906 187.894531 23.910156 188.546875 14.339844 185.082031 C 8.105469 182.820312 2.675781 179.59375 -1.136719 176.996094 C 5.425781 184.714844 11.082031 190.253906 11.734375 190.78125 C 12.5 191.195312 25.96875 198.460938 31.578125 202.46875 C 35.941406 205.582031 41.238281 210.636719 41.824219 214.621094 C 42.003906 215.84375 41.75 216.910156 41.0625 217.792969 C 40.300781 218.777344 39.136719 219.320312 37.703125 219.359375 C 33.117188 219.488281 25.921875 214.457031 21.613281 209.519531 C 16.179688 203.292969 10.90625 192.589844 10.574219 191.910156 C 8.121094 189.910156 -0.101562 181.132812 -6.332031 173.332031 C -8.90625 170.113281 -12.746094 166.277344 -17.335938 162.378906 C -14.234375 166.207031 -10.5625 170.914062 -8.785156 173.851562 C -5.109375 179.765625 -3.152344 187.234375 -4.226562 191.199219 C -4.554688 192.40625 -5.148438 193.246094 -5.996094 193.699219 C -6.875 194.164062 -7.871094 194.191406 -8.871094 193.769531 C -12.9375 192.058594 -16.886719 183.019531 -18.546875 177.363281 C -20.617188 170.308594 -23.421875 159.03125 -23.878906 157.183594 C -33.816406 149.8125 -45.777344 143.105469 -56.375 140.945312 C -56.398438 140.941406 -56.414062 140.929688 -56.4375 140.921875 C -56.464844 140.914062 -56.496094 140.910156 -56.519531 140.902344 C -58.585938 140.566406 -60.664062 140.269531 -62.753906 140.011719 C -58.824219 142.011719 -52.914062 145.132812 -48.703125 147.902344 C -43.5625 151.289062 -39.554688 156.609375 -39.171875 160.554688 C -39.035156 162 -39.402344 163.207031 -40.246094 164.035156 C -41.046875 164.816406 -42.078125 165.167969 -43.304688 165.082031 C -48 164.75 -54.335938 158.011719 -57.03125 154.496094 C -60.707031 149.703125 -66.632812 141.113281 -67.761719 139.472656 C -82.5 138.164062 -97.78125 139.042969 -113.59375 143.375 C -114.039062 143.496094 -114.503906 143.234375 -114.625 142.785156 C -114.652344 142.6875 -114.660156 142.585938 -114.652344 142.488281 C -114.621094 142.152344 -114.382812 141.851562 -114.035156 141.757812 C -93.886719 136.238281 -74.625 136.25 -56.265625 139.234375 C -54.113281 138.289062 -39.503906 131.917969 -29.910156 129.289062 C -21.386719 126.957031 -11.042969 125.65625 -7.148438 128.015625 Z M 20.460938 155.820312 C 28.332031 156.03125 34.988281 154.488281 37.03125 151.984375 C 37.382812 151.550781 37.578125 151.109375 37.621094 150.652344 C 37.640625 150.417969 37.621094 150.175781 37.5625 149.929688 C 37.085938 147.894531 31.171875 146.523438 16.011719 148.777344 C 9.226562 149.785156 0.535156 152.085938 -4.355469 153.464844 C 1.558594 154.242188 12.890625 155.617188 20.460938 155.820312 Z M 64.472656 157.070312 C 68.929688 154.492188 72.878906 150.132812 73.273438 147.351562 C 73.28125 147.292969 73.289062 147.234375 73.292969 147.175781 C 73.351562 146.542969 73.203125 146.050781 72.847656 145.679688 C 72.65625 145.480469 72.320312 145.371094 71.855469 145.363281 C 68.925781 145.308594 62.558594 149.046875 57.949219 153.519531 C 54.5 156.867188 50.507812 161.417969 48.148438 164.171875 C 52.460938 162.542969 60.378906 159.433594 64.472656 157.070312 Z M 104.359375 150.132812 C 109.292969 148.1875 113.644531 144.910156 114.488281 142.503906 C 114.558594 142.292969 114.605469 142.097656 114.621094 141.914062 C 114.652344 141.570312 114.585938 141.265625 114.425781 140.988281 C 114.238281 140.664062 113.914062 140.449219 113.441406 140.332031 C 110.785156 139.691406 104.640625 142.378906 100.203125 145.230469 C 96.246094 147.777344 92.523438 151.261719 90.496094 153.289062 C 93.71875 152.886719 99.738281 151.953125 104.359375 150.132812 Z M 94.410156 170.570312 C 95.179688 170.03125 95.601562 169.398438 95.699219 168.636719 C 95.703125 168.609375 95.703125 168.582031 95.707031 168.554688 C 95.75 168.078125 95.625 167.6875 95.316406 167.332031 C 93.433594 165.15625 85.921875 165.023438 80.953125 164.933594 C 76.230469 164.851562 66.652344 165.199219 61.304688 165.417969 C 65.644531 167.140625 73.128906 169.941406 78.867188 171.21875 C 85.507812 172.695312 91.753906 172.433594 94.410156 170.570312 Z M 79.308594 195.890625 C 84.019531 200.765625 90.378906 204.3125 93.78125 203.964844 C 94.558594 203.882812 95.085938 203.605469 95.402344 203.105469 C 95.691406 202.648438 95.863281 202.113281 95.917969 201.511719 C 95.96875 200.925781 95.910156 200.277344 95.734375 199.585938 C 95.023438 196.792969 92.101562 192.59375 86.023438 189.175781 C 80.8125 186.25 70.867188 181.417969 65.945312 179.058594 C 68.933594 183.21875 74.914062 191.339844 79.308594 195.890625 Z M 144.628906 182.203125 C 145.679688 181.242188 146.277344 180.136719 146.382812 178.980469 C 146.398438 178.804688 146.402344 178.628906 146.394531 178.449219 C 146.371094 177.898438 146.078125 177.414062 145.496094 176.96875 C 142.371094 174.589844 132.421875 174.484375 125.945312 175.980469 C 119.910156 177.375 113.230469 179.636719 109.914062 180.8125 C 113.214844 182.011719 120.039062 184.242188 127.421875 185.1875 C 135.082031 186.167969 141.511719 185.050781 144.628906 182.203125 Z M -16.9375 176.886719 C -15.015625 183.433594 -11.230469 190.957031 -8.222656 192.226562 C -7.679688 192.453125 -7.222656 192.449219 -6.785156 192.214844 C -6.363281 191.992188 -6.046875 191.503906 -5.847656 190.761719 C -5.753906 190.417969 -5.691406 190.039062 -5.652344 189.625 C -5.316406 185.886719 -7.203125 179.574219 -10.21875 174.726562 C -12.503906 170.945312 -18.207031 163.921875 -21.441406 160.023438 C -20.347656 164.355469 -18.445312 171.757812 -16.9375 176.886719 Z M 30.136719 185.246094 C 30.925781 184.84375 31.441406 184.285156 31.628906 183.628906 C 31.660156 183.527344 31.675781 183.425781 31.6875 183.324219 C 31.722656 182.917969 31.597656 182.503906 31.3125 182.066406 C 29.34375 179.082031 20.894531 176.378906 13.863281 175.492188 C 8.046875 174.757812 0.59375 173.792969 -3.460938 173.261719 C -0.0898438 175.839844 6.707031 180.535156 14.914062 183.503906 C 24.390625 186.9375 28.519531 186.070312 30.136719 185.246094 Z M 22.875 208.417969 C 27.421875 213.628906 34.054688 217.785156 37.65625 217.683594 C 38.597656 217.65625 39.277344 217.359375 39.738281 216.765625 C 40 216.425781 40.152344 216.042969 40.191406 215.601562 C 40.210938 215.371094 40.203125 215.125 40.164062 214.859375 C 39.6875 211.621094 35.019531 206.984375 30.601562 203.828125 C 26.4375 200.855469 17.5625 195.886719 13.296875 193.542969 C 15.207031 197.160156 19.058594 204.042969 22.875 208.417969 Z M -55.699219 153.476562 C -52.144531 158.113281 -46.550781 163.171875 -43.1875 163.410156 C -42.449219 163.464844 -41.871094 163.277344 -41.421875 162.835938 C -41.082031 162.503906 -40.886719 162.046875 -40.832031 161.46875 C -40.8125 161.234375 -40.816406 160.984375 -40.839844 160.714844 C -41.121094 157.800781 -44.296875 152.8125 -49.628906 149.300781 C -54.242188 146.265625 -60.960938 142.78125 -64.75 140.882812 C -62.4375 144.207031 -58.433594 149.914062 -55.699219 153.476562 Z M -52.324219 139.359375 C -45.980469 139.445312 -33.25 139.492188 -24.980469 138.675781 C -16.488281 137.832031 -9.679688 135.484375 -7.636719 132.6875 C -7.289062 132.207031 -7.09375 131.738281 -7.050781 131.265625 C -7.03125 131.042969 -7.046875 130.816406 -7.097656 130.589844 C -7.191406 130.140625 -7.492188 129.765625 -8.019531 129.449219 C -10.972656 127.65625 -19.792969 128.257812 -29.464844 130.90625 C -36.742188 132.898438 -46.988281 137.09375 -52.324219 139.359375 Z M -52.324219 139.359375" fill="#000000"/></g></g></g></g><g clip-path="url(#f649e0dbac)"><g clip-path="url(#2c27459243)"><g clip-path="url(#26b94a3d10)"><path fill-rule="nonzero" fill-opacity="1" d="M 342.203125 186.070312 C 341.371094 186.25 340.945312 187.214844 341.191406 187.882812 C 341.398438 188.4375 342.003906 188.628906 342.105469 188.65625 C 342.226562 188.691406 342.863281 188.859375 343.386719 188.433594 C 343.789062 188.101562 343.945312 187.554688 343.828125 187.085938 C 343.65625 186.402344 342.921875 185.917969 342.207031 186.070312 Z M 342.203125 186.070312" fill="#000000"/></g></g></g><g clip-path="url(#da9661c6a8)"><g clip-path="url(#56fae7b350)"><g clip-path="url(#4801493d2b)"><g clip-path="url(#f5c68edba9)"><path fill-rule="nonzero" fill-opacity="1" d="M 329.890625 137.515625 C 330.65625 137.984375 331.128906 138.601562 331.292969 139.359375 C 331.503906 140.335938 331.273438 141.292969 330.605469 142.207031 C 328.632812 144.914062 322.882812 146.984375 315.230469 147.738281 C 310.007812 148.253906 302.679688 148.359375 297.121094 148.351562 C 308.121094 150.761719 318.710938 154.300781 328.894531 158.140625 C 330.523438 157.652344 341.160156 154.511719 348.898438 153.363281 C 361.054688 151.554688 367.59375 152.234375 368.335938 155.375 C 368.578125 156.402344 368.332031 157.402344 367.621094 158.273438 C 365.605469 160.746094 359.910156 162.160156 352.757812 161.96875 C 347.394531 161.824219 339.808594 160.984375 334.609375 160.335938 C 338.21875 161.746094 341.773438 163.171875 345.277344 164.578125 C 347.875 165.621094 350.425781 166.640625 352.953125 167.640625 C 360.371094 168.585938 367.136719 168.730469 373.207031 168.378906 C 374.238281 167.140625 378.988281 161.496094 382.921875 157.675781 C 386.515625 154.1875 392.328125 150.460938 395.453125 150.519531 C 396.226562 150.53125 396.832031 150.765625 397.257812 151.207031 C 397.875 151.855469 398.125 152.738281 397.984375 153.75 C 397.535156 156.90625 393.535156 160.777344 390.003906 162.820312 C 387.136719 164.476562 382.238281 166.496094 378.5625 167.925781 C 397.011719 165.863281 407.722656 159.394531 408.613281 158.835938 C 409.183594 158.21875 413.40625 153.707031 418.191406 150.628906 C 421.199219 148.695312 427.121094 145.625 430.253906 146.382812 C 431.027344 146.570312 431.597656 146.976562 431.953125 147.585938 C 432.359375 148.289062 432.414062 149.121094 432.109375 149.992188 C 431.125 152.808594 426.648438 155.679688 422.90625 157.15625 C 417.617188 159.238281 410.492188 159.945312 409.289062 160.054688 C 408.375 160.625 403.320312 163.644531 394.472656 166.226562 C 393.628906 166.476562 392.714844 166.71875 391.769531 166.960938 C 395.796875 166.824219 400.324219 166.703125 403 166.75 C 407.890625 166.839844 413.976562 166.949219 415.945312 169.222656 C 416.476562 169.835938 416.683594 170.582031 416.589844 171.390625 C 416.457031 172.417969 415.902344 173.28125 414.9375 173.957031 C 412.398438 175.738281 406.902344 176.035156 400.945312 174.710938 C 394.203125 173.214844 384.660156 169.242188 383.355469 168.691406 C 376.367188 169.800781 367.804688 170.367188 357.917969 169.546875 C 388.269531 180.601562 422.683594 180.617188 424.882812 180.605469 C 425.886719 180.230469 433.386719 177.476562 439.984375 175.953125 C 444.996094 174.796875 454.066406 174.511719 457.363281 177.023438 C 458.183594 177.648438 458.621094 178.414062 458.65625 179.296875 C 458.714844 180.835938 458.058594 182.285156 456.742188 183.492188 C 453.816406 186.167969 448.207031 187.199219 441.351562 186.324219 C 433.230469 185.28125 425.921875 182.414062 424.878906 181.992188 C 423.351562 182 409.992188 181.976562 392.914062 179.464844 C 397.304688 181.589844 404.074219 184.914062 407.863281 187.042969 C 412.472656 189.632812 415.734375 193.1875 416.585938 196.546875 C 416.976562 198.082031 416.820312 199.46875 416.140625 200.550781 C 415.652344 201.328125 414.828125 201.792969 413.761719 201.902344 C 410.507812 202.238281 404.851562 199.175781 400.613281 194.785156 C 395.890625 189.894531 389.050781 180.203125 387.992188 178.691406 C 377.351562 176.886719 365.636719 174.097656 354.613281 169.789062 C 351.390625 168.53125 348.101562 167.210938 344.757812 165.867188 C 330.59375 160.175781 315.546875 154.136719 299.65625 150.359375 C 312.199219 155.976562 324.851562 166.191406 330.925781 173.386719 C 332.417969 173.582031 341.128906 174.71875 347.492188 175.523438 C 352.519531 176.15625 360.78125 178.296875 362.957031 181.589844 C 363.484375 182.390625 363.632812 183.210938 363.398438 184.035156 C 363.128906 184.960938 362.457031 185.71875 361.453125 186.230469 C 359.566406 187.191406 355.65625 187.730469 347.714844 184.855469 C 342.542969 182.980469 338.039062 180.304688 334.875 178.148438 C 340.320312 184.550781 345.011719 189.144531 345.554688 189.585938 C 346.191406 189.925781 357.363281 195.953125 362.015625 199.277344 C 365.632812 201.863281 370.03125 206.054688 370.515625 209.359375 C 370.664062 210.375 370.453125 211.261719 369.886719 211.992188 C 369.25 212.808594 368.285156 213.257812 367.097656 213.292969 C 363.292969 213.398438 357.324219 209.226562 353.75 205.128906 C 349.242188 199.964844 344.867188 191.085938 344.589844 190.519531 C 342.558594 188.863281 335.734375 181.578125 330.566406 175.109375 C 328.429688 172.4375 325.246094 169.253906 321.4375 166.023438 C 324.011719 169.199219 327.054688 173.101562 328.53125 175.539062 C 331.578125 180.445312 333.203125 186.640625 332.3125 189.929688 C 332.042969 190.933594 331.546875 191.628906 330.84375 192.003906 C 330.113281 192.390625 329.289062 192.410156 328.460938 192.0625 C 325.085938 190.644531 321.8125 183.144531 320.433594 178.453125 C 318.714844 172.601562 316.386719 163.246094 316.007812 161.710938 C 307.765625 155.597656 297.84375 150.03125 289.050781 148.242188 C 289.03125 148.238281 289.015625 148.226562 289 148.222656 C 288.976562 148.214844 288.953125 148.214844 288.929688 148.203125 C 287.214844 147.925781 285.492188 147.679688 283.757812 147.46875 C 287.019531 149.125 291.921875 151.714844 295.414062 154.015625 C 299.679688 156.824219 303.007812 161.234375 303.324219 164.507812 C 303.4375 165.707031 303.132812 166.707031 302.429688 167.394531 C 301.765625 168.042969 300.914062 168.335938 299.894531 168.265625 C 296 167.988281 290.742188 162.398438 288.507812 159.484375 C 285.457031 155.507812 280.539062 148.382812 279.605469 147.019531 C 267.378906 145.933594 254.699219 146.660156 241.582031 150.253906 C 241.210938 150.355469 240.828125 150.136719 240.726562 149.769531 C 240.707031 149.6875 240.699219 149.605469 240.707031 149.523438 C 240.730469 149.242188 240.925781 148.992188 241.214844 148.914062 C 257.933594 144.335938 273.910156 144.347656 289.140625 146.824219 C 290.925781 146.039062 303.046875 140.753906 311.007812 138.570312 C 318.078125 136.636719 326.660156 135.558594 329.890625 137.515625 Z M 352.792969 160.578125 C 359.320312 160.753906 364.847656 159.476562 366.539062 157.398438 C 366.832031 157.039062 366.992188 156.675781 367.027344 156.292969 C 367.046875 156.097656 367.03125 155.898438 366.980469 155.695312 C 366.582031 154.007812 361.679688 152.867188 349.105469 154.738281 C 343.472656 155.574219 336.265625 157.484375 332.207031 158.625 C 337.113281 159.269531 346.515625 160.410156 352.792969 160.578125 Z M 389.304688 161.617188 C 393.003906 159.480469 396.277344 155.863281 396.605469 153.554688 C 396.613281 153.507812 396.617188 153.457031 396.621094 153.410156 C 396.667969 152.886719 396.546875 152.476562 396.25 152.167969 C 396.09375 152 395.816406 151.914062 395.429688 151.90625 C 393 151.863281 387.71875 154.960938 383.890625 158.671875 C 381.03125 161.449219 377.71875 165.226562 375.761719 167.511719 C 379.339844 166.160156 385.910156 163.582031 389.304688 161.617188 Z M 422.394531 155.863281 C 426.484375 154.25 430.097656 151.527344 430.796875 149.53125 C 430.855469 149.359375 430.894531 149.195312 430.90625 149.042969 C 430.933594 148.761719 430.878906 148.507812 430.746094 148.277344 C 430.589844 148.007812 430.320312 147.828125 429.929688 147.734375 C 427.726562 147.199219 422.628906 149.429688 418.945312 151.796875 C 415.664062 153.910156 412.574219 156.800781 410.894531 158.480469 C 413.566406 158.148438 418.558594 157.375 422.394531 155.863281 Z M 414.140625 172.820312 C 414.777344 172.371094 415.128906 171.84375 415.210938 171.214844 C 415.210938 171.191406 415.214844 171.167969 415.214844 171.144531 C 415.253906 170.75 415.148438 170.425781 414.890625 170.128906 C 413.332031 168.328125 407.101562 168.214844 402.976562 168.140625 C 399.058594 168.070312 391.113281 168.363281 386.675781 168.542969 C 390.277344 169.972656 396.484375 172.296875 401.246094 173.355469 C 406.753906 174.578125 411.9375 174.363281 414.140625 172.820312 Z M 401.613281 193.824219 C 405.519531 197.867188 410.792969 200.8125 413.621094 200.519531 C 414.261719 200.453125 414.703125 200.222656 414.960938 199.808594 C 415.203125 199.429688 415.34375 198.984375 415.390625 198.488281 C 415.433594 198 415.382812 197.460938 415.238281 196.890625 C 414.652344 194.574219 412.226562 191.085938 407.179688 188.253906 C 402.863281 185.824219 394.609375 181.816406 390.527344 179.859375 C 393.003906 183.3125 397.96875 190.046875 401.613281 193.824219 Z M 455.800781 182.464844 C 456.671875 181.667969 457.167969 180.753906 457.253906 179.796875 C 457.269531 179.648438 457.269531 179.503906 457.265625 179.355469 C 457.246094 178.894531 457.003906 178.496094 456.519531 178.125 C 453.925781 176.152344 445.671875 176.066406 440.300781 177.304688 C 435.292969 178.460938 429.753906 180.339844 427.003906 181.316406 C 429.742188 182.308594 435.402344 184.15625 441.527344 184.941406 C 447.878906 185.757812 453.214844 184.832031 455.800781 182.464844 Z M 321.765625 178.058594 C 323.363281 183.488281 326.503906 189.730469 328.996094 190.78125 C 329.449219 190.972656 329.828125 190.96875 330.191406 190.773438 C 330.542969 190.589844 330.800781 190.183594 330.96875 189.566406 C 331.046875 189.28125 331.097656 188.96875 331.128906 188.625 C 331.410156 185.523438 329.84375 180.285156 327.34375 176.265625 C 325.445312 173.128906 320.714844 167.300781 318.03125 164.070312 C 318.9375 167.660156 320.519531 173.804688 321.765625 178.058594 Z M 360.820312 184.992188 C 361.472656 184.660156 361.902344 184.195312 362.058594 183.648438 C 362.082031 183.566406 362.097656 183.484375 362.105469 183.398438 C 362.136719 183.0625 362.035156 182.71875 361.796875 182.355469 C 360.160156 179.878906 353.152344 177.636719 347.320312 176.902344 C 342.496094 176.292969 336.3125 175.488281 332.949219 175.050781 C 335.742188 177.1875 341.382812 181.082031 348.191406 183.546875 C 356.054688 186.394531 359.476562 185.675781 360.820312 184.992188 Z M 354.796875 204.214844 C 358.566406 208.539062 364.070312 211.988281 367.058594 211.902344 C 367.839844 211.878906 368.40625 211.632812 368.785156 211.140625 C 369.003906 210.859375 369.128906 210.539062 369.160156 210.175781 C 369.179688 209.980469 369.171875 209.777344 369.136719 209.558594 C 368.746094 206.875 364.871094 203.027344 361.207031 200.40625 C 357.753906 197.941406 350.386719 193.820312 346.847656 191.875 C 348.433594 194.875 351.632812 200.585938 354.796875 204.214844 Z M 289.609375 158.636719 C 292.558594 162.484375 297.199219 166.679688 299.992188 166.878906 C 300.605469 166.921875 301.085938 166.765625 301.457031 166.402344 C 301.738281 166.125 301.902344 165.746094 301.945312 165.265625 C 301.960938 165.074219 301.957031 164.867188 301.9375 164.640625 C 301.703125 162.222656 299.070312 158.085938 294.648438 155.171875 C 290.820312 152.652344 285.25 149.765625 282.101562 148.1875 C 284.023438 150.949219 287.34375 155.679688 289.609375 158.636719 Z M 292.410156 146.925781 C 297.671875 146.996094 308.234375 147.035156 315.09375 146.355469 C 322.140625 145.660156 327.789062 143.710938 329.480469 141.390625 C 329.773438 140.992188 329.933594 140.601562 329.96875 140.210938 C 329.984375 140.027344 329.972656 139.839844 329.933594 139.648438 C 329.851562 139.277344 329.601562 138.96875 329.167969 138.703125 C 326.714844 137.21875 319.398438 137.714844 311.375 139.914062 C 305.339844 141.566406 296.839844 145.046875 292.410156 146.925781 Z M 292.410156 146.925781" fill="#000000"/></g></g></g></g></svg>