<svg xmlns="http://www.w3.org/2000/svg" xmlns:xlink="http://www.w3.org/1999/xlink" width="500" zoomAndPan="magnify" viewBox="0 0 375 374.999991" height="500" preserveAspectRatio="xMidYMid meet" version="1.0"><defs><clipPath id="af5c90e2af"><path d="M 18.75 18.75 L 356.109375 18.75 L 356.109375 356.109375 L 18.75 356.109375 Z M 18.75 18.75 " clip-rule="nonzero"/></clipPath></defs><g clip-path="url(#af5c90e2af)"><path fill="#ffffff" d="M 155.8125 18.75 C 79.300781 19.597656 17.902344 82.359375 18.75 158.917969 C 19.597656 235.433594 82.3125 296.828125 158.871094 295.980469 C 187.171875 295.652344 214.667969 286.707031 237.691406 270.320312 L 316.886719 349.46875 C 325.925781 358.414062 340.570312 358.320312 349.515625 349.234375 C 358.367188 340.289062 358.367188 325.832031 349.515625 316.839844 L 270.320312 237.691406 C 314.675781 175.304688 300.078125 88.765625 237.691406 44.410156 C 213.820312 27.414062 185.144531 18.421875 155.8125 18.75 Z M 154.164062 42.761719 C 217.398438 40.972656 270.085938 90.789062 271.828125 154.023438 C 271.875 155.152344 271.875 156.234375 271.875 157.367188 C 271.921875 220.601562 220.648438 271.875 157.414062 271.921875 C 94.179688 271.921875 42.902344 220.695312 42.855469 157.460938 C 42.855469 157.414062 42.855469 157.414062 42.855469 157.367188 C 42.761719 95.308594 92.15625 44.503906 154.164062 42.761719 " fill-opacity="1" fill-rule="nonzero"/></g><path fill="#ffffff" d="M 126.480469 72.425781 C 132.742188 70.214844 139.617188 73.460938 141.875 79.722656 C 144.089844 85.9375 140.886719 92.8125 134.71875 95.074219 C 108.539062 104.632812 91.070312 129.492188 91.070312 157.367188 C 91.070312 164.003906 85.703125 169.417969 79.019531 169.417969 C 72.378906 169.417969 66.964844 164.003906 66.964844 157.367188 C 66.964844 119.367188 90.742188 85.421875 126.480469 72.425781 " fill-opacity="1" fill-rule="nonzero"/></svg>