<svg xmlns="http://www.w3.org/2000/svg" xmlns:xlink="http://www.w3.org/1999/xlink" width="500" zoomAndPan="magnify" viewBox="0 0 375 374.999991" height="500" preserveAspectRatio="xMidYMid meet" version="1.0"><defs><clipPath id="4b17aa9a3d"><path d="M 20 55 L 330 55 L 330 353 L 20 353 Z M 20 55 " clip-rule="nonzero"/></clipPath><clipPath id="2563f4db76"><path d="M 13.667969 138.4375 L 230.511719 -53.367188 L 426.289062 167.972656 L 209.445312 359.777344 Z M 13.667969 138.4375 " clip-rule="nonzero"/></clipPath><clipPath id="4b21ebfaf5"><path d="M 13.667969 138.4375 L 230.511719 -53.367188 L 426.289062 167.972656 L 209.445312 359.777344 Z M 13.667969 138.4375 " clip-rule="nonzero"/></clipPath></defs><g clip-path="url(#4b17aa9a3d)"><g clip-path="url(#2563f4db76)"><g clip-path="url(#4b21ebfaf5)"><path fill="#ffffff" d="M 214.675781 348.515625 C 214.675781 348.515625 328.960938 64.816406 328.960938 64.816406 C 331.027344 60.085938 326.242188 54.558594 321.242188 56.089844 L 25.710938 134.878906 C 20.273438 136.167969 19.128906 144.144531 24.125 146.8125 C 24.125 146.8125 147.019531 217.972656 147.019531 217.972656 L 202.644531 348.636719 C 204.664062 353.847656 212.761719 353.824219 214.675781 348.515625 Z M 44.261719 143.417969 L 297.941406 75.785156 L 151.367188 205.429688 Z M 160 215.1875 L 306.570312 85.542969 L 208.472656 329.0625 Z M 160 215.1875 " fill-opacity="1" fill-rule="nonzero"/></g></g></g></svg>