<svg xmlns="http://www.w3.org/2000/svg" xmlns:xlink="http://www.w3.org/1999/xlink" width="500" zoomAndPan="magnify" viewBox="0 0 375 374.999991" height="500" preserveAspectRatio="xMidYMid meet" version="1.0"><path fill="#ffffff" d="M 275.363281 187.207031 C 275.363281 236.945312 240.882812 276.476562 191.148438 276.476562 C 141.410156 276.476562 99.632812 240.035156 99.632812 190.296875 C 99.632812 140.558594 137.371094 104.117188 187.109375 104.117188 C 240.824219 104.117188 275.363281 137.472656 275.363281 187.207031 Z M 194.9375 10.21875 C 192.214844 6.007812 180.847656 5.585938 177.757812 10.359375 C 174.582031 15.269531 177.449219 82.925781 186.351562 82.925781 C 196.082031 82.921875 197.285156 13.847656 194.9375 10.21875 Z M 103.902344 30.625 C 99.4375 28.339844 89.382812 33.660156 89.09375 39.335938 C 88.796875 45.175781 125.109375 102.335938 132.816406 97.882812 C 141.242188 93.015625 107.75 32.59375 103.902344 30.625 Z M 35.265625 93.816406 C 30.257812 94.066406 24.207031 103.703125 26.796875 108.761719 C 29.460938 113.96875 89.488281 145.3125 93.9375 137.605469 C 98.800781 129.175781 39.582031 93.597656 35.265625 93.816406 Z M 7.417969 182.859375 C 3.207031 185.578125 2.785156 196.949219 7.558594 200.035156 C 12.46875 203.214844 80.125 200.34375 80.125 191.445312 C 80.125 181.714844 11.050781 180.511719 7.417969 182.859375 Z M 27.824219 273.894531 C 25.539062 278.355469 30.859375 288.414062 36.535156 288.703125 C 42.378906 289 99.535156 252.683594 95.085938 244.976562 C 90.21875 236.550781 29.796875 270.046875 27.824219 273.894531 Z M 91.015625 342.53125 C 91.269531 347.539062 100.902344 353.585938 105.964844 351 C 111.171875 348.335938 142.515625 288.308594 134.804688 283.859375 C 126.378906 278.996094 90.796875 338.210938 91.015625 342.53125 Z M 180.058594 370.375 C 182.78125 374.585938 194.148438 375.007812 197.238281 370.238281 C 200.414062 365.324219 197.546875 297.667969 188.644531 297.667969 C 178.914062 297.671875 177.710938 366.746094 180.058594 370.375 Z M 271.09375 349.96875 C 275.558594 352.253906 285.613281 346.933594 285.902344 341.257812 C 286.199219 335.417969 249.886719 278.257812 242.179688 282.710938 C 233.753906 287.578125 267.246094 348 271.09375 349.96875 Z M 339.730469 286.777344 C 344.738281 286.527344 350.789062 276.890625 348.199219 271.832031 C 345.535156 266.625 285.507812 235.28125 281.058594 242.988281 C 276.195312 251.417969 335.414062 286.996094 339.730469 286.777344 Z M 367.578125 197.734375 C 371.789062 195.015625 372.210938 183.644531 367.4375 180.558594 C 362.527344 177.378906 294.871094 180.25 294.871094 189.148438 C 294.871094 198.878906 363.945312 200.082031 367.578125 197.734375 Z M 347.171875 106.699219 C 349.457031 102.238281 344.136719 92.179688 338.460938 91.890625 C 332.617188 91.597656 275.460938 127.910156 279.910156 135.617188 C 284.777344 144.042969 345.199219 110.546875 347.171875 106.699219 Z M 283.980469 38.0625 C 283.726562 33.054688 274.09375 27.007812 269.03125 29.59375 C 263.824219 32.257812 232.480469 92.285156 240.191406 96.738281 C 248.617188 101.597656 284.199219 42.382812 283.980469 38.0625 Z M 283.980469 38.0625 " fill-opacity="1" fill-rule="nonzero"/></svg>